<svg width="100" height="100" viewBox="0 0 100 100" fill="none" xmlns="http://www.w3.org/2000/svg">
<rect width="100" height="100" rx="15" fill="#6167CE"/>
<path d="M30.0589 69.2732C31.1554 69.3031 32.0374 69.3929 33.116 69.6442C35.1838 70.1946 36.8107 71.0023 38.229 72.6356C38.2365 72.6431 38.2439 72.6506 38.2518 72.6581C38.2749 72.68 38.295 72.705 38.3144 72.7302C38.3198 72.7372 38.3254 72.7438 38.3311 72.7498C38.3345 72.7535 38.3374 72.7575 38.3396 72.762C38.3414 72.7655 38.3435 72.7687 38.3461 72.7717C39.0053 73.5358 39.4037 74.2409 39.7665 75.1903C40.1241 76.2134 40.2432 77.039 40.2373 78.1219C40.2075 79.1869 40.0585 79.9945 39.7784 81.0116C39.5298 81.8085 38.5185 83.8613 38.2485 85.1513C38.1052 85.8362 38.7122 86.4605 39.312 86.1002C40.5869 85.3345 42.0754 82.5014 42.3409 81.945C42.8593 80.7005 43.1096 79.6176 43.2288 78.2715C43.3123 76.7698 43.1811 75.6091 42.7402 74.1732C42.2694 72.8151 41.7271 71.7741 40.8153 70.6672L40.8034 70.6553C40.7579 70.5982 40.7067 70.5459 40.6612 70.4888C40.6609 70.4884 40.6607 70.4881 40.6604 70.4877C38.7594 68.3578 36.477 67.3048 33.7238 66.7006C32.4068 66.4732 31.2686 66.4134 29.9338 66.539C29.315 66.6298 26.13 67.1672 25.1068 68.1664C24.6585 68.6042 25.0173 69.3124 25.6363 69.4096C26.9058 69.6091 29.2377 69.2732 30.0589 69.2732Z" fill="white"/>
<path d="M30.7343 64.3577C30.7362 64.3558 30.7389 64.3549 30.7416 64.3552C32.0388 64.4987 33.1046 64.6961 34.3665 65.0666C37.4772 66.0837 39.8133 67.4777 41.9646 69.9547C41.9705 69.9606 42.042 70.0444 42.0539 70.0624C42.1006 70.1209 42.1528 70.1776 42.1988 70.2367C42.2002 70.2384 42.2016 70.2401 42.2029 70.2418C44.2052 72.5991 45.1468 74.9025 45.5699 77.9777C45.7129 79.4495 45.6712 80.6042 45.4924 82.058C45.2801 83.4048 44.1223 86.8384 44.2683 88.5283C44.3226 89.1569 44.9359 89.6572 45.5324 89.4518C47.3927 88.8113 49.19 83.8565 49.497 82.8957C49.9738 81.0828 50.1108 79.5093 50.0453 77.6367C49.6937 73.5683 48.5257 70.2658 45.9334 67.1068C45.9321 67.1053 45.9308 67.1037 45.9295 67.1022C45.8628 67.025 45.796 66.946 45.7308 66.8675C45.6574 66.7693 45.5596 66.6731 45.4762 66.5832C42.6443 63.5307 39.5253 61.8254 35.4928 60.747C33.8957 60.388 32.4953 60.2145 30.8625 60.2504C29.7064 60.3342 22.9725 61.0581 23.6458 63.4453C24.1877 64.7127 29.0789 64.2238 30.7275 64.3603C30.7301 64.3606 30.7325 64.3596 30.7343 64.3577Z" fill="white"/>
<path d="M36.9147 53.3063C36.9168 53.3063 36.9189 53.3065 36.921 53.3069C39.5654 53.8512 41.722 54.4554 44.2239 55.5259C47.4002 56.9917 49.8256 58.5353 52.1378 61.1678C52.209 61.2393 52.2715 61.3196 52.3367 61.3968C52.3379 61.3982 52.3391 61.3997 52.3404 61.4011C52.8469 61.9874 53.2819 62.5558 53.7229 63.196C55.9874 66.666 56.8753 69.7951 57.1316 73.9233C57.1852 75.2515 57.1495 76.4481 57.0363 77.7703C56.9316 78.6896 56.0038 82.8539 55.7889 85.1862C55.6902 86.2582 56.5795 86.8034 57.1578 85.8954C58.4834 83.8137 59.6184 78.7624 59.7417 78.1113C59.9682 76.6515 60.0576 75.3173 60.0516 73.8395C59.9026 69.0831 58.9253 65.4396 56.3867 61.4071C55.8921 60.6652 55.3736 59.9532 54.7956 59.2772C54.7949 59.2764 54.7941 59.2755 54.7934 59.2747C54.7152 59.1853 54.641 59.0921 54.5572 59.008C51.9053 56.0464 49.027 54.2815 45.4038 52.702C42.6804 51.6311 40.2431 51.0028 37.3529 50.608C36.6718 50.536 31.4694 50.0649 28.8564 50.5502C27.6782 50.7691 27.8155 51.8211 28.9814 52.0981C31.4789 52.6914 36.0824 53.1571 36.9096 53.3058C36.9114 53.3062 36.9128 53.3063 36.9147 53.3063Z" fill="white"/>
<path d="M30.4806 75.0915C30.9931 74.9958 31.3924 74.936 31.9168 74.9539C32.3638 74.9719 32.7153 75.0317 33.1325 75.2052C33.4603 75.3488 33.6629 75.4744 33.931 75.7078C33.9322 75.7089 33.9335 75.71 33.935 75.7111C33.9487 75.721 33.9663 75.7283 33.975 75.7429C33.9775 75.747 33.9804 75.7514 33.9838 75.7548C33.9854 75.7563 33.9871 75.7579 33.9889 75.7597C34.0041 75.7743 34.0233 75.7871 34.0392 75.801C34.3109 76.0389 34.4845 76.2739 34.6581 76.5992C35.0182 77.3224 35.0641 78.167 34.9988 78.9722C34.9963 79.0032 34.9939 79.0302 34.9918 79.0522C34.8905 79.9796 34.4078 81.3257 35.1765 81.8881C36.2671 82.618 37.3695 80.4522 37.6377 79.7223C37.888 79.0103 37.9833 78.3761 37.9893 77.6283C37.9714 76.7608 37.8403 76.1026 37.5185 75.3009C37.188 74.5558 36.8293 74.0033 36.2557 73.4394C36.224 73.4082 36.1937 73.3741 36.1601 73.3448C36.1551 73.3405 36.1502 73.3363 36.1458 73.3327C36.1355 73.3243 36.1255 73.3156 36.1153 73.3072C36.0884 73.2849 36.0603 73.2632 36.0359 73.2382C36.0316 73.2337 36.0271 73.2293 36.0227 73.2249C35.4626 72.7582 34.8845 72.465 34.1992 72.2197C33.3649 71.9565 32.6856 71.8787 31.8095 71.9266C30.9931 72.0044 30.3197 72.1659 29.5748 72.5069C28.8716 72.842 26.8157 74.1044 27.6023 75.1454C28.2161 75.8932 29.5748 75.277 30.4806 75.0915Z" fill="white"/>
<path d="M31.8522 58.5366C31.854 58.533 31.8579 58.5308 31.862 58.5312C33.6289 58.6927 35.1231 58.926 36.8491 59.3801C40.6391 60.487 43.6128 61.9707 46.4077 64.7887C46.4278 64.8089 46.448 64.8272 46.4681 64.8436C46.4977 64.8678 46.5251 64.8959 46.5483 64.9263C46.5487 64.9267 46.549 64.9272 46.5494 64.9276C46.5682 64.952 46.5886 64.9763 46.6103 64.9981C49.3516 67.7741 50.6983 70.61 51.4552 74.445C51.7293 76.1861 51.777 77.598 51.6816 79.351C51.5672 80.7437 50.5337 85.1573 50.7106 87.2165C50.7749 87.9653 51.5535 88.4861 52.1729 88.0603C54.0447 86.7736 55.5345 80.8206 55.7458 79.8356C56.0855 77.7356 56.1093 75.9467 55.8888 73.8228C55.1439 68.9647 53.4932 65.1416 50.0905 61.5878C50.0845 61.5818 50.0488 61.5459 50.0488 61.5459C49.987 61.4839 49.9227 61.4256 49.8634 61.3612C49.8518 61.3486 49.84 61.3363 49.8283 61.3246C46.3898 57.9562 42.5223 56.1613 37.886 55.0186C35.8539 54.5998 34.0423 54.3964 31.9684 54.4323C30.9462 54.4945 24.7485 54.9743 23.405 56.6811C23.0172 57.1739 23.3071 57.8975 23.8991 58.1045C25.7591 58.7552 30.4883 58.4493 31.8432 58.5421C31.8472 58.5424 31.8504 58.5402 31.8522 58.5366Z" fill="white"/>
<path d="M38.4735 49.1186C38.4735 49.1203 38.4748 49.1218 38.4765 49.1221C41.5798 49.5946 43.9688 50.187 46.8284 51.5088C46.8726 51.531 46.919 51.5512 46.9631 51.5734C46.9639 51.5738 46.9647 51.5742 46.9654 51.5746C47.3946 51.7787 47.8339 51.9862 48.2532 52.2098C50.5995 53.4612 52.2633 54.7839 54.2893 56.6421C54.9747 57.2703 57.257 59.8669 58.2046 59.2566C59.2951 58.3652 56.7624 55.3857 56.2678 54.7515C54.3679 52.5271 52.279 50.8319 49.7922 49.3922C49.3195 49.1186 48.8389 48.8458 48.342 48.619C48.3403 48.6182 48.3385 48.6173 48.3367 48.6164C48.2876 48.5927 48.2359 48.5718 48.1871 48.5473C45.3982 47.255 41.763 46.4473 38.7 46.3874C37.9968 46.3755 33.4499 46.3456 33.5273 47.7097C33.6702 48.8034 37.5422 48.9837 38.4708 49.1152C38.4725 49.1155 38.4735 49.1169 38.4735 49.1186Z" fill="white"/>
<path d="M61.0904 72.8249C61.1619 73.8361 61.2751 74.6378 61.2692 75.6728C61.2692 75.6736 61.2692 75.6744 61.2693 75.6752C61.2702 75.6891 61.2751 75.7067 61.2751 75.7207C61.3407 76.7497 61.2871 77.5813 61.2871 78.5925C61.3109 79.436 61.3645 80.1001 62.2525 80.3694C63.2417 80.6446 63.5933 79.9625 63.9628 79.1249C64.3144 78.2335 64.5408 76.5942 64.517 75.6249C64.517 75.6245 64.517 75.624 64.5169 75.6235C64.5161 75.6004 64.511 75.5763 64.511 75.5531C64.4753 74.572 64.1415 72.9506 63.7184 72.0831C63.2894 71.2694 62.8722 70.5993 61.9009 70.9643C61.0427 71.3053 61.0487 71.9814 61.0904 72.819V72.8249Z" fill="white"/>
<path d="M54.3493 51.0186C55.0048 51.5392 55.559 51.9221 56.1848 52.5084C56.1923 52.516 56.2052 52.5228 56.2127 52.5305C56.2133 52.5311 56.2139 52.5317 56.2145 52.5323C56.882 53.0708 57.3587 53.5674 57.9725 54.1357C58.4969 54.5904 58.9379 54.9315 59.5934 54.5366C60.3145 54.0819 60.1 53.4836 59.7961 52.7896C59.4504 52.0716 58.5804 51.0127 57.9725 50.4862C57.9717 50.4854 57.9708 50.4846 57.9698 50.4838C57.9581 50.4744 57.9475 50.4662 57.9373 50.4551C57.9342 50.4517 57.9291 50.4488 57.9256 50.4458C57.3104 49.9198 56.1349 49.2172 55.3683 48.9904C54.6294 48.799 53.9918 48.6793 53.67 49.4751C53.4018 50.193 53.807 50.5699 54.3433 51.0127L54.3493 51.0186Z" fill="white"/>
<path d="M31.6574 80.0996C32.5329 80.0996 33.2426 79.3014 33.2426 78.3167C33.2426 77.3321 32.5329 76.5338 31.6574 76.5338C30.782 76.5338 30.0723 77.3321 30.0723 78.3167C30.0723 79.3014 30.782 80.0996 31.6574 80.0996Z" fill="white"/>
<path fill-rule="evenodd" clip-rule="evenodd" d="M39.3896 38.2358C39.3907 38.2347 39.3926 38.2354 39.3926 38.2369C39.3897 39.505 38.0441 41.284 36.5143 41.284C34.9828 41.284 33.7969 39.1601 33.7969 37.8917C33.7969 35.6437 39.3789 36.162 39.3866 38.2344C39.3866 38.236 39.3885 38.2369 39.3896 38.2358Z" fill="white"/>
<path fill-rule="evenodd" clip-rule="evenodd" d="M28.0357 41.8132C28.0341 41.8132 28.0327 41.8146 28.0327 41.8162C28.0333 43.4841 28.5321 44.8828 26.4476 45.5286C24.3618 46.1747 21.418 43.5542 21.418 42.2858C21.418 40.0377 28.0306 40.1438 28.0387 41.8102C28.0387 41.8118 28.0374 41.8132 28.0357 41.8132Z" fill="white"/>
<path fill-rule="evenodd" clip-rule="evenodd" d="M70.9559 74.807C70.1872 75.1241 69.1681 76.1053 68.0836 74.2865C66.999 72.4677 68.0895 69.3207 68.6735 69.0814C69.7104 68.6566 71.7247 74.49 70.9559 74.807Z" fill="white"/>
<path fill-rule="evenodd" clip-rule="evenodd" d="M50.5555 41.0694C50.1443 42.4095 48.2791 43.8993 46.8131 43.4446C45.3531 42.9899 44.9121 40.3873 45.3233 39.0472C46.0563 36.66 51.2289 38.8737 50.5555 41.0694Z" fill="white"/>
<path fill-rule="evenodd" clip-rule="evenodd" d="M62.4286 48.1185C61.7254 48.7168 59.7886 48.8604 58.7219 48.0766C57.6552 47.2928 58.0128 45.6834 58.716 45.0852C59.9674 44.0262 63.5787 47.1433 62.4286 48.1185Z" fill="white"/>
<path fill-rule="evenodd" clip-rule="evenodd" d="M41.3841 14.138C41.3826 14.138 41.3814 14.1367 41.3817 14.1351C41.5326 13.297 40.0381 11.8103 38.1035 11.4517C36.1608 11.0927 34.4029 12.2115 34.2479 13.0491C33.974 14.5318 41.1205 15.5007 41.3865 14.141C41.3868 14.1395 41.3857 14.138 41.3841 14.138Z" fill="white"/>
<path fill-rule="evenodd" clip-rule="evenodd" d="M21.7409 24.7785C21.7528 24.2759 20.7278 23.546 19.5598 23.5221C18.3859 23.4981 17.4622 24.3297 17.4503 24.8323C17.4324 25.7297 21.729 25.6041 21.7409 24.7785Z" fill="white"/>
<path fill-rule="evenodd" clip-rule="evenodd" d="M59.5505 16.9867C59.5505 16.9874 59.5515 16.9877 59.5518 16.9871C60.2351 15.6155 59.6743 12.406 57.5184 11.2222C55.3612 10.0376 52.0061 13.9265 51.4877 14.9615C50.5646 16.809 58.8547 18.3518 59.5492 16.9863C59.5495 16.9856 59.5505 16.986 59.5505 16.9867Z" fill="white"/>
<path fill-rule="evenodd" clip-rule="evenodd" d="M74.5868 25.8835C75.4807 24.7946 75.4568 21.857 73.526 20.4151C71.6012 18.9732 67.6681 21.7972 66.9888 22.6228C65.779 24.0886 73.6929 26.9724 74.5868 25.8835Z" fill="white"/>
<path fill-rule="evenodd" clip-rule="evenodd" d="M84.9644 64.5604C84.9642 64.5604 84.9641 64.56 84.9644 64.5599C86.0249 64.3897 87.4878 62.6861 87.1067 60.8869C86.7253 59.0801 83.0485 58.7091 82.244 58.8348C80.815 59.0619 83.9013 64.724 84.9646 64.5608C84.9649 64.5608 84.9647 64.5604 84.9644 64.5604Z" fill="white"/>
<path fill-rule="evenodd" clip-rule="evenodd" d="M38.8958 35.0114C38.8958 35.0102 38.8945 35.0094 38.8936 35.0102C38.106 35.6717 33.0433 35.2529 32.4777 34.3981C32.1439 33.8896 32.2452 31.3708 32.8829 30.8802C33.5563 30.3597 38.127 30.4075 39.0924 31.3768C39.515 31.801 39.4858 34.4992 38.8979 35.0125C38.8971 35.0133 38.8958 35.0125 38.8958 35.0114Z" fill="white"/>
<path fill-rule="evenodd" clip-rule="evenodd" d="M24.6525 35.2669C24.0625 36.1045 19.0449 36.9541 18.2821 36.266C17.8292 35.8592 17.3107 33.3942 17.8113 32.7541C18.3357 32.084 22.7753 30.9951 23.9493 31.6951C24.4618 32.0002 25.1054 34.6327 24.6525 35.2669Z" fill="white"/>
<path fill-rule="evenodd" clip-rule="evenodd" d="M26.0302 39.1957C25.3747 39.8239 20.3749 40.7094 19.6836 40.2607C19.2784 39.9974 18.9745 38.2684 19.5227 37.7897C20.0948 37.2812 24.5523 36.2641 25.6429 36.6949C26.1196 36.8863 26.5249 38.7231 26.0302 39.1957Z" fill="white"/>
<path fill-rule="evenodd" clip-rule="evenodd" d="M51.2204 38.4582C50.2609 38.9309 45.5472 36.9864 45.2849 35.9095C45.13 35.2753 46.0418 32.6369 46.8224 32.3018C47.6329 31.9489 51.9891 33.3488 52.591 34.6651C52.8591 35.2394 51.9474 38.0993 51.2204 38.4582Z" fill="white"/>
<path fill-rule="evenodd" clip-rule="evenodd" d="M64.0587 46.1392C63.0218 46.3127 58.8861 43.4529 58.8682 42.4538C58.8563 41.8615 60.3283 39.7914 61.1506 39.6897C62.0147 39.588 65.924 41.8794 66.2219 43.1717C66.353 43.7401 64.8454 46.0076 64.0587 46.1392Z" fill="white"/>
<path fill-rule="evenodd" clip-rule="evenodd" d="M77.632 70.0162C77.6301 70.0162 77.6284 70.0158 77.6269 70.0146C76.7731 69.3907 74.5785 63.8951 75.2751 63.1778C75.6863 62.753 79.2857 59.1393 79.9352 59.6598C80.6146 60.2043 82.9745 65.9897 82.2653 67.1145C81.9558 67.6045 78.2875 70.4759 77.6373 70.0179C77.6357 70.0168 77.6339 70.0162 77.632 70.0162Z" fill="white"/>
<path fill-rule="evenodd" clip-rule="evenodd" d="M71.5421 72.1966C71.5421 72.1978 71.5409 72.1986 71.54 72.1978C70.7306 71.5207 70.1602 66.5213 70.8985 65.8458C71.3335 65.4449 73.8602 65.1996 74.474 65.756C75.1236 66.3424 75.9639 70.8116 75.1892 71.8825C74.8499 72.3546 72.1624 72.7013 71.5443 72.1955C71.5434 72.1947 71.5421 72.1954 71.5421 72.1966Z" fill="white"/>
<path fill-rule="evenodd" clip-rule="evenodd" d="M40.0482 30.0039C40.0482 30.0025 40.047 30.0015 40.0458 30.0021C39.1681 30.4247 33.6653 29.8867 33.0759 29.259C32.7243 28.8881 32.915 27.1231 33.6301 26.812C34.381 26.483 39.3569 26.7342 40.376 27.4642C40.8223 27.7808 40.71 29.6727 40.0509 30.0056C40.0496 30.0062 40.0482 30.0053 40.0482 30.0039Z" fill="white"/>
<path fill-rule="evenodd" clip-rule="evenodd" d="M23.2058 29.5693C23.2058 29.5712 23.2053 29.5729 23.204 29.5743C22.6359 30.1963 18.1517 31.0137 17.5028 30.5535C17.1155 30.2843 16.7519 28.5552 17.2227 28.0766C17.7173 27.58 21.7041 26.6108 22.7171 27.0595C23.1634 27.2566 23.6275 29.088 23.2077 29.5641C23.2065 29.5656 23.2058 29.5674 23.2058 29.5693Z" fill="white"/>
<path fill-rule="evenodd" clip-rule="evenodd" d="M53.3526 33.4563C53.3526 33.4548 53.3515 33.4535 53.3499 33.4538C52.372 33.6468 47.2917 31.4423 46.9285 30.6055C46.714 30.1089 47.4708 28.2961 48.2574 28.1764C49.0798 28.0448 53.7519 29.7918 54.4908 30.8627C54.8122 31.3347 54.0875 33.3045 53.3555 33.4587C53.354 33.459 53.3526 33.4578 53.3526 33.4563Z" fill="white"/>
<path fill-rule="evenodd" clip-rule="evenodd" d="M67.2708 40.1888C67.2689 40.1908 67.2668 40.1919 67.264 40.1922C66.272 40.2815 61.3678 37.9053 61.0702 37.1226C60.8914 36.6619 61.7734 35.1004 62.566 35.0525C63.3943 35.0046 67.9293 36.9371 68.5908 37.9542C68.8822 38.4021 68.016 40.1076 67.2779 40.1854C67.2752 40.1857 67.2727 40.1869 67.2708 40.1888Z" fill="white"/>
<path fill-rule="evenodd" clip-rule="evenodd" d="M40.9105 25.9836C40.0106 26.4742 33.9501 25.4452 33.235 24.6016C32.8119 24.105 32.8238 21.8674 33.5687 21.5084C34.3493 21.1315 39.7961 21.7657 40.9879 22.7588C41.5123 23.1956 41.5898 25.6127 40.9105 25.9836Z" fill="white"/>
<path fill-rule="evenodd" clip-rule="evenodd" d="M55.5621 29.771C55.5627 29.771 55.5631 29.7717 55.5625 29.7719C54.5602 30.114 48.8724 27.7419 48.3663 26.6839C48.0684 26.0557 48.5868 23.6326 49.3973 23.3993C50.2494 23.154 55.434 24.9668 56.3696 26.289C56.7803 26.8686 56.3111 29.5014 55.5619 29.7701C55.5613 29.7703 55.5615 29.771 55.5621 29.771Z" fill="white"/>
<path fill-rule="evenodd" clip-rule="evenodd" d="M69.9334 35.8845C68.9203 36.1179 63.408 33.5333 62.979 32.5461C62.7227 31.9598 63.414 29.8298 64.2423 29.6803C65.1064 29.5247 70.1479 31.5649 70.9882 32.8273C71.3577 33.3777 70.7022 35.705 69.9334 35.8845Z" fill="white"/>
<path fill-rule="evenodd" clip-rule="evenodd" d="M40.5999 20.6822C39.5869 20.6344 33.9375 19.8566 33.1271 19.3241C32.6503 19.007 32.4835 15.6745 33.3237 15.7344C34.2057 15.7942 39.7776 16.4164 41.1244 17.1404C41.7143 17.4574 41.3687 20.7181 40.5999 20.6822Z" fill="white"/>
<path fill-rule="evenodd" clip-rule="evenodd" d="M56.7345 23.8358C55.781 23.4888 50.3819 22.0469 49.78 21.2452C49.4225 20.7726 50.3521 17.1888 51.1328 17.4999C51.9552 17.823 57.3364 19.0734 58.3911 20.2401C58.856 20.7546 57.4615 24.0991 56.7345 23.8358Z" fill="white"/>
<path fill-rule="evenodd" clip-rule="evenodd" d="M71.77 31.6695C71.7714 31.668 71.7714 31.6658 71.7696 31.665C70.8363 31.2734 65.5628 29.5596 65.0212 28.7887C64.6994 28.334 65.8793 25.199 66.6361 25.54C67.4287 25.899 72.7086 27.4485 73.674 28.5793C74.0963 29.075 72.4763 31.9549 71.771 31.6741C71.7691 31.6733 71.7686 31.6709 71.77 31.6695Z" fill="white"/>
</svg>
