<svg width="30" height="30" viewBox="0 0 30 30" fill="none" xmlns="http://www.w3.org/2000/svg">
<path d="M17.4789 0.127639C17.0902 0.31465 16.7635 0.666005 16.6171 1.04569C16.5044 1.35171 16.5044 1.44805 16.5044 7.8631C16.5044 12.289 16.4875 14.4708 16.4425 14.7032C16.2566 15.7402 15.4962 16.5223 14.4091 16.8C13.7332 16.9756 12.9559 16.8056 12.3476 16.3409L12.0265 16.0973L11.8406 16.4429C11.4689 17.1513 10.7535 17.6613 9.95369 17.803C9.24961 17.922 8.46104 17.6954 7.91468 17.208L7.64431 16.9643L7.52603 17.1343C7.46407 17.2307 7.25566 17.4573 7.06978 17.65C6.58538 18.1374 6.24742 18.2677 5.46448 18.2677C4.89559 18.2677 4.85053 18.2564 4.47877 18.0694C4.2591 17.9617 4.06196 17.8597 4.03943 17.8484C4.01127 17.837 4 18.8854 4.0169 20.1718C4.03943 22.7276 4.06196 22.9373 4.42245 23.9914C5.27861 26.5245 7.57672 28.474 10.2297 28.9217C10.7141 29.001 11.1365 29.0124 13.2375 28.9897C15.4793 28.967 15.7271 28.9557 16.1665 28.848C17.2705 28.576 18.0928 28.2133 19.0391 27.5843C19.5123 27.2726 20.1882 26.6152 24.683 22.0986C27.5557 19.2198 29.8369 16.8793 29.8932 16.766C30.0566 16.4429 30.0284 15.8932 29.8369 15.5646C29.5778 15.1169 29.2455 14.9525 28.6033 14.9525C27.8204 14.9525 26.8967 15.2359 26.1813 15.7006C25.956 15.8479 25.1674 16.5846 23.9958 17.7577C22.6553 19.1064 22.0976 19.6221 21.9118 19.7071C21.6132 19.8431 21.095 19.8658 20.819 19.7468C20.5599 19.6391 20.1995 19.2991 20.0755 19.0441C19.9741 18.8458 19.9685 18.4547 19.9403 10.0506L19.9122 1.26671L19.7545 0.943688C19.4559 0.331651 18.9772 0.0313002 18.2506 0.00296514C17.8337 -0.00836887 17.7324 0.00863215 17.4789 0.127639ZM18.1999 18.9818C18.3632 19.0668 18.4364 19.3048 18.3632 19.4918C18.2844 19.6788 18.1492 19.7468 17.6873 19.8261C15.6933 20.1775 13.8402 21.5659 12.9221 23.4134C12.4602 24.3314 12.1673 25.4705 12.1673 26.3319C12.1673 26.5925 12.1448 26.6605 12.004 26.8022C11.8068 27.0006 11.6604 27.0119 11.4576 26.8362C11.3168 26.7116 11.3112 26.6832 11.3168 26.2242C11.3619 23.7137 12.8376 21.2316 15.0738 19.8941C16.1665 19.2481 17.8056 18.7664 18.1999 18.9818Z" fill="white"/>
<path d="M13.536 7.2454C13.1756 7.31907 12.8827 7.49474 12.6067 7.80643C12.1561 8.31079 12.1617 8.27112 12.1786 11.6997C12.1955 14.6125 12.2011 14.7032 12.3138 14.9582C12.601 15.5872 13.1925 15.9726 13.8627 15.9726C14.4091 15.9726 14.7302 15.8422 15.1076 15.4626C15.6145 14.9525 15.6032 15.0432 15.6032 11.575C15.6032 8.75282 15.5976 8.59414 15.4906 8.30513C15.2146 7.56275 14.3302 7.08105 13.536 7.2454Z" fill="white"/>
<path d="M9.24398 8.21445C8.68635 8.32213 8.22447 8.68481 7.97664 9.22318C7.85835 9.47819 7.85835 9.54053 7.85835 12.544C7.85835 14.9469 7.87525 15.6496 7.93158 15.8196C8.06676 16.1993 8.41035 16.5676 8.81027 16.766C9.15386 16.9416 9.21018 16.9473 9.6439 16.9246C10.3649 16.885 10.8436 16.5676 11.1309 15.9499L11.2661 15.6609V9.47253L11.0915 9.12684C10.9 8.73015 10.6859 8.53181 10.2804 8.35046C9.94243 8.19745 9.58194 8.15212 9.24398 8.21445Z" fill="white"/>
<path d="M4.78294 10.2942C4.45061 10.4643 4.15771 10.8326 4.05633 11.201C4.02253 11.3313 4 12.34 4 13.7681C4 16.5109 4.00563 16.5506 4.45061 16.9926C4.72661 17.276 5.12089 17.446 5.49265 17.446C6.02775 17.446 6.59101 17.0946 6.82758 16.6073C6.95713 16.3409 6.95713 16.3296 6.97403 13.9155C6.99093 11.1273 6.98529 11.0536 6.57411 10.6059C6.25305 10.2546 5.98269 10.1356 5.48701 10.1356C5.15469 10.1356 5.03077 10.1639 4.78294 10.2942Z" fill="white"/>
</svg>
