<svg width="30" height="30" viewBox="0 0 30 30" fill="none" xmlns="http://www.w3.org/2000/svg">
<path d="M23.9552 3.0871C23.0507 3.35091 22.3243 4.05926 21.9778 5.02165C21.8912 5.25125 21.8864 5.5346 21.8624 9.17408C21.8383 12.7647 21.8287 13.1018 21.7469 13.3509C21.4438 14.284 20.751 15.0217 19.9042 15.3099C19.7214 15.3685 19.3846 15.432 19.12 15.4516C18.7015 15.4809 18.6149 15.5053 18.2011 15.7056C17.542 16.0329 17.0512 16.3846 16.498 16.922C15.2856 18.1091 14.5879 19.6382 14.4773 21.3627C14.4436 21.8952 14.3955 22.0173 14.2127 22.0955C14.1068 22.1394 14.0491 22.1345 13.9336 22.0759C13.7508 21.9831 13.7316 21.9196 13.7316 21.4995C13.7316 21.0109 13.8566 20.2244 14.025 19.6382C14.2079 19.0031 14.6938 17.9968 15.0835 17.4301C15.6416 16.6338 16.4739 15.857 17.3303 15.3343C17.4939 15.2317 17.6286 15.1389 17.6238 15.1194C17.6238 15.0998 17.4891 14.9875 17.3255 14.8653C17.1619 14.7432 16.9213 14.5087 16.7866 14.3377L16.5461 14.03L16.4547 14.1668C16.243 14.4794 15.6704 14.9924 15.3625 15.1438C14.3137 15.6714 13.0532 15.5004 12.2305 14.7237C12.0765 14.582 11.9418 14.4696 11.937 14.4794C11.9274 14.4892 11.8841 14.6309 11.8311 14.7921C11.7012 15.1927 11.326 15.7496 10.9988 16.0183C9.88264 16.9416 8.32864 16.9269 7.31349 15.9841C7.16434 15.8473 7.02482 15.7496 7.00076 15.7642C6.97671 15.7838 6.94303 15.857 6.92378 15.9401C6.87567 16.1648 6.55814 16.624 6.25985 16.9025C5.92307 17.2151 5.5911 17.3812 5.10517 17.4887C4.78283 17.5571 4.67217 17.562 4.3402 17.5131C3.93606 17.4545 3.32986 17.1956 3.16628 17.01C3.12298 16.9611 3.06525 16.9171 3.04119 16.9171C2.96902 16.9171 2.99789 19.1643 3.07968 19.7554C3.6041 23.5806 6.38012 26.7511 10.0462 27.7135C11.1432 28.0017 11.3981 28.0163 14.7804 27.9919C18.0856 27.9675 18.0183 27.9724 19.0623 27.689C22.2906 26.795 24.8742 24.1375 25.7113 20.8595C26.0096 19.6773 26 19.9557 26 11.5776V3.9469L25.8845 3.70264C25.7642 3.42907 25.5092 3.17992 25.2446 3.06756C25.0137 2.96986 24.3257 2.97963 23.9552 3.0871Z" fill="white"/>
<path d="M13.3563 4.77251C12.8848 4.95326 12.4614 5.32942 12.2449 5.7642C12.0044 6.25272 11.9995 6.31135 11.9995 9.64794C11.9995 11.7486 12.0188 12.8429 12.0525 13.0187C12.2786 14.1033 13.3178 14.8458 14.3811 14.6748C15.2615 14.538 15.9495 13.8834 16.1323 13.0187C16.166 12.8429 16.1852 11.7681 16.1852 9.64794C16.1852 6.26249 16.1852 6.2283 15.911 5.72512C15.733 5.38316 15.3433 5.01677 14.9824 4.83601C14.7034 4.69923 14.6168 4.67969 14.1646 4.66992C13.7267 4.65526 13.6209 4.66992 13.3563 4.77251Z" fill="white"/>
<path d="M18.3743 4.73831C17.5997 5.02165 17.0849 5.6323 16.9598 6.41882C16.8925 6.83407 16.8925 12.4814 16.955 12.9113C17.133 14.0642 18.23 14.8702 19.351 14.6699C20.1496 14.5283 20.7606 13.9909 20.9964 13.2141C21.0878 12.9162 21.0926 12.7501 21.0926 9.6626C21.0926 6.61912 21.0878 6.40417 21.0012 6.12571C20.8184 5.5346 20.4672 5.12424 19.8946 4.83601C19.6156 4.69923 19.529 4.67969 19.1008 4.66503C18.7303 4.65526 18.5571 4.6748 18.3743 4.73831Z" fill="white"/>
<path d="M8.52108 6.40905C7.89082 6.61911 7.38084 7.14183 7.1884 7.76714C7.09698 8.07002 7.09217 8.21658 7.09217 11.1282C7.09217 14.5722 7.08736 14.5185 7.47706 15.0754C7.89563 15.6616 8.54033 15.9694 9.3053 15.9303C9.67576 15.9108 9.77679 15.8864 10.0895 15.73C10.715 15.4174 11.1432 14.8067 11.2346 14.0935C11.2538 13.9127 11.2731 12.5791 11.2731 11.1282C11.2731 9.67725 11.2538 8.34359 11.2346 8.16284C11.1432 7.4496 10.715 6.83895 10.0847 6.52629C9.75755 6.3602 9.68538 6.34066 9.262 6.33088C8.90597 6.32111 8.73277 6.33577 8.52108 6.40905Z" fill="white"/>
<path d="M4.31614 8.41687C3.85428 8.51458 3.38759 8.87608 3.15666 9.32064L3.02676 9.5649L3.01233 12.5009C2.99789 15.4174 3.0027 15.4418 3.10374 15.7251C3.22883 16.0671 3.58485 16.4482 3.94088 16.624C4.14775 16.7315 4.24879 16.7462 4.66255 16.7462C5.06668 16.7462 5.17734 16.7266 5.36497 16.6338C5.70657 16.4628 5.95193 16.2234 6.13476 15.8815L6.29834 15.5737V9.61375L6.16362 9.34018C5.84128 8.66602 5.03301 8.26543 4.31614 8.41687Z" fill="white"/>
</svg>
