<svg width="38" height="38" viewBox="0 0 38 38" fill="none" xmlns="http://www.w3.org/2000/svg">
<path d="M19.3576 0.199474C17.7246 0.634043 16.3683 1.79289 15.6176 3.37314C14.8012 5.13775 15.025 7.5608 16.1444 9.0357C17.4744 10.774 19.0942 11.5378 21.2539 11.4192C22.1888 11.3666 22.5049 11.2876 23.3345 10.8793C25.639 9.74681 26.9032 7.31059 26.4818 4.84804C25.9024 1.4505 22.6366 -0.682831 19.3576 0.199474Z" fill="white"/>
<path d="M7.42669 6.71805C6.86043 7.04727 6.83409 7.16579 6.83409 9.95756V12.6308L6.13615 13.3946C5.37236 14.2242 4.60857 15.2909 3.95014 16.4761C3.55508 17.174 3.48923 17.2267 2.8703 17.3584C1.71145 17.6086 0.908159 18.2144 0.341903 19.281C0.0785284 19.7551 0.0521909 20.0448 0.0126847 22.165C-0.0399903 24.7724 0.0521909 25.3518 0.657953 26.1946C1.07935 26.774 2.25137 27.5115 2.76495 27.5115C3.22586 27.5115 3.48923 27.7485 3.67359 28.3675C4.09499 29.7633 5.43821 31.686 6.82092 32.8843L7.62422 33.5823V35.2942C7.62422 37.072 7.76907 37.6514 8.21681 37.8358C8.33533 37.8753 9.49418 37.9148 10.7847 37.9148C13.6687 37.9148 13.7082 37.8885 13.8135 36.5057C13.8925 35.4654 13.8267 35.4786 15.4596 35.9263C17.9617 36.5979 20.3584 36.5979 23.0448 35.9263C23.9139 35.7024 24.6777 35.5708 24.7436 35.6103C24.8226 35.6498 24.8753 36.0448 24.8753 36.4794C24.8753 37.1378 24.9279 37.3222 25.2045 37.5856C25.5205 37.9148 25.5469 37.9148 27.9041 37.9148C30.2613 37.9148 30.2876 37.9148 30.6037 37.5856C30.9197 37.2827 30.9329 37.1905 30.9329 35.6103C30.9329 33.8061 30.9987 33.5823 31.644 33.0555C32.3946 32.4629 33.5798 31.1461 34.1724 30.2506C36.3321 27.0242 36.9905 22.8366 35.9238 19.1098C35.7921 18.6358 35.6868 18.2407 35.7131 18.2275C35.7263 18.2144 35.9633 18.0695 36.2267 17.9115C37.3461 17.2399 37.9123 16.0547 37.9123 14.3954C37.9123 13.579 37.8728 13.3814 37.5963 13.0786C37.2012 12.6045 36.4638 12.565 36.0424 12.9995C35.8053 13.2234 35.7395 13.4868 35.6868 14.3823C35.6078 15.4753 35.4761 15.8045 35.002 16.0547C34.8177 16.16 34.686 16.0283 34.2119 15.2909C32.8423 13.1971 30.2086 11.1164 27.9831 10.3921L27.4695 10.2209L26.9164 10.8662L26.3502 11.5115L26.6662 11.8802C27.0744 12.3674 27.0744 12.9469 26.653 13.3551L26.337 13.6843H21.03C15.4464 13.6711 15.4728 13.6843 15.1567 13.0654C14.9329 12.6572 14.9592 12.3148 15.2621 11.946L15.5123 11.6168L15.0514 11.1691C14.8012 10.9189 14.4325 10.4711 14.2349 10.1683C13.8925 9.61517 13.853 9.602 13.1814 9.602H12.4835L11.5485 8.61435C10.8506 7.86373 10.3765 7.50817 9.67854 7.16579C8.63821 6.65221 7.82175 6.49418 7.42669 6.71805ZM9.95508 17.1345C10.3501 17.5823 10.4292 17.9642 10.2053 18.3987C9.67854 19.4259 8.15097 19.0308 8.15097 17.8588C8.15097 16.9897 9.37566 16.5024 9.95508 17.1345Z" fill="white"/>
</svg>
