<svg width="44" height="40" viewBox="0 0 44 40" fill="none" xmlns="http://www.w3.org/2000/svg">
<path d="M28.4994 0.0595308C28.0526 0.167142 27.6396 0.6307 27.589 1.0777C27.53 1.58265 27.5975 1.82271 27.9093 2.17037C28.0948 2.37732 28.2718 2.47665 28.4994 2.50976L28.8281 2.56771V5.29111C28.8281 7.39368 28.8028 8.02279 28.727 8.04762C27.8756 8.33735 27.5975 8.47807 27.2013 8.83402C26.7124 9.27274 26.3162 9.91013 26.2825 10.3157C26.2572 10.5724 26.2741 10.5889 26.8725 10.8207C27.8166 11.1849 28.6258 11.6899 29.3845 12.41C30.6404 13.5938 31.3822 14.9348 31.7025 16.5986C31.8037 17.1201 31.7699 19.1233 31.6519 19.4876L31.5929 19.678H37.5187L37.4934 15.0589C37.4681 10.473 37.4681 10.4482 37.2743 9.98463C36.9287 9.14857 36.1953 8.47807 35.285 8.17179L34.8551 8.03107L34.8298 5.29111L34.8129 2.54288H34.9984C35.1079 2.54288 35.3187 2.46838 35.4704 2.37732C36.288 1.88893 36.2796 0.787979 35.462 0.191976C35.2259 0.0264195 35.1248 0.0181417 32.006 0.00158604C30.2358 -0.00669177 28.6595 0.0181417 28.4994 0.0595308Z" fill="white"/>
<path d="M6.39782 2.29454C4.56024 2.57599 3.04297 4.00805 2.65522 5.82917C2.52878 6.40862 2.48664 7.27779 2.57936 7.36884C2.61308 7.39368 2.73951 7.36884 2.87438 7.30262C3.23684 7.11223 6.38939 7.12879 6.794 7.3109C7.59478 7.6834 7.65378 8.80918 6.89515 9.34724C6.63384 9.52935 6.53269 9.53763 4.99856 9.56247C4.10506 9.57902 3.37171 9.60385 3.37171 9.62041C3.37171 9.65352 4.56024 12.4183 4.60239 12.4928C4.62767 12.5259 4.7794 12.4597 4.94799 12.3521C5.24301 12.1451 5.28516 12.1451 6.97101 12.1451C8.91818 12.1451 9.12891 12.1948 9.44922 12.6998C9.78639 13.2378 9.63466 13.9249 9.08676 14.3139C8.82545 14.496 8.71587 14.5043 7.14803 14.5457L5.49589 14.5871L6.57484 17.1118L7.66221 19.6366L9.6178 19.6614L11.565 19.678L11.506 19.4958C11.4722 19.3882 11.4301 18.7674 11.4048 18.1052C11.3711 17.0125 11.388 16.8304 11.5818 16.0771C11.7083 15.6053 11.9696 14.9099 12.2056 14.4629L12.6102 13.6765L12.2393 13.0971C12.0454 12.7743 11.7757 12.2196 11.6493 11.8554C11.4301 11.2015 11.4217 11.1684 11.4217 8.94991C11.4217 6.76456 11.4301 6.69834 11.624 6.29273L11.8178 5.87056L11.3795 4.97655C11.0255 4.25638 10.8316 3.97494 10.4186 3.5776C9.3565 2.55943 7.83923 2.07104 6.39782 2.29454Z" fill="white"/>
<path d="M13.9336 7.10395C13.8493 7.18673 13.824 7.66684 13.824 8.9168C13.824 10.6634 13.8999 11.2346 14.2118 11.7064L14.3298 11.8968L14.8271 11.5657C15.4509 11.1435 16.2432 10.7959 17.0861 10.5558C17.6425 10.3985 17.9459 10.3654 19.008 10.3654C20.205 10.3654 20.7697 10.4482 21.4441 10.7048C21.5958 10.7627 21.6042 10.7296 21.5621 10.1336C21.4862 8.95818 20.7107 7.87379 19.5644 7.31918L19.008 7.05429L16.5214 7.02945C14.6164 7.0129 14.0095 7.02945 13.9336 7.10395Z" fill="white"/>
<path d="M17.7521 12.8488C15.8892 13.3123 14.4309 14.7527 13.942 16.6152C13.7819 17.2277 13.8156 18.9412 13.9926 19.4048L14.0938 19.678H29.0641L29.1822 19.3634C29.2496 19.1647 29.2917 18.6515 29.2917 17.8982C29.2917 16.5158 29.14 15.9695 28.4825 15.0093C27.8082 14.0159 26.8894 13.3206 25.7767 12.9646C25.2457 12.7908 25.0012 12.766 24.0656 12.7743C23.0709 12.7743 22.9192 12.7991 22.3797 13.0143C21.6464 13.2958 21.5115 13.2958 20.7782 13.0143C20.2808 12.8239 20.028 12.7825 19.2188 12.7577C18.5444 12.7329 18.0977 12.766 17.7521 12.8488Z" fill="white"/>
<path d="M0.674342 19.6697C0.23602 19.8932 0 20.2822 0 20.7706C0 20.9941 0.0421464 21.259 0.092722 21.3584C0.143298 21.4577 0.716489 22.062 1.35711 22.6994L2.52878 23.8583L2.54564 31.5152L2.57093 39.1722L2.7648 39.4454C2.87438 39.5944 3.08512 39.7765 3.22841 39.8593C3.48129 39.9917 4.5771 40 21.5789 40C39.508 40 39.6597 40 39.9463 39.8344C40.1065 39.7434 40.3088 39.5613 40.41 39.4371C40.587 39.2053 40.587 39.1805 40.6123 31.5732L40.6291 23.941L41.7165 22.8649C43.1326 21.4494 43.1579 21.4163 43.1579 20.8451C43.1579 20.125 42.8376 19.7359 42.1211 19.5621C41.5648 19.4296 41.2445 19.6283 39.9548 20.8865L38.7241 22.0785H4.42537L3.24527 20.9114C2.59622 20.2657 1.94716 19.6945 1.79544 19.6283C1.42455 19.471 1.01994 19.4793 0.674342 19.6697ZM22.169 27.8068C22.6748 28.1462 22.7759 28.3614 22.8265 29.1809L22.8686 29.9259L23.6526 29.959C24.3438 29.9838 24.4533 30.0087 24.6556 30.1908C25.1277 30.6212 25.2373 31.1262 24.9844 31.6477C24.7652 32.0947 24.3606 32.2851 23.5598 32.3265L22.8686 32.3596L22.8181 33.0549C22.7928 33.5516 22.7338 33.8165 22.5989 34.0234C22.1437 34.7519 21.0142 34.7519 20.559 34.0234C20.4241 33.8165 20.3651 33.5516 20.3398 33.0549L20.2893 32.3596L19.5981 32.3265C18.7973 32.2851 18.3927 32.0947 18.1735 31.6477C17.9206 31.1262 18.0302 30.6212 18.5023 30.1908C18.7046 30.0087 18.8141 29.9838 19.5053 29.959L20.2893 29.9259L20.3314 29.1809C20.3651 28.618 20.4157 28.3862 20.5421 28.2124C20.8035 27.873 21.2333 27.6247 21.5789 27.6247C21.7644 27.6247 22.0088 27.6992 22.169 27.8068Z" fill="white"/>
</svg>
