<svg width="30" height="30" viewBox="0 0 30 30" fill="none" xmlns="http://www.w3.org/2000/svg">
<path d="M12.536 1.13889C12.1508 1.3203 11.8166 1.67745 11.6693 2.05727C11.5561 2.3634 11.5561 2.45978 11.5561 8.77509C11.5561 13.5371 11.5391 15.2151 11.4881 15.3058C11.2785 15.7083 10.848 15.6573 10.6837 15.2208C10.6384 15.0847 9.97003 12.6187 9.19967 9.73316C8.43498 6.84762 7.75525 4.39292 7.69861 4.27954C7.52301 3.9394 7.26811 3.68429 6.92258 3.51422C6.65069 3.37816 6.53174 3.35548 6.14656 3.36115C5.77271 3.36115 5.64243 3.3895 5.41019 3.50855C5.04767 3.7013 4.74179 4.01876 4.57752 4.37591C4.31696 4.94849 4.30563 4.88613 5.93698 10.9747C6.75265 14.0076 7.42105 16.536 7.42105 16.587C7.42105 16.7174 7.2228 16.9215 7.05287 16.9669C6.9679 16.9895 6.86028 16.9669 6.78097 16.9158C6.713 16.8705 5.78404 15.3172 4.67382 13.384C3.388 11.1504 2.61764 9.86355 2.47603 9.72749C1.95491 9.21161 1.05427 9.20594 0.459509 9.71048C0.0120216 10.0846 -0.135253 10.884 0.136638 11.4622C0.210275 11.6153 0.890003 12.8285 1.6547 14.155C3.15576 16.7628 3.33702 17.0916 3.6429 17.8682C4.20367 19.2798 4.45291 20.51 4.53221 22.2334C4.56053 22.857 4.6285 23.5996 4.67382 23.8774C4.84942 24.8695 5.30257 25.958 5.90866 26.848C6.28817 27.4036 7.21713 28.3276 7.77224 28.7131C8.42365 29.161 9.40359 29.6088 10.1796 29.8186L10.848 29.9943L12.8872 30C14.6488 30 14.9943 29.9887 15.4078 29.898C16.8409 29.5918 18.2004 28.9115 19.1973 28.0045C19.4012 27.8231 21.65 25.4874 24.199 22.8173C27.2124 19.654 28.8608 17.8852 28.9174 17.7492C29.0364 17.4544 29.0251 16.9215 28.8948 16.6551C28.7532 16.383 28.4473 16.1165 28.1754 16.0258C27.8808 15.9294 26.9915 15.9861 26.4534 16.1392C25.8643 16.3093 25.1166 16.7118 24.7088 17.0802C24.5162 17.2503 23.7402 18.112 22.9755 18.9964C21.4404 20.7821 21.3611 20.8445 20.7437 20.8445C20.3359 20.8445 19.9054 20.6461 19.6561 20.3456C19.3559 19.9828 19.3163 19.7277 19.3163 18.2481V16.9158L20.9363 10.85C22.4997 5.00518 22.5563 4.76708 22.5337 4.37024C22.4714 3.41784 21.7406 2.77157 20.7437 2.79992C20.098 2.81126 19.4522 3.27045 19.237 3.85436C19.186 3.98475 18.41 6.69455 17.498 9.87489C16.5917 13.0552 15.8157 15.714 15.776 15.7764C15.6684 15.9464 15.4418 15.9918 15.2379 15.8841C15.1416 15.8331 15.0623 15.7877 15.0567 15.782C15.0453 15.7764 15.0283 12.7378 15.0113 9.02453L14.983 2.27837L14.8244 1.95523C14.6318 1.56407 14.2523 1.21259 13.8955 1.09354C13.4876 0.951809 12.8929 0.974485 12.536 1.13889ZM18.6366 20.0508C18.7838 20.1982 18.7838 20.51 18.6366 20.6461C18.5799 20.6971 18.2967 20.7935 18.0135 20.8502C17.3847 20.9805 16.7616 21.1846 16.2972 21.4171C14.105 22.5282 12.6946 24.6428 12.5247 27.0748C12.485 27.6814 12.4737 27.7324 12.3264 27.8571C12.1225 28.0328 11.9809 28.0215 11.7713 27.8117L11.5957 27.6417L11.6354 27.1031C11.7713 25.153 12.5247 23.4919 13.9068 22.12C14.966 21.0599 16.0253 20.4533 17.4754 20.0735C18.1268 19.9034 18.4836 19.8978 18.6366 20.0508Z" fill="white"/>
</svg>
