<svg width="30" height="30" viewBox="0 0 30 30" fill="none" xmlns="http://www.w3.org/2000/svg">
<path d="M15.3097 1.77484C15.0217 1.90344 14.8159 2.09378 14.677 2.36129C14.5947 2.5259 14.5587 2.74711 14.5072 3.44158C14.3941 4.94886 14.1214 6.02915 13.5658 7.1969C13.0308 8.31836 12.5524 9.00254 11.6882 9.8925C10.9834 10.6127 10.4484 11.0191 9.03372 11.9039C8.42669 12.2846 7.77851 12.7116 7.59332 12.8505C5.57676 14.3783 4.3267 16.6006 4.04891 19.1676C3.84314 21.0504 4.29069 22.9435 5.3144 24.4662C6.48216 26.2153 8.12832 27.3419 10.2581 27.8615C10.685 27.9643 10.8651 27.9746 13.8076 27.9901C15.5104 28.0004 16.9045 28.0004 16.9045 27.9798C16.9045 27.9643 16.8376 27.8615 16.7553 27.7431C16.5907 27.5219 16.4209 27.0435 16.3695 26.6783C16.2871 26.1176 16.5598 25.3408 17.0125 24.8469L17.2697 24.564L17.0434 24.4097C15.7933 23.5506 15.5515 21.7603 16.5392 20.6389C16.6575 20.5103 16.7501 20.3868 16.7501 20.3714C16.7501 20.356 16.6267 20.2839 16.4723 20.2068C15.9116 19.9341 15.4126 19.3683 15.2017 18.7715C15.1451 18.6018 15.0885 18.4526 15.0782 18.4474C15.068 18.4371 14.9033 18.5555 14.7079 18.7046C13.6533 19.5483 12.573 20.0627 11.2715 20.3405C10.8908 20.4228 10.4895 20.4588 9.74363 20.4794L8.73535 20.5103L8.6016 20.3765C8.44212 20.2171 8.43184 20.0422 8.57073 19.8673C8.66847 19.7438 8.68905 19.7386 9.58415 19.7026C10.0883 19.6821 10.7056 19.6306 10.9577 19.5895C12.1923 19.3785 13.3961 18.8075 14.3889 17.9587C14.8776 17.5369 15.0834 17.2797 15.3252 16.7858C15.5309 16.364 15.8756 15.973 16.2511 15.7313L16.4826 15.5872L16.1945 15.2734C15.8447 14.903 15.639 14.5018 15.5361 13.9976C15.3046 12.8968 15.9219 11.6879 16.9713 11.1889C17.3674 10.9985 17.3726 10.9882 17.6967 10.052C18.2162 8.56014 18.4683 7.10431 18.5352 5.19064C18.5712 4.10005 18.5249 3.69365 18.314 3.22038C17.9899 2.48989 17.316 1.92917 16.5186 1.71825C16.1688 1.6308 15.5721 1.65652 15.3097 1.77484Z" fill="white"/>
<path d="M17.4443 11.8319C16.9556 12.0068 16.472 12.5419 16.3331 13.0614C16.3023 13.1746 16.2868 13.4267 16.2971 13.6273C16.3331 14.2755 16.6829 14.8208 17.2745 15.1294L17.5472 15.2735L20.6132 15.2889C23.6226 15.3043 23.6894 15.2992 23.9724 15.1963C24.1421 15.1294 24.3736 14.9854 24.5331 14.8362C25.4591 13.9874 25.2584 12.511 24.1319 11.9143L23.8746 11.7754L20.7624 11.7651C18.1645 11.7599 17.6141 11.7702 17.4443 11.8319Z" fill="white"/>
<path d="M17.0739 16.1942C16.4257 16.4 15.9318 17.0122 15.8495 17.7169C15.7672 18.4269 16.1685 19.1676 16.8166 19.4969C17.2333 19.7129 17.6346 19.7284 21.2253 19.7129C24.3993 19.6975 24.6102 19.6923 24.8263 19.5998C25.8551 19.1625 26.2873 18.0513 25.7986 17.0688C25.6494 16.7755 25.2584 16.4052 24.9395 16.2611C24.6977 16.1479 24.6822 16.1479 20.9938 16.1377C18.0461 16.1274 17.2436 16.1428 17.0739 16.1942Z" fill="white"/>
<path d="M18.031 20.5618C17.0999 20.819 16.534 21.781 16.7706 22.7121C16.8838 23.1494 17.1462 23.5352 17.4857 23.7616C17.9795 24.0857 18.0773 24.0959 20.9015 24.0959C23.9778 24.0959 24.0704 24.0805 24.6054 23.5507C24.9603 23.1906 25.1095 22.8253 25.1095 22.2955C25.1095 21.9302 25.0838 21.8119 24.9706 21.5701C24.7854 21.1637 24.5128 20.8859 24.1166 20.6904L23.772 20.5207L21.0198 20.5104C18.9467 20.5001 18.211 20.5155 18.031 20.5618Z" fill="white"/>
<path d="M18.3807 24.9241C17.2129 25.207 16.7602 26.6063 17.5525 27.4911C18.0154 28.0004 17.8714 27.9798 20.603 27.9952C23.2883 28.0106 23.2935 28.0106 23.7153 27.6403C24.0651 27.3316 24.2349 26.9458 24.2297 26.4622C24.2246 25.8037 23.8954 25.279 23.3089 25.0115C23.0517 24.8932 23.0311 24.8932 20.8139 24.8829C19.5844 24.8778 18.4887 24.8984 18.3807 24.9241Z" fill="white"/>
</svg>
