<svg width="36" height="41" viewBox="0 0 36 41" fill="none" xmlns="http://www.w3.org/2000/svg">
<path d="M16.5066 0.107302C13.718 0.711091 11.5412 2.94352 10.9692 5.77974C10.8579 6.29614 10.8421 6.69337 10.8738 7.52755C10.9215 8.83047 11.0407 9.29125 11.6047 10.4353C12.3356 11.905 13.3049 12.8822 14.7826 13.6131C16.0537 14.2407 16.4351 14.3281 18.0001 14.3281C19.5652 14.3281 19.9466 14.2407 21.2177 13.6131C22.6954 12.8822 23.6646 11.905 24.3955 10.4353C24.9596 9.29125 25.0788 8.83047 25.1264 7.52755C25.1582 6.69337 25.1423 6.29614 25.0311 5.77974C24.4591 2.92763 22.2664 0.703146 19.4619 0.107302C18.7787 -0.0357008 17.1818 -0.0357008 16.5066 0.107302Z" fill="white"/>
<path d="M11.0887 14.5658C5.41624 15.5271 1.11821 19.9046 0.236365 25.6088C0.0774729 26.6336 0.0854175 30.2325 0.244309 31.3051C0.705096 34.3717 2.08746 37.192 4.161 39.2814C5.01901 40.1474 5.82142 40.5446 6.91777 40.64C8.5623 40.775 10.1592 39.5754 10.5326 37.9309L10.62 37.5495L10.1036 37.0013C8.14124 34.9278 6.78271 32.6159 6.3537 30.6139C6.15509 29.7161 6.19481 28.31 6.43315 27.3645C7.29117 24.0278 10.326 21.851 13.48 22.3118C14.3301 22.431 15.2119 22.7726 15.9508 23.2572C16.5148 23.6306 17.5079 24.5839 17.7939 25.0288C17.8734 25.1559 17.9687 25.2513 18.0005 25.2513C18.0323 25.2513 18.1514 25.1162 18.2626 24.9573C19.0968 23.7895 20.5348 22.7726 21.8536 22.431C26.1119 21.3187 30.2193 25.1718 29.7505 29.8353C29.5281 32.0439 28.3761 34.1413 25.7623 37.1126L25.381 37.5495L25.4684 37.9229C25.8418 39.5833 27.4307 40.775 29.0832 40.64C30.1795 40.5446 30.9819 40.1474 31.84 39.2814C33.9135 37.192 35.2959 34.3717 35.7566 31.3051C35.9155 30.2325 35.9235 26.6336 35.7646 25.6088C35.0496 20.9612 32.0545 17.1319 27.7485 15.3603C26.9461 15.0345 25.5637 14.6611 24.666 14.5261L24.0622 14.4387L23.4981 14.8598C21.9092 16.0514 20.0343 16.6711 18.0005 16.6711C15.9667 16.6711 14.0917 16.0514 12.5108 14.8677C12.2009 14.6373 11.8911 14.4466 11.8196 14.4546C11.7481 14.4625 11.4144 14.5102 11.0887 14.5658Z" fill="white"/>
<path d="M11.8035 24.6161C11.6049 24.6558 11.1839 24.8226 10.8581 24.9815C9.82534 25.49 9.10238 26.3957 8.70515 27.6747C8.46681 28.4295 8.46681 29.7244 8.69721 30.5904C9.31688 32.942 11.3666 35.4446 15.7838 39.2103C16.5941 39.9015 17.333 40.5132 17.4283 40.5609C17.6825 40.7118 18.3658 40.688 18.62 40.5291C19.2 40.1636 21.7025 37.9312 23.0928 36.5409C25.1743 34.4515 26.0005 33.4028 26.787 31.8536C27.6848 30.074 27.7166 28.2388 26.8744 26.6499C26.1594 25.2914 24.6023 24.4413 23.0451 24.5605C21.5674 24.6717 20.3599 25.6171 19.5416 27.3093C19.343 27.7304 19.0967 28.2309 19.0093 28.4215C18.771 28.9062 18.477 29.1048 18.0003 29.1048C17.5237 29.1048 17.2297 28.9062 16.9914 28.4215C16.904 28.2309 16.6577 27.7304 16.4591 27.3093C15.8394 26.0302 14.9814 25.1643 13.9486 24.767C13.4481 24.5764 12.3756 24.4969 11.8035 24.6161Z" fill="white"/>
</svg>
