<svg width="42" height="38" viewBox="0 0 42 38" fill="none" xmlns="http://www.w3.org/2000/svg">
<path fill-rule="evenodd" clip-rule="evenodd" d="M19.458 35.1555C19.4514 35.149 19.4456 35.1409 19.452 35.1549L19.458 35.1555Z" fill="white"/>
<path fill-rule="evenodd" clip-rule="evenodd" d="M15.0767 34.5343L15.0743 34.5397C15.056 34.5813 15.0717 34.5506 15.0911 34.5247L15.0767 34.5343Z" fill="white"/>
<path d="M19.6737 33.9424C19.8605 32.9263 20.1722 31.632 20.2885 30.6639L20.3371 30.2596C19.9606 30.3211 19.585 30.3719 19.2114 30.4115L19.2069 30.4459C19.0834 31.3693 18.5866 33.1011 18.2657 33.9887L18.2239 34.1053C18.1459 34.3212 18.0722 34.5296 18.0047 34.7338C17.9416 34.9253 17.8924 35.0906 17.8643 35.22C17.8276 35.3914 17.8238 35.5152 17.8665 35.6439C17.908 35.77 17.9802 35.8623 18.0966 35.9764C18.1826 36.0608 18.3073 36.171 18.473 36.3082C18.6301 36.4388 18.8247 36.5939 19.0592 36.7765C19.3251 36.9831 19.6398 37.2233 19.9197 37.427C20.1458 37.5917 20.355 37.7373 20.5091 37.8311C20.7427 37.9738 20.9064 38.0193 21.0224 37.9929C21.3002 37.9289 21.3385 37.731 21.2352 37.4435C21.1934 37.327 21.1146 37.1732 20.998 36.9923C20.9 36.84 20.7723 36.6635 20.6137 36.4675C20.3419 36.1317 19.9941 35.7549 19.7512 35.4916L19.5977 35.3251C19.5069 35.2259 19.4625 35.1756 19.4525 35.1561L19.452 35.1549C19.4456 35.1409 19.4514 35.149 19.458 35.1555C19.4627 35.1602 19.4679 35.1644 19.469 35.1575L19.5183 34.8302C19.5395 34.6943 19.5697 34.516 19.6111 34.2842L19.6737 33.9424Z" fill="white"/>
<path d="M16.5844 31.0102L16.6401 30.738L16.6849 30.5141L16.6542 30.5022C16.1679 30.4826 15.6902 30.4406 15.2237 30.3751L15.2017 30.5297L15.1577 30.79C15.1276 30.9547 15.0875 31.1452 15.0308 31.3596C14.977 31.5625 14.9086 31.7791 14.8207 31.9994C14.7333 32.2168 14.6256 32.4391 14.5072 32.6512C14.3861 32.8675 14.2557 33.0706 14.1251 33.2441C13.9784 33.4399 13.8205 33.6114 13.6871 33.7564L13.6715 33.7734C13.569 33.8837 13.4798 33.9799 13.418 34.0612C13.3127 34.1973 13.2539 34.3184 13.2377 34.4445C13.2194 34.5862 13.2531 34.7135 13.3343 34.8501C13.3971 34.9557 13.489 35.066 13.6027 35.1833C13.7149 35.3004 13.8354 35.4146 13.9658 35.5366L14.0719 35.6356C14.3155 35.8624 14.5937 36.1218 14.8595 36.3992L15.0815 36.6362L15.0823 36.6371C15.3404 36.9144 15.5876 37.18 15.7954 37.3108C15.9023 37.3775 16.0052 37.414 16.0979 37.4223C16.2068 37.4319 16.3041 37.4061 16.3858 37.349C16.4652 37.2933 16.519 37.2149 16.5438 37.1172C16.5663 37.0274 16.5629 36.9161 16.5284 36.7896C16.4843 36.6325 16.3884 36.4382 16.266 36.2289C16.1489 36.0273 16.0123 35.8152 15.8779 35.6092C15.7264 35.3775 15.5888 35.1695 15.4789 35.0082C15.3587 34.83 15.2576 34.6832 15.1902 34.5898L15.1255 34.5021C15.118 34.4925 15.1036 34.5075 15.0911 34.5247C15.0717 34.5506 15.056 34.5813 15.0743 34.5397L15.0767 34.5343C15.0907 34.5045 15.1255 34.4492 15.1772 34.3671L15.1862 34.3528C15.2402 34.2672 15.3102 34.1561 15.4041 33.9986C15.5198 33.8043 15.6628 33.5553 15.7982 33.2938C15.9048 33.0879 16.0101 32.8713 16.0991 32.661C16.2017 32.4182 16.2843 32.1808 16.3525 31.954C16.4185 31.7343 16.4711 31.5226 16.5164 31.3233L16.5844 31.0102Z" fill="white"/>
<path d="M36.2466 11.1764C35.897 11.0141 35.1082 11.0368 34.7479 11.1032C34.6681 11.2414 34.6416 11.406 34.6947 11.5987C34.8025 11.9916 35.2911 12.1585 35.9138 12.066C35.9894 12.0547 36.0665 12.0414 36.145 12.0262C36.1757 11.7451 36.2092 11.4619 36.2466 11.1764Z" fill="white"/>
<path d="M34.62 5.03538C34.7231 5.13357 34.8169 5.22375 34.898 5.3021L35.6488 4.62089C35.6201 4.61712 35.5916 4.61367 35.5635 4.61056C35.2688 4.57987 34.9116 4.70843 34.6927 4.93026C34.6683 4.96283 34.644 4.99798 34.62 5.03538Z" fill="white"/>
<path fill-rule="evenodd" clip-rule="evenodd" d="M34.898 5.3021C34.8169 5.22375 34.7231 5.13357 34.62 5.03538C34.644 4.99798 34.6683 4.96283 34.6927 4.93026C34.9116 4.70843 35.2688 4.57987 35.5635 4.61056C35.5916 4.61367 35.6201 4.61712 35.6488 4.62089L35.8412 4.44629C35.1102 3.70051 34.1368 2.859 33.2544 2.288C28.4851 -0.799787 21.3842 -0.497701 16.7363 1.62345C15.025 2.40438 13.2483 3.65285 12.0342 5.19783C11.8044 5.49025 10.8107 6.77546 10.6275 7.35583C10.9481 7.35801 11.2688 7.35647 11.5895 7.35148C11.1705 7.61554 10.7994 7.7602 10.6314 7.61011C10.5864 7.56527 10.5897 7.47555 10.6275 7.35583C7.32154 7.33337 4.03402 6.91572 0.933163 5.80928C0.451248 5.63765 -0.0372356 5.90421 0.00224275 6.44712C0.0483008 7.0677 1.76122 8.73565 2.33186 9.20383L1.01771 8.9516C0.514059 8.8551 0.162938 8.99024 0.0724171 9.43508C0.0331381 9.62965 0.0973419 9.86247 0.258445 10.1755C1.48058 12.5539 4.83048 15.2598 7.94011 16.8762C8.02374 16.8086 8.07967 16.7795 8.09652 16.8057C8.12176 16.8447 8.13016 16.9008 8.12413 16.9707C8.0629 16.9396 8.00155 16.9081 7.94011 16.8762C7.48072 17.2475 6.18564 18.7808 5.94437 18.6949C4.84905 18.3035 2.63329 18.3722 1.4724 19.1827C1.04492 19.481 1.05072 20.0167 1.44652 20.3253C1.75622 20.567 2.85313 20.9293 3.27204 21.1428C2.85871 21.3714 2.36606 21.7549 2.09601 22.1367C1.83135 22.511 1.34485 23.1756 1.45925 23.6411C1.52003 23.8886 1.66333 24.082 1.91723 24.1871C2.49439 24.426 4.34242 23.894 4.99371 24.1996C7.19451 25.2316 8.7223 27.6534 11.5734 29.2171C12.6562 29.811 13.8943 30.1884 15.2237 30.3751C15.6902 30.4406 16.1679 30.4826 16.6542 30.5022C17.4864 30.5357 18.3434 30.5037 19.2114 30.4115C19.585 30.3719 19.9606 30.3211 20.3371 30.2596C25.2422 29.459 30.3047 26.845 33.0822 23.3941C35.8476 19.9578 35.6843 16.239 36.145 12.0262C36.0665 12.0414 35.9894 12.0547 35.9138 12.066C35.2911 12.1585 34.8025 11.9916 34.6947 11.5987C34.6416 11.406 34.6681 11.2414 34.7479 11.1032C35.1082 11.0368 35.897 11.0141 36.2466 11.1764C36.2092 11.4619 36.1757 11.7451 36.145 12.0262C37.8716 11.6922 40.2682 10.448 41.5011 9.5507C42.2067 9.03785 42.0967 8.33546 41.5883 7.7831C40.3159 6.40055 37.4519 4.85826 35.6488 4.62089L34.898 5.3021ZM31.5 5C31.0235 5 30 5 30 6C30 6.88102 31.0235 7 31.5 7C31.9767 7 33 7 33 6C33 5.21567 31.9767 5 31.5 5Z" fill="white"/>
<path d="M10.6314 7.61011C10.7994 7.7602 11.1705 7.61554 11.5895 7.35148C11.2688 7.35647 10.9481 7.35801 10.6275 7.35583C10.5897 7.47555 10.5864 7.56527 10.6314 7.61011Z" fill="white"/>
</svg>
