<svg width="30" height="30" viewBox="0 0 30 30" fill="none" xmlns="http://www.w3.org/2000/svg">
<path d="M14.5661 1.0862C14.2157 1.20654 13.8244 1.55661 13.6317 1.91762L13.4682 2.2294L13.439 9.40038C13.4098 16.358 13.404 16.5823 13.2988 16.6917C13.147 16.8503 12.855 16.8449 12.6915 16.6808L12.563 16.555L12.5338 4.58144L12.3994 4.30248C12.2301 3.9524 11.8622 3.61327 11.4825 3.44918C11.0737 3.27414 10.4313 3.27961 10.005 3.45465C9.63123 3.61327 9.22826 4.01257 9.07641 4.37905C8.97713 4.61973 8.97129 4.96433 8.95377 10.5983L8.93625 16.555L8.81361 16.6808C8.64424 16.8503 8.39312 16.8449 8.21207 16.6698L8.06607 16.5385V12.4143C8.06607 7.90164 8.07191 7.95087 7.7215 7.56251C7.62806 7.45311 7.41198 7.29449 7.24261 7.20697C6.97981 7.07022 6.863 7.04834 6.51843 7.04834C5.90522 7.04834 5.46721 7.29449 5.1752 7.78678L5 8.08215V15.3297C5 22.1123 5.00584 22.6101 5.10512 23.0696C5.43217 24.5847 6.14467 25.8373 7.27765 26.8985C8.29968 27.8557 9.43266 28.4628 10.8985 28.8239L11.4825 28.9715L14.2274 28.9934C16.5868 29.0098 17.054 28.9989 17.5563 28.9223C19.1156 28.6762 20.5581 27.976 21.7028 26.8985C22.8066 25.8701 23.5015 24.6722 23.8403 23.2172C23.9512 22.7468 23.9688 22.4624 23.9921 20.6738C24.0096 19.3719 23.998 18.4858 23.9571 18.1467C23.8461 17.2551 23.5132 16.4401 22.9701 15.7126C22.6489 15.2805 18.1578 11.0413 17.9301 10.9484C17.6965 10.8608 17.4745 10.9319 17.2292 11.1726C16.727 11.6649 16.4583 12.5291 16.5751 13.2457C16.6861 13.9075 16.9197 14.2795 17.6614 14.996C19.5011 16.7683 19.6471 16.9488 19.8339 17.6927C20.0383 18.5132 19.9332 18.6663 19.0572 18.8304C16.9548 19.2242 15.1618 20.5097 14.1924 22.3311C13.7602 23.1407 13.5441 23.901 13.4624 24.9074C13.4273 25.3341 13.3981 25.438 13.2871 25.5419C13.1119 25.706 12.855 25.706 12.6915 25.5419C12.3469 25.2028 12.6915 23.3321 13.328 22.074C13.9938 20.7613 15.2261 19.5306 16.5927 18.8031C17.1124 18.5241 17.8366 18.2506 18.4498 18.0975C18.9462 17.9717 18.9579 17.9662 18.9404 17.8185C18.8937 17.452 18.6192 17.1074 17.5037 16.0408C15.9853 14.5967 15.7283 14.1701 15.6699 13.0324C15.6232 12.0533 15.9444 11.2328 16.6335 10.5709L17.0015 10.2154L16.9898 6.1677L16.9723 2.12L16.838 1.89027C16.6569 1.56755 16.3357 1.28311 15.9853 1.12996C15.6349 0.976802 14.9633 0.954922 14.5661 1.0862Z" fill="white"/>
<path d="M19.1857 7.56251C18.6834 7.7102 18.1345 8.23531 17.9943 8.70024C17.9651 8.80964 17.9359 9.16518 17.9359 9.48243V10.0622L18.2162 10.1607C18.444 10.2373 18.7477 10.4944 19.9507 11.6157C20.7567 12.365 21.4341 12.9777 21.4575 12.9777C21.4809 12.9777 21.4984 12.0095 21.4867 10.828C21.4692 8.72212 21.4692 8.67837 21.3349 8.4541C20.9961 7.85242 20.4939 7.55157 19.8047 7.52969C19.5653 7.51875 19.285 7.53516 19.1857 7.56251Z" fill="white"/>
</svg>
