<svg width="23" height="15" viewBox="0 0 23 15" fill="none" xmlns="http://www.w3.org/2000/svg">
<path d="M22.7071 8.07088C23.0976 7.68035 23.0976 7.04719 22.7071 6.65666L16.3431 0.292702C15.9526 -0.0978227 15.3195 -0.0978227 14.9289 0.292702C14.5384 0.683226 14.5384 1.31639 14.9289 1.70692L20.5858 7.36377L14.9289 13.0206C14.5384 13.4111 14.5384 14.0443 14.9289 14.4348C15.3195 14.8254 15.9526 14.8254 16.3431 14.4348L22.7071 8.07088ZM0 8.36377C0.00650338 8.36377 0.0130426 8.36377 0.0196175 8.36377C0.0261925 8.36377 0.0328031 8.36377 0.0394494 8.36377C0.0460956 8.36377 0.0527774 8.36377 0.0594948 8.36377C0.0662121 8.36377 0.0729649 8.36377 0.079753 8.36377C0.0865412 8.36377 0.0933647 8.36377 0.100223 8.36377C0.107082 8.36377 0.113976 8.36377 0.120905 8.36377C0.127834 8.36377 0.134799 8.36377 0.141798 8.36377C0.148797 8.36377 0.155831 8.36377 0.1629 8.36377C0.169969 8.36377 0.177073 8.36377 0.184212 8.36377C0.191351 8.36377 0.198524 8.36377 0.205732 8.36377C0.21294 8.36377 0.220183 8.36377 0.22746 8.36377C0.234737 8.36377 0.242049 8.36377 0.249395 8.36377C0.256741 8.36377 0.264122 8.36377 0.271537 8.36377C0.278951 8.36377 0.2864 8.36377 0.293884 8.36377C0.301367 8.36377 0.308884 8.36377 0.316436 8.36377C0.323987 8.36377 0.331573 8.36377 0.339192 8.36377C0.346811 8.36377 0.354464 8.36377 0.362151 8.36377C0.369838 8.36377 0.377559 8.36377 0.385314 8.36377C0.393068 8.36377 0.400856 8.36377 0.408678 8.36377C0.4165 8.36377 0.424355 8.36377 0.432244 8.36377C0.440132 8.36377 0.448055 8.36377 0.45601 8.36377C0.463965 8.36377 0.471954 8.36377 0.479976 8.36377C0.487998 8.36377 0.496053 8.36377 0.504141 8.36377C0.512229 8.36377 0.520351 8.36377 0.528505 8.36377C0.536659 8.36377 0.544846 8.36377 0.553066 8.36377C0.561286 8.36377 0.569539 8.36377 0.577824 8.36377C0.58611 8.36377 0.594428 8.36377 0.602779 8.36377C0.611129 8.36377 0.619513 8.36377 0.627928 8.36377C0.636344 8.36377 0.644793 8.36377 0.653273 8.36377C0.661754 8.36377 0.670267 8.36377 0.678812 8.36377C0.687357 8.36377 0.695935 8.36377 0.704544 8.36377C0.713154 8.36377 0.721795 8.36377 0.730469 8.36377C0.739142 8.36377 0.747848 8.36377 0.756585 8.36377C0.765323 8.36377 0.774092 8.36377 0.782893 8.36377C0.791694 8.36377 0.800527 8.36377 0.809391 8.36377C0.818256 8.36377 0.827152 8.36377 0.836079 8.36377C0.845007 8.36377 0.853966 8.36377 0.862956 8.36377C0.871947 8.36377 0.880968 8.36377 0.890021 8.36377C0.899074 8.36377 0.908159 8.36377 0.917274 8.36377C0.92639 8.36377 0.935536 8.36377 0.944714 8.36377C0.953891 8.36377 0.9631 8.36377 0.972339 8.36377C0.981579 8.36377 0.990849 8.36377 1.00015 8.36377C1.00945 8.36377 1.01878 8.36377 1.02815 8.36377C1.03751 8.36377 1.0469 8.36377 1.05633 8.36377C1.06575 8.36377 1.0752 8.36377 1.08469 8.36377C1.09417 8.36377 1.10369 8.36377 1.11323 8.36377C1.12278 8.36377 1.13236 8.36377 1.14196 8.36377C1.15157 8.36377 1.1612 8.36377 1.17087 8.36377C1.18054 8.36377 1.19023 8.36377 1.19996 8.36377C1.20968 8.36377 1.21944 8.36377 1.22923 8.36377C1.23901 8.36377 1.24883 8.36377 1.25867 8.36377C1.26852 8.36377 1.27839 8.36377 1.2883 8.36377C1.2982 8.36377 1.30814 8.36377 1.3181 8.36377C1.32806 8.36377 1.33806 8.36377 1.34808 8.36377C1.3581 8.36377 1.36815 8.36377 1.37824 8.36377C1.38832 8.36377 1.39843 8.36377 1.40857 8.36377C1.4187 8.36377 1.42887 8.36377 1.43907 8.36377C1.44927 8.36377 1.45949 8.36377 1.46975 8.36377C1.48 8.36377 1.49029 8.36377 1.5006 8.36377C1.51091 8.36377 1.52126 8.36377 1.53163 8.36377C1.542 8.36377 1.55239 8.36377 1.56282 8.36377C1.57325 8.36377 1.5837 8.36377 1.59419 8.36377C1.60467 8.36377 1.61519 8.36377 1.62573 8.36377C1.63627 8.36377 1.64684 8.36377 1.65743 8.36377C1.66803 8.36377 1.67865 8.36377 1.68931 8.36377C1.69996 8.36377 1.71064 8.36377 1.72135 8.36377C1.73206 8.36377 1.7428 8.36377 1.75356 8.36377C1.76433 8.36377 1.77512 8.36377 1.78594 8.36377C1.79676 8.36377 1.80761 8.36377 1.81848 8.36377C1.82936 8.36377 1.84026 8.36377 1.85119 8.36377C1.86212 8.36377 1.87308 8.36377 1.88406 8.36377C1.89505 8.36377 1.90606 8.36377 1.9171 8.36377C1.92814 8.36377 1.93921 8.36377 1.9503 8.36377C1.96139 8.36377 1.97251 8.36377 1.98366 8.36377C1.99481 8.36377 2.00598 8.36377 2.01718 8.36377C2.02838 8.36377 2.03961 8.36377 2.05087 8.36377C2.06212 8.36377 2.0734 8.36377 2.08471 8.36377C2.09602 8.36377 2.10735 8.36377 2.11871 8.36377C2.13008 8.36377 2.14146 8.36377 2.15288 8.36377C2.16429 8.36377 2.17573 8.36377 2.1872 8.36377C2.19866 8.36377 2.21016 8.36377 2.22167 8.36377C2.23319 8.36377 2.24474 8.36377 2.25631 8.36377C2.26788 8.36377 2.27947 8.36377 2.2911 8.36377C2.30272 8.36377 2.31437 8.36377 2.32604 8.36377C2.33771 8.36377 2.34941 8.36377 2.36114 8.36377C2.37286 8.36377 2.38462 8.36377 2.39639 8.36377C2.40817 8.36377 2.41997 8.36377 2.4318 8.36377C2.44362 8.36377 2.45548 8.36377 2.46735 8.36377C2.47923 8.36377 2.49113 8.36377 2.50306 8.36377C2.51499 8.36377 2.52694 8.36377 2.53892 8.36377C2.5509 8.36377 2.5629 8.36377 2.57493 8.36377C2.58696 8.36377 2.59901 8.36377 2.61109 8.36377C2.62317 8.36377 2.63527 8.36377 2.6474 8.36377C2.65952 8.36377 2.67167 8.36377 2.68385 8.36377C2.69603 8.36377 2.70823 8.36377 2.72045 8.36377C2.73268 8.36377 2.74493 8.36377 2.7572 8.36377C2.76947 8.36377 2.78177 8.36377 2.79409 8.36377C2.80642 8.36377 2.81876 8.36377 2.83113 8.36377C2.8435 8.36377 2.8559 8.36377 2.86832 8.36377C2.88073 8.36377 2.89318 8.36377 2.90564 8.36377C2.91811 8.36377 2.9306 8.36377 2.94311 8.36377C2.95562 8.36377 2.96816 8.36377 2.98072 8.36377C2.99328 8.36377 3.00587 8.36377 3.01847 8.36377C3.03108 8.36377 3.04371 8.36377 3.05637 8.36377C3.06902 8.36377 3.0817 8.36377 3.0944 8.36377C3.1071 8.36377 3.11982 8.36377 3.13257 8.36377C3.14532 8.36377 3.15809 8.36377 3.17088 8.36377C3.18367 8.36377 3.19649 8.36377 3.20933 8.36377C3.22217 8.36377 3.23503 8.36377 3.24791 8.36377C3.2608 8.36377 3.2737 8.36377 3.28663 8.36377C3.29956 8.36377 3.31252 8.36377 3.32549 8.36377C3.33847 8.36377 3.35146 8.36377 3.36448 8.36377C3.3775 8.36377 3.39054 8.36377 3.40361 8.36377C3.41667 8.36377 3.42976 8.36377 3.44287 8.36377C3.45597 8.36377 3.4691 8.36377 3.48226 8.36377C3.49541 8.36377 3.50858 8.36377 3.52178 8.36377C3.53498 8.36377 3.54819 8.36377 3.56143 8.36377C3.57467 8.36377 3.58794 8.36377 3.60122 8.36377C3.6145 8.36377 3.62781 8.36377 3.64113 8.36377C3.65446 8.36377 3.66781 8.36377 3.68118 8.36377C3.69455 8.36377 3.70794 8.36377 3.72135 8.36377C3.73476 8.36377 3.74819 8.36377 3.76165 8.36377C3.7751 8.36377 3.78858 8.36377 3.80207 8.36377C3.81557 8.36377 3.82909 8.36377 3.84263 8.36377C3.85616 8.36377 3.86972 8.36377 3.8833 8.36377C3.89688 8.36377 3.91048 8.36377 3.92411 8.36377C3.93773 8.36377 3.95137 8.36377 3.96503 8.36377C3.97869 8.36377 3.99238 8.36377 4.00608 8.36377C4.01978 8.36377 4.03351 8.36377 4.04725 8.36377C4.061 8.36377 4.07476 8.36377 4.08855 8.36377C4.10233 8.36377 4.11614 8.36377 4.12996 8.36377C4.14379 8.36377 4.15763 8.36377 4.1715 8.36377C4.18536 8.36377 4.19925 8.36377 4.21315 8.36377C4.22706 8.36377 4.24098 8.36377 4.25492 8.36377C4.26887 8.36377 4.28283 8.36377 4.29681 8.36377C4.3108 8.36377 4.3248 8.36377 4.33882 8.36377C4.35285 8.36377 4.36689 8.36377 4.38095 8.36377C4.39501 8.36377 4.40909 8.36377 4.42319 8.36377C4.43729 8.36377 4.45141 8.36377 4.46555 8.36377C4.47969 8.36377 4.49384 8.36377 4.50802 8.36377C4.5222 8.36377 4.53639 8.36377 4.5506 8.36377C4.56482 8.36377 4.57905 8.36377 4.5933 8.36377C4.60755 8.36377 4.62182 8.36377 4.63611 8.36377C4.6504 8.36377 4.66471 8.36377 4.67904 8.36377C4.69336 8.36377 4.70771 8.36377 4.72207 8.36377C4.73643 8.36377 4.75081 8.36377 4.76521 8.36377C4.77961 8.36377 4.79403 8.36377 4.80847 8.36377C4.8229 8.36377 4.83735 8.36377 4.85183 8.36377C4.8663 8.36377 4.88079 8.36377 4.8953 8.36377C4.9098 8.36377 4.92433 8.36377 4.93887 8.36377C4.95342 8.36377 4.96798 8.36377 4.98256 8.36377C4.99714 8.36377 5.01173 8.36377 5.02635 8.36377C5.04096 8.36377 5.05559 8.36377 5.07024 8.36377C5.08489 8.36377 5.09956 8.36377 5.11424 8.36377C5.12892 8.36377 5.14362 8.36377 5.15834 8.36377C5.17306 8.36377 5.18779 8.36377 5.20255 8.36377C5.2173 8.36377 5.23207 8.36377 5.24685 8.36377C5.26164 8.36377 5.27644 8.36377 5.29126 8.36377C5.30608 8.36377 5.32092 8.36377 5.33577 8.36377C5.35063 8.36377 5.3655 8.36377 5.38038 8.36377C5.39527 8.36377 5.41017 8.36377 5.42509 8.36377C5.44001 8.36377 5.45495 8.36377 5.4699 8.36377C5.48485 8.36377 5.49982 8.36377 5.51481 8.36377C5.52979 8.36377 5.54479 8.36377 5.55981 8.36377C5.57483 8.36377 5.58986 8.36377 5.60491 8.36377C5.61996 8.36377 5.63503 8.36377 5.65011 8.36377C5.66519 8.36377 5.68028 8.36377 5.6954 8.36377C5.71051 8.36377 5.72564 8.36377 5.74078 8.36377C5.75592 8.36377 5.77108 8.36377 5.78626 8.36377C5.80143 8.36377 5.81662 8.36377 5.83183 8.36377C5.84704 8.36377 5.86226 8.36377 5.87749 8.36377C5.89273 8.36377 5.90798 8.36377 5.92325 8.36377C5.93851 8.36377 5.9538 8.36377 5.96909 8.36377C5.98439 8.36377 5.9997 8.36377 6.01503 8.36377C6.03035 8.36377 6.0457 8.36377 6.06105 8.36377C6.07641 8.36377 6.09178 8.36377 6.10717 8.36377C6.12255 8.36377 6.13795 8.36377 6.15337 8.36377C6.16878 8.36377 6.18421 8.36377 6.19965 8.36377C6.2151 8.36377 6.23056 8.36377 6.24603 8.36377C6.2615 8.36377 6.27699 8.36377 6.29249 8.36377C6.30799 8.36377 6.3235 8.36377 6.33903 8.36377C6.35456 8.36377 6.3701 8.36377 6.38566 8.36377C6.40122 8.36377 6.41679 8.36377 6.43237 8.36377C6.44796 8.36377 6.46356 8.36377 6.47917 8.36377C6.49478 8.36377 6.51041 8.36377 6.52605 8.36377C6.54168 8.36377 6.55734 8.36377 6.573 8.36377C6.58867 8.36377 6.60435 8.36377 6.62004 8.36377C6.63574 8.36377 6.65144 8.36377 6.66716 8.36377C6.68288 8.36377 6.69861 8.36377 6.71436 8.36377C6.7301 8.36377 6.74586 8.36377 6.76163 8.36377C6.77741 8.36377 6.79319 8.36377 6.80899 8.36377C6.82479 8.36377 6.8406 8.36377 6.85642 8.36377C6.87224 8.36377 6.88808 8.36377 6.90393 8.36377C6.91977 8.36377 6.93563 8.36377 6.95151 8.36377C6.96738 8.36377 6.98327 8.36377 6.99917 8.36377C7.01506 8.36377 7.03097 8.36377 7.0469 8.36377C7.06282 8.36377 7.07875 8.36377 7.0947 8.36377C7.11065 8.36377 7.12661 8.36377 7.14258 8.36377C7.15855 8.36377 7.17453 8.36377 7.19053 8.36377C7.20652 8.36377 7.22253 8.36377 7.23855 8.36377C7.25457 8.36377 7.2706 8.36377 7.28664 8.36377C7.30268 8.36377 7.31873 8.36377 7.3348 8.36377C7.35086 8.36377 7.36694 8.36377 7.38303 8.36377C7.39911 8.36377 7.41521 8.36377 7.43132 8.36377C7.44743 8.36377 7.46356 8.36377 7.47969 8.36377C7.49582 8.36377 7.51197 8.36377 7.52812 8.36377C7.54428 8.36377 7.56044 8.36377 7.57662 8.36377C7.5928 8.36377 7.60898 8.36377 7.62518 8.36377C7.64138 8.36377 7.65759 8.36377 7.67381 8.36377C7.69003 8.36377 7.70626 8.36377 7.7225 8.36377C7.73874 8.36377 7.75499 8.36377 7.77126 8.36377C7.78752 8.36377 7.80379 8.36377 7.82007 8.36377C7.83636 8.36377 7.85265 8.36377 7.86895 8.36377C7.88526 8.36377 7.90157 8.36377 7.91789 8.36377C7.93422 8.36377 7.95055 8.36377 7.96689 8.36377C7.98324 8.36377 7.99959 8.36377 8.01595 8.36377C8.03232 8.36377 8.04869 8.36377 8.06507 8.36377C8.08146 8.36377 8.09785 8.36377 8.11425 8.36377C8.13065 8.36377 8.14706 8.36377 8.16349 8.36377C8.17991 8.36377 8.19634 8.36377 8.21278 8.36377C8.22922 8.36377 8.24567 8.36377 8.26212 8.36377C8.27858 8.36377 8.29505 8.36377 8.31153 8.36377C8.328 8.36377 8.34449 8.36377 8.36098 8.36377C8.37748 8.36377 8.39398 8.36377 8.41049 8.36377C8.42701 8.36377 8.44353 8.36377 8.46006 8.36377C8.47659 8.36377 8.49313 8.36377 8.50967 8.36377C8.52622 8.36377 8.54278 8.36377 8.55934 8.36377C8.57591 8.36377 8.59248 8.36377 8.60906 8.36377C8.62564 8.36377 8.64223 8.36377 8.65883 8.36377C8.67543 8.36377 8.69203 8.36377 8.70865 8.36377C8.72526 8.36377 8.74189 8.36377 8.75852 8.36377C8.77515 8.36377 8.79178 8.36377 8.80843 8.36377C8.82508 8.36377 8.84173 8.36377 8.85839 8.36377C8.87506 8.36377 8.89172 8.36377 8.9084 8.36377C8.92508 8.36377 8.94176 8.36377 8.95846 8.36377C8.97515 8.36377 8.99185 8.36377 9.00856 8.36377C9.02526 8.36377 9.04198 8.36377 9.0587 8.36377C9.07542 8.36377 9.09215 8.36377 9.10889 8.36377C9.12563 8.36377 9.14237 8.36377 9.15912 8.36377C9.17587 8.36377 9.19263 8.36377 9.20939 8.36377C9.22616 8.36377 9.24293 8.36377 9.25971 8.36377C9.27649 8.36377 9.29327 8.36377 9.31006 8.36377C9.32686 8.36377 9.34365 8.36377 9.36046 8.36377C9.37726 8.36377 9.39408 8.36377 9.41089 8.36377C9.42771 8.36377 9.44454 8.36377 9.46137 8.36377C9.4782 8.36377 9.49504 8.36377 9.51188 8.36377C9.52872 8.36377 9.54557 8.36377 9.56243 8.36377C9.57928 8.36377 9.59615 8.36377 9.61301 8.36377C9.62988 8.36377 9.64675 8.36377 9.66363 8.36377C9.68051 8.36377 9.6974 8.36377 9.71429 8.36377C9.73118 8.36377 9.74808 8.36377 9.76498 8.36377C9.78188 8.36377 9.79879 8.36377 9.8157 8.36377C9.83262 8.36377 9.84954 8.36377 9.86646 8.36377C9.88338 8.36377 9.90031 8.36377 9.91725 8.36377C9.93418 8.36377 9.95112 8.36377 9.96807 8.36377C9.98501 8.36377 10.002 8.36377 10.0189 8.36377C10.0359 8.36377 10.0528 8.36377 10.0698 8.36377C10.0868 8.36377 10.1037 8.36377 10.1207 8.36377C10.1377 8.36377 10.1547 8.36377 10.1716 8.36377C10.1886 8.36377 10.2056 8.36377 10.2226 8.36377C10.2396 8.36377 10.2566 8.36377 10.2736 8.36377C10.2906 8.36377 10.3076 8.36377 10.3246 8.36377C10.3416 8.36377 10.3587 8.36377 10.3757 8.36377C10.3927 8.36377 10.4097 8.36377 10.4267 8.36377C10.4438 8.36377 10.4608 8.36377 10.4778 8.36377C10.4949 8.36377 10.5119 8.36377 10.529 8.36377C10.546 8.36377 10.563 8.36377 10.5801 8.36377C10.5971 8.36377 10.6142 8.36377 10.6313 8.36377C10.6483 8.36377 10.6654 8.36377 10.6824 8.36377C10.6995 8.36377 10.7166 8.36377 10.7336 8.36377C10.7507 8.36377 10.7678 8.36377 10.7849 8.36377C10.8019 8.36377 10.819 8.36377 10.8361 8.36377C10.8532 8.36377 10.8703 8.36377 10.8874 8.36377C10.9045 8.36377 10.9216 8.36377 10.9386 8.36377C10.9557 8.36377 10.9728 8.36377 10.9899 8.36377C11.007 8.36377 11.0242 8.36377 11.0413 8.36377C11.0584 8.36377 11.0755 8.36377 11.0926 8.36377C11.1097 8.36377 11.1268 8.36377 11.1439 8.36377C11.161 8.36377 11.1782 8.36377 11.1953 8.36377C11.2124 8.36377 11.2295 8.36377 11.2467 8.36377C11.2638 8.36377 11.2809 8.36377 11.298 8.36377C11.3152 8.36377 11.3323 8.36377 11.3494 8.36377C11.3666 8.36377 11.3837 8.36377 11.4008 8.36377C11.418 8.36377 11.4351 8.36377 11.4523 8.36377C11.4694 8.36377 11.4865 8.36377 11.5037 8.36377C11.5208 8.36377 11.538 8.36377 11.5551 8.36377C11.5723 8.36377 11.5894 8.36377 11.6066 8.36377C11.6237 8.36377 11.6409 8.36377 11.658 8.36377C11.6752 8.36377 11.6923 8.36377 11.7095 8.36377C11.7266 8.36377 11.7438 8.36377 11.7609 8.36377C11.7781 8.36377 11.7952 8.36377 11.8124 8.36377C11.8295 8.36377 11.8467 8.36377 11.8639 8.36377C11.881 8.36377 11.8982 8.36377 11.9153 8.36377C11.9325 8.36377 11.9497 8.36377 11.9668 8.36377C11.984 8.36377 12.0011 8.36377 12.0183 8.36377C12.0355 8.36377 12.0526 8.36377 12.0698 8.36377C12.0869 8.36377 12.1041 8.36377 12.1213 8.36377C12.1384 8.36377 12.1556 8.36377 12.1728 8.36377C12.1899 8.36377 12.2071 8.36377 12.2242 8.36377C12.2414 8.36377 12.2586 8.36377 12.2757 8.36377C12.2929 8.36377 12.3101 8.36377 12.3272 8.36377C12.3444 8.36377 12.3615 8.36377 12.3787 8.36377C12.3958 8.36377 12.413 8.36377 12.4302 8.36377C12.4473 8.36377 12.4645 8.36377 12.4816 8.36377C12.4988 8.36377 12.516 8.36377 12.5331 8.36377C12.5503 8.36377 12.5674 8.36377 12.5846 8.36377C12.6017 8.36377 12.6189 8.36377 12.636 8.36377C12.6532 8.36377 12.6703 8.36377 12.6875 8.36377C12.7046 8.36377 12.7218 8.36377 12.7389 8.36377C12.7561 8.36377 12.7732 8.36377 12.7903 8.36377C12.8075 8.36377 12.8246 8.36377 12.8418 8.36377C12.8589 8.36377 12.876 8.36377 12.8932 8.36377C12.9103 8.36377 12.9275 8.36377 12.9446 8.36377C12.9617 8.36377 12.9789 8.36377 12.996 8.36377C13.0131 8.36377 13.0302 8.36377 13.0474 8.36377C13.0645 8.36377 13.0816 8.36377 13.0987 8.36377C13.1158 8.36377 13.133 8.36377 13.1501 8.36377C13.1672 8.36377 13.1843 8.36377 13.2014 8.36377C13.2185 8.36377 13.2356 8.36377 13.2527 8.36377C13.2699 8.36377 13.287 8.36377 13.3041 8.36377C13.3212 8.36377 13.3383 8.36377 13.3553 8.36377C13.3724 8.36377 13.3895 8.36377 13.4066 8.36377C13.4237 8.36377 13.4408 8.36377 13.4579 8.36377C13.475 8.36377 13.492 8.36377 13.5091 8.36377C13.5262 8.36377 13.5433 8.36377 13.5603 8.36377C13.5774 8.36377 13.5945 8.36377 13.6115 8.36377C13.6286 8.36377 13.6457 8.36377 13.6627 8.36377C13.6798 8.36377 13.6968 8.36377 13.7139 8.36377C13.7309 8.36377 13.748 8.36377 13.765 8.36377C13.7821 8.36377 13.7991 8.36377 13.8161 8.36377C13.8332 8.36377 13.8502 8.36377 13.8672 8.36377C13.8842 8.36377 13.9013 8.36377 13.9183 8.36377C13.9353 8.36377 13.9523 8.36377 13.9693 8.36377C13.9863 8.36377 14.0033 8.36377 14.0203 8.36377C14.0373 8.36377 14.0543 8.36377 14.0713 8.36377C14.0883 8.36377 14.1053 8.36377 14.1223 8.36377C14.1393 8.36377 14.1562 8.36377 14.1732 8.36377C14.1902 8.36377 14.2072 8.36377 14.2241 8.36377C14.2411 8.36377 14.258 8.36377 14.275 8.36377C14.292 8.36377 14.3089 8.36377 14.3258 8.36377C14.3428 8.36377 14.3597 8.36377 14.3767 8.36377C14.3936 8.36377 14.4105 8.36377 14.4274 8.36377C14.4444 8.36377 14.4613 8.36377 14.4782 8.36377C14.4951 8.36377 14.512 8.36377 14.5289 8.36377C14.5458 8.36377 14.5627 8.36377 14.5796 8.36377C14.5965 8.36377 14.6134 8.36377 14.6302 8.36377C14.6471 8.36377 14.664 8.36377 14.6809 8.36377C14.6977 8.36377 14.7146 8.36377 14.7314 8.36377C14.7483 8.36377 14.7651 8.36377 14.782 8.36377C14.7988 8.36377 14.8157 8.36377 14.8325 8.36377C14.8493 8.36377 14.8661 8.36377 14.883 8.36377C14.8998 8.36377 14.9166 8.36377 14.9334 8.36377C14.9502 8.36377 14.967 8.36377 14.9838 8.36377C15.0006 8.36377 15.0173 8.36377 15.0341 8.36377C15.0509 8.36377 15.0677 8.36377 15.0844 8.36377C15.1012 8.36377 15.1179 8.36377 15.1347 8.36377C15.1514 8.36377 15.1682 8.36377 15.1849 8.36377C15.2017 8.36377 15.2184 8.36377 15.2351 8.36377C15.2518 8.36377 15.2685 8.36377 15.2852 8.36377C15.3019 8.36377 15.3186 8.36377 15.3353 8.36377C15.352 8.36377 15.3687 8.36377 15.3854 8.36377C15.402 8.36377 15.4187 8.36377 15.4354 8.36377C15.452 8.36377 15.4687 8.36377 15.4853 8.36377C15.502 8.36377 15.5186 8.36377 15.5352 8.36377C15.5519 8.36377 15.5685 8.36377 15.5851 8.36377C15.6017 8.36377 15.6183 8.36377 15.6349 8.36377C15.6515 8.36377 15.6681 8.36377 15.6847 8.36377C15.7012 8.36377 15.7178 8.36377 15.7344 8.36377C15.7509 8.36377 15.7675 8.36377 15.784 8.36377C15.8006 8.36377 15.8171 8.36377 15.8336 8.36377C15.8502 8.36377 15.8667 8.36377 15.8832 8.36377C15.8997 8.36377 15.9162 8.36377 15.9327 8.36377C15.9492 8.36377 15.9657 8.36377 15.9821 8.36377C15.9986 8.36377 16.0151 8.36377 16.0315 8.36377C16.048 8.36377 16.0644 8.36377 16.0809 8.36377C16.0973 8.36377 16.1137 8.36377 16.1302 8.36377C16.1466 8.36377 16.163 8.36377 16.1794 8.36377C16.1958 8.36377 16.2122 8.36377 16.2285 8.36377C16.2449 8.36377 16.2613 8.36377 16.2777 8.36377C16.294 8.36377 16.3104 8.36377 16.3267 8.36377C16.343 8.36377 16.3594 8.36377 16.3757 8.36377C16.392 8.36377 16.4083 8.36377 16.4246 8.36377C16.4409 8.36377 16.4572 8.36377 16.4735 8.36377C16.4898 8.36377 16.506 8.36377 16.5223 8.36377C16.5386 8.36377 16.5548 8.36377 16.571 8.36377C16.5873 8.36377 16.6035 8.36377 16.6197 8.36377C16.6359 8.36377 16.6521 8.36377 16.6683 8.36377C16.6845 8.36377 16.7007 8.36377 16.7169 8.36377C16.7331 8.36377 16.7492 8.36377 16.7654 8.36377C16.7815 8.36377 16.7977 8.36377 16.8138 8.36377C16.8299 8.36377 16.846 8.36377 16.8622 8.36377C16.8783 8.36377 16.8944 8.36377 16.9104 8.36377C16.9265 8.36377 16.9426 8.36377 16.9587 8.36377C16.9747 8.36377 16.9908 8.36377 17.0068 8.36377C17.0228 8.36377 17.0389 8.36377 17.0549 8.36377C17.0709 8.36377 17.0869 8.36377 17.1029 8.36377C17.1189 8.36377 17.1349 8.36377 17.1508 8.36377C17.1668 8.36377 17.1827 8.36377 17.1987 8.36377C17.2146 8.36377 17.2306 8.36377 17.2465 8.36377C17.2624 8.36377 17.2783 8.36377 17.2942 8.36377C17.3101 8.36377 17.326 8.36377 17.3418 8.36377C17.3577 8.36377 17.3736 8.36377 17.3894 8.36377C17.4053 8.36377 17.4211 8.36377 17.4369 8.36377C17.4527 8.36377 17.4685 8.36377 17.4843 8.36377C17.5001 8.36377 17.5159 8.36377 17.5317 8.36377C17.5474 8.36377 17.5632 8.36377 17.5789 8.36377C17.5947 8.36377 17.6104 8.36377 17.6261 8.36377C17.6418 8.36377 17.6575 8.36377 17.6732 8.36377C17.6889 8.36377 17.7046 8.36377 17.7202 8.36377C17.7359 8.36377 17.7515 8.36377 17.7672 8.36377C17.7828 8.36377 17.7984 8.36377 17.814 8.36377C17.8296 8.36377 17.8452 8.36377 17.8608 8.36377C17.8764 8.36377 17.892 8.36377 17.9075 8.36377C17.9231 8.36377 17.9386 8.36377 17.9541 8.36377C17.9697 8.36377 17.9852 8.36377 18.0007 8.36377C18.0162 8.36377 18.0316 8.36377 18.0471 8.36377C18.0626 8.36377 18.078 8.36377 18.0935 8.36377C18.1089 8.36377 18.1243 8.36377 18.1397 8.36377C18.1551 8.36377 18.1705 8.36377 18.1859 8.36377C18.2013 8.36377 18.2167 8.36377 18.232 8.36377C18.2474 8.36377 18.2627 8.36377 18.278 8.36377C18.2934 8.36377 18.3087 8.36377 18.3239 8.36377C18.3392 8.36377 18.3545 8.36377 18.3698 8.36377C18.385 8.36377 18.4003 8.36377 18.4155 8.36377C18.4307 8.36377 18.446 8.36377 18.4612 8.36377C18.4764 8.36377 18.4915 8.36377 18.5067 8.36377C18.5219 8.36377 18.537 8.36377 18.5522 8.36377C18.5673 8.36377 18.5824 8.36377 18.5975 8.36377C18.6127 8.36377 18.6277 8.36377 18.6428 8.36377C18.6579 8.36377 18.673 8.36377 18.688 8.36377C18.703 8.36377 18.7181 8.36377 18.7331 8.36377C18.7481 8.36377 18.7631 8.36377 18.7781 8.36377C18.793 8.36377 18.808 8.36377 18.823 8.36377C18.8379 8.36377 18.8528 8.36377 18.8677 8.36377C18.8827 8.36377 18.8976 8.36377 18.9124 8.36377C18.9273 8.36377 18.9422 8.36377 18.957 8.36377C18.9719 8.36377 18.9867 8.36377 19.0015 8.36377C19.0163 8.36377 19.0311 8.36377 19.0459 8.36377C19.0607 8.36377 19.0755 8.36377 19.0902 8.36377C19.105 8.36377 19.1197 8.36377 19.1344 8.36377C19.1491 8.36377 19.1638 8.36377 19.1785 8.36377C19.1932 8.36377 19.2078 8.36377 19.2225 8.36377C19.2371 8.36377 19.2517 8.36377 19.2663 8.36377C19.2809 8.36377 19.2955 8.36377 19.3101 8.36377C19.3247 8.36377 19.3392 8.36377 19.3538 8.36377C19.3683 8.36377 19.3828 8.36377 19.3973 8.36377C19.4118 8.36377 19.4263 8.36377 19.4408 8.36377C19.4552 8.36377 19.4697 8.36377 19.4841 8.36377C19.4986 8.36377 19.513 8.36377 19.5274 8.36377C19.5417 8.36377 19.5561 8.36377 19.5705 8.36377C19.5848 8.36377 19.5992 8.36377 19.6135 8.36377C19.6278 8.36377 19.6421 8.36377 19.6564 8.36377C19.6707 8.36377 19.6849 8.36377 19.6992 8.36377C19.7134 8.36377 19.7277 8.36377 19.7419 8.36377C19.7561 8.36377 19.7703 8.36377 19.7844 8.36377C19.7986 8.36377 19.8127 8.36377 19.8269 8.36377C19.841 8.36377 19.8551 8.36377 19.8692 8.36377C19.8833 8.36377 19.8974 8.36377 19.9114 8.36377C19.9255 8.36377 19.9395 8.36377 19.9535 8.36377C19.9676 8.36377 19.9816 8.36377 19.9955 8.36377C20.0095 8.36377 20.0235 8.36377 20.0374 8.36377C20.0513 8.36377 20.0653 8.36377 20.0792 8.36377C20.0931 8.36377 20.1069 8.36377 20.1208 8.36377C20.1346 8.36377 20.1485 8.36377 20.1623 8.36377C20.1761 8.36377 20.1899 8.36377 20.2037 8.36377C20.2175 8.36377 20.2312 8.36377 20.245 8.36377C20.2587 8.36377 20.2724 8.36377 20.2861 8.36377C20.2998 8.36377 20.3135 8.36377 20.3271 8.36377C20.3408 8.36377 20.3544 8.36377 20.368 8.36377C20.3817 8.36377 20.3953 8.36377 20.4088 8.36377C20.4224 8.36377 20.436 8.36377 20.4495 8.36377C20.463 8.36377 20.4765 8.36377 20.49 8.36377C20.5035 8.36377 20.517 8.36377 20.5304 8.36377C20.5439 8.36377 20.5573 8.36377 20.5707 8.36377C20.5841 8.36377 20.5975 8.36377 20.6108 8.36377C20.6242 8.36377 20.6375 8.36377 20.6509 8.36377C20.6642 8.36377 20.6775 8.36377 20.6908 8.36377C20.704 8.36377 20.7173 8.36377 20.7305 8.36377C20.7438 8.36377 20.757 8.36377 20.7701 8.36377C20.7833 8.36377 20.7965 8.36377 20.8097 8.36377C20.8228 8.36377 20.8359 8.36377 20.849 8.36377C20.8621 8.36377 20.8752 8.36377 20.8883 8.36377C20.9013 8.36377 20.9143 8.36377 20.9274 8.36377C20.9404 8.36377 20.9534 8.36377 20.9663 8.36377C20.9793 8.36377 20.9922 8.36377 21.0052 8.36377C21.0181 8.36377 21.031 8.36377 21.0439 8.36377C21.0567 8.36377 21.0696 8.36377 21.0824 8.36377C21.0952 8.36377 21.1081 8.36377 21.1208 8.36377C21.1336 8.36377 21.1464 8.36377 21.1591 8.36377C21.1719 8.36377 21.1846 8.36377 21.1973 8.36377C21.21 8.36377 21.2226 8.36377 21.2353 8.36377C21.2479 8.36377 21.2605 8.36377 21.2731 8.36377C21.2857 8.36377 21.2983 8.36377 21.3109 8.36377C21.3234 8.36377 21.336 8.36377 21.3485 8.36377C21.361 8.36377 21.3734 8.36377 21.3859 8.36377C21.3984 8.36377 21.4108 8.36377 21.4232 8.36377C21.4356 8.36377 21.448 8.36377 21.4604 8.36377C21.4727 8.36377 21.4851 8.36377 21.4974 8.36377C21.5097 8.36377 21.522 8.36377 21.5342 8.36377C21.5465 8.36377 21.5587 8.36377 21.571 8.36377C21.5832 8.36377 21.5954 8.36377 21.6075 8.36377C21.6197 8.36377 21.6318 8.36377 21.644 8.36377C21.6561 8.36377 21.6682 8.36377 21.6802 8.36377C21.6923 8.36377 21.7044 8.36377 21.7164 8.36377C21.7284 8.36377 21.7404 8.36377 21.7524 8.36377C21.7643 8.36377 21.7763 8.36377 21.7882 8.36377C21.8001 8.36377 21.812 8.36377 21.8239 8.36377C21.8357 8.36377 21.8476 8.36377 21.8594 8.36377C21.8712 8.36377 21.883 8.36377 21.8948 8.36377C21.9066 8.36377 21.9183 8.36377 21.93 8.36377C21.9417 8.36377 21.9534 8.36377 21.9651 8.36377C21.9767 8.36377 21.9884 8.36377 22 8.36377V6.36377C21.9884 6.36377 21.9767 6.36377 21.9651 6.36377C21.9534 6.36377 21.9417 6.36377 21.93 6.36377C21.9183 6.36377 21.9066 6.36377 21.8948 6.36377C21.883 6.36377 21.8712 6.36377 21.8594 6.36377C21.8476 6.36377 21.8357 6.36377 21.8239 6.36377C21.812 6.36377 21.8001 6.36377 21.7882 6.36377C21.7763 6.36377 21.7643 6.36377 21.7524 6.36377C21.7404 6.36377 21.7284 6.36377 21.7164 6.36377C21.7044 6.36377 21.6923 6.36377 21.6802 6.36377C21.6682 6.36377 21.6561 6.36377 21.644 6.36377C21.6318 6.36377 21.6197 6.36377 21.6075 6.36377C21.5954 6.36377 21.5832 6.36377 21.571 6.36377C21.5587 6.36377 21.5465 6.36377 21.5342 6.36377C21.522 6.36377 21.5097 6.36377 21.4974 6.36377C21.4851 6.36377 21.4727 6.36377 21.4604 6.36377C21.448 6.36377 21.4356 6.36377 21.4232 6.36377C21.4108 6.36377 21.3984 6.36377 21.3859 6.36377C21.3734 6.36377 21.361 6.36377 21.3485 6.36377C21.336 6.36377 21.3234 6.36377 21.3109 6.36377C21.2983 6.36377 21.2857 6.36377 21.2731 6.36377C21.2605 6.36377 21.2479 6.36377 21.2353 6.36377C21.2226 6.36377 21.21 6.36377 21.1973 6.36377C21.1846 6.36377 21.1719 6.36377 21.1591 6.36377C21.1464 6.36377 21.1336 6.36377 21.1208 6.36377C21.1081 6.36377 21.0952 6.36377 21.0824 6.36377C21.0696 6.36377 21.0567 6.36377 21.0439 6.36377C21.031 6.36377 21.0181 6.36377 21.0052 6.36377C20.9922 6.36377 20.9793 6.36377 20.9663 6.36377C20.9534 6.36377 20.9404 6.36377 20.9274 6.36377C20.9143 6.36377 20.9013 6.36377 20.8883 6.36377C20.8752 6.36377 20.8621 6.36377 20.849 6.36377C20.8359 6.36377 20.8228 6.36377 20.8097 6.36377C20.7965 6.36377 20.7833 6.36377 20.7701 6.36377C20.757 6.36377 20.7438 6.36377 20.7305 6.36377C20.7173 6.36377 20.704 6.36377 20.6908 6.36377C20.6775 6.36377 20.6642 6.36377 20.6509 6.36377C20.6375 6.36377 20.6242 6.36377 20.6108 6.36377C20.5975 6.36377 20.5841 6.36377 20.5707 6.36377C20.5573 6.36377 20.5439 6.36377 20.5304 6.36377C20.517 6.36377 20.5035 6.36377 20.49 6.36377C20.4765 6.36377 20.463 6.36377 20.4495 6.36377C20.436 6.36377 20.4224 6.36377 20.4088 6.36377C20.3953 6.36377 20.3817 6.36377 20.368 6.36377C20.3544 6.36377 20.3408 6.36377 20.3271 6.36377C20.3135 6.36377 20.2998 6.36377 20.2861 6.36377C20.2724 6.36377 20.2587 6.36377 20.245 6.36377C20.2312 6.36377 20.2175 6.36377 20.2037 6.36377C20.1899 6.36377 20.1761 6.36377 20.1623 6.36377C20.1485 6.36377 20.1346 6.36377 20.1208 6.36377C20.1069 6.36377 20.0931 6.36377 20.0792 6.36377C20.0653 6.36377 20.0513 6.36377 20.0374 6.36377C20.0235 6.36377 20.0095 6.36377 19.9955 6.36377C19.9816 6.36377 19.9676 6.36377 19.9535 6.36377C19.9395 6.36377 19.9255 6.36377 19.9114 6.36377C19.8974 6.36377 19.8833 6.36377 19.8692 6.36377C19.8551 6.36377 19.841 6.36377 19.8269 6.36377C19.8127 6.36377 19.7986 6.36377 19.7844 6.36377C19.7703 6.36377 19.7561 6.36377 19.7419 6.36377C19.7277 6.36377 19.7134 6.36377 19.6992 6.36377C19.6849 6.36377 19.6707 6.36377 19.6564 6.36377C19.6421 6.36377 19.6278 6.36377 19.6135 6.36377C19.5992 6.36377 19.5848 6.36377 19.5705 6.36377C19.5561 6.36377 19.5417 6.36377 19.5274 6.36377C19.513 6.36377 19.4986 6.36377 19.4841 6.36377C19.4697 6.36377 19.4552 6.36377 19.4408 6.36377C19.4263 6.36377 19.4118 6.36377 19.3973 6.36377C19.3828 6.36377 19.3683 6.36377 19.3538 6.36377C19.3392 6.36377 19.3247 6.36377 19.3101 6.36377C19.2955 6.36377 19.2809 6.36377 19.2663 6.36377C19.2517 6.36377 19.2371 6.36377 19.2225 6.36377C19.2078 6.36377 19.1932 6.36377 19.1785 6.36377C19.1638 6.36377 19.1491 6.36377 19.1344 6.36377C19.1197 6.36377 19.105 6.36377 19.0902 6.36377C19.0755 6.36377 19.0607 6.36377 19.0459 6.36377C19.0311 6.36377 19.0163 6.36377 19.0015 6.36377C18.9867 6.36377 18.9719 6.36377 18.957 6.36377C18.9422 6.36377 18.9273 6.36377 18.9124 6.36377C18.8976 6.36377 18.8827 6.36377 18.8677 6.36377C18.8528 6.36377 18.8379 6.36377 18.823 6.36377C18.808 6.36377 18.793 6.36377 18.7781 6.36377C18.7631 6.36377 18.7481 6.36377 18.7331 6.36377C18.7181 6.36377 18.703 6.36377 18.688 6.36377C18.673 6.36377 18.6579 6.36377 18.6428 6.36377C18.6277 6.36377 18.6127 6.36377 18.5975 6.36377C18.5824 6.36377 18.5673 6.36377 18.5522 6.36377C18.537 6.36377 18.5219 6.36377 18.5067 6.36377C18.4915 6.36377 18.4764 6.36377 18.4612 6.36377C18.446 6.36377 18.4307 6.36377 18.4155 6.36377C18.4003 6.36377 18.385 6.36377 18.3698 6.36377C18.3545 6.36377 18.3392 6.36377 18.3239 6.36377C18.3087 6.36377 18.2934 6.36377 18.278 6.36377C18.2627 6.36377 18.2474 6.36377 18.232 6.36377C18.2167 6.36377 18.2013 6.36377 18.1859 6.36377C18.1705 6.36377 18.1551 6.36377 18.1397 6.36377C18.1243 6.36377 18.1089 6.36377 18.0935 6.36377C18.078 6.36377 18.0626 6.36377 18.0471 6.36377C18.0316 6.36377 18.0162 6.36377 18.0007 6.36377C17.9852 6.36377 17.9697 6.36377 17.9541 6.36377C17.9386 6.36377 17.9231 6.36377 17.9075 6.36377C17.892 6.36377 17.8764 6.36377 17.8608 6.36377C17.8452 6.36377 17.8296 6.36377 17.814 6.36377C17.7984 6.36377 17.7828 6.36377 17.7672 6.36377C17.7515 6.36377 17.7359 6.36377 17.7202 6.36377C17.7046 6.36377 17.6889 6.36377 17.6732 6.36377C17.6575 6.36377 17.6418 6.36377 17.6261 6.36377C17.6104 6.36377 17.5947 6.36377 17.5789 6.36377C17.5632 6.36377 17.5474 6.36377 17.5317 6.36377C17.5159 6.36377 17.5001 6.36377 17.4843 6.36377C17.4685 6.36377 17.4527 6.36377 17.4369 6.36377C17.4211 6.36377 17.4053 6.36377 17.3894 6.36377C17.3736 6.36377 17.3577 6.36377 17.3418 6.36377C17.326 6.36377 17.3101 6.36377 17.2942 6.36377C17.2783 6.36377 17.2624 6.36377 17.2465 6.36377C17.2306 6.36377 17.2146 6.36377 17.1987 6.36377C17.1827 6.36377 17.1668 6.36377 17.1508 6.36377C17.1349 6.36377 17.1189 6.36377 17.1029 6.36377C17.0869 6.36377 17.0709 6.36377 17.0549 6.36377C17.0389 6.36377 17.0228 6.36377 17.0068 6.36377C16.9908 6.36377 16.9747 6.36377 16.9587 6.36377C16.9426 6.36377 16.9265 6.36377 16.9104 6.36377C16.8944 6.36377 16.8783 6.36377 16.8622 6.36377C16.846 6.36377 16.8299 6.36377 16.8138 6.36377C16.7977 6.36377 16.7815 6.36377 16.7654 6.36377C16.7492 6.36377 16.7331 6.36377 16.7169 6.36377C16.7007 6.36377 16.6845 6.36377 16.6683 6.36377C16.6521 6.36377 16.6359 6.36377 16.6197 6.36377C16.6035 6.36377 16.5873 6.36377 16.571 6.36377C16.5548 6.36377 16.5386 6.36377 16.5223 6.36377C16.506 6.36377 16.4898 6.36377 16.4735 6.36377C16.4572 6.36377 16.4409 6.36377 16.4246 6.36377C16.4083 6.36377 16.392 6.36377 16.3757 6.36377C16.3594 6.36377 16.343 6.36377 16.3267 6.36377C16.3104 6.36377 16.294 6.36377 16.2777 6.36377C16.2613 6.36377 16.2449 6.36377 16.2285 6.36377C16.2122 6.36377 16.1958 6.36377 16.1794 6.36377C16.163 6.36377 16.1466 6.36377 16.1302 6.36377C16.1137 6.36377 16.0973 6.36377 16.0809 6.36377C16.0644 6.36377 16.048 6.36377 16.0315 6.36377C16.0151 6.36377 15.9986 6.36377 15.9821 6.36377C15.9657 6.36377 15.9492 6.36377 15.9327 6.36377C15.9162 6.36377 15.8997 6.36377 15.8832 6.36377C15.8667 6.36377 15.8502 6.36377 15.8336 6.36377C15.8171 6.36377 15.8006 6.36377 15.784 6.36377C15.7675 6.36377 15.7509 6.36377 15.7344 6.36377C15.7178 6.36377 15.7012 6.36377 15.6847 6.36377C15.6681 6.36377 15.6515 6.36377 15.6349 6.36377C15.6183 6.36377 15.6017 6.36377 15.5851 6.36377C15.5685 6.36377 15.5519 6.36377 15.5352 6.36377C15.5186 6.36377 15.502 6.36377 15.4853 6.36377C15.4687 6.36377 15.452 6.36377 15.4354 6.36377C15.4187 6.36377 15.402 6.36377 15.3854 6.36377C15.3687 6.36377 15.352 6.36377 15.3353 6.36377C15.3186 6.36377 15.3019 6.36377 15.2852 6.36377C15.2685 6.36377 15.2518 6.36377 15.2351 6.36377C15.2184 6.36377 15.2017 6.36377 15.1849 6.36377C15.1682 6.36377 15.1514 6.36377 15.1347 6.36377C15.1179 6.36377 15.1012 6.36377 15.0844 6.36377C15.0677 6.36377 15.0509 6.36377 15.0341 6.36377C15.0173 6.36377 15.0006 6.36377 14.9838 6.36377C14.967 6.36377 14.9502 6.36377 14.9334 6.36377C14.9166 6.36377 14.8998 6.36377 14.883 6.36377C14.8661 6.36377 14.8493 6.36377 14.8325 6.36377C14.8157 6.36377 14.7988 6.36377 14.782 6.36377C14.7651 6.36377 14.7483 6.36377 14.7314 6.36377C14.7146 6.36377 14.6977 6.36377 14.6809 6.36377C14.664 6.36377 14.6471 6.36377 14.6302 6.36377C14.6134 6.36377 14.5965 6.36377 14.5796 6.36377C14.5627 6.36377 14.5458 6.36377 14.5289 6.36377C14.512 6.36377 14.4951 6.36377 14.4782 6.36377C14.4613 6.36377 14.4444 6.36377 14.4274 6.36377C14.4105 6.36377 14.3936 6.36377 14.3767 6.36377C14.3597 6.36377 14.3428 6.36377 14.3258 6.36377C14.3089 6.36377 14.292 6.36377 14.275 6.36377C14.258 6.36377 14.2411 6.36377 14.2241 6.36377C14.2072 6.36377 14.1902 6.36377 14.1732 6.36377C14.1562 6.36377 14.1393 6.36377 14.1223 6.36377C14.1053 6.36377 14.0883 6.36377 14.0713 6.36377C14.0543 6.36377 14.0373 6.36377 14.0203 6.36377C14.0033 6.36377 13.9863 6.36377 13.9693 6.36377C13.9523 6.36377 13.9353 6.36377 13.9183 6.36377C13.9013 6.36377 13.8842 6.36377 13.8672 6.36377C13.8502 6.36377 13.8332 6.36377 13.8161 6.36377C13.7991 6.36377 13.7821 6.36377 13.765 6.36377C13.748 6.36377 13.7309 6.36377 13.7139 6.36377C13.6968 6.36377 13.6798 6.36377 13.6627 6.36377C13.6457 6.36377 13.6286 6.36377 13.6115 6.36377C13.5945 6.36377 13.5774 6.36377 13.5603 6.36377C13.5433 6.36377 13.5262 6.36377 13.5091 6.36377C13.492 6.36377 13.475 6.36377 13.4579 6.36377C13.4408 6.36377 13.4237 6.36377 13.4066 6.36377C13.3895 6.36377 13.3724 6.36377 13.3553 6.36377C13.3383 6.36377 13.3212 6.36377 13.3041 6.36377C13.287 6.36377 13.2699 6.36377 13.2527 6.36377C13.2356 6.36377 13.2185 6.36377 13.2014 6.36377C13.1843 6.36377 13.1672 6.36377 13.1501 6.36377C13.133 6.36377 13.1158 6.36377 13.0987 6.36377C13.0816 6.36377 13.0645 6.36377 13.0474 6.36377C13.0302 6.36377 13.0131 6.36377 12.996 6.36377C12.9789 6.36377 12.9617 6.36377 12.9446 6.36377C12.9275 6.36377 12.9103 6.36377 12.8932 6.36377C12.876 6.36377 12.8589 6.36377 12.8418 6.36377C12.8246 6.36377 12.8075 6.36377 12.7903 6.36377C12.7732 6.36377 12.7561 6.36377 12.7389 6.36377C12.7218 6.36377 12.7046 6.36377 12.6875 6.36377C12.6703 6.36377 12.6532 6.36377 12.636 6.36377C12.6189 6.36377 12.6017 6.36377 12.5846 6.36377C12.5674 6.36377 12.5503 6.36377 12.5331 6.36377C12.516 6.36377 12.4988 6.36377 12.4816 6.36377C12.4645 6.36377 12.4473 6.36377 12.4302 6.36377C12.413 6.36377 12.3958 6.36377 12.3787 6.36377C12.3615 6.36377 12.3444 6.36377 12.3272 6.36377C12.3101 6.36377 12.2929 6.36377 12.2757 6.36377C12.2586 6.36377 12.2414 6.36377 12.2242 6.36377C12.2071 6.36377 12.1899 6.36377 12.1728 6.36377C12.1556 6.36377 12.1384 6.36377 12.1213 6.36377C12.1041 6.36377 12.0869 6.36377 12.0698 6.36377C12.0526 6.36377 12.0355 6.36377 12.0183 6.36377C12.0011 6.36377 11.984 6.36377 11.9668 6.36377C11.9497 6.36377 11.9325 6.36377 11.9153 6.36377C11.8982 6.36377 11.881 6.36377 11.8639 6.36377C11.8467 6.36377 11.8295 6.36377 11.8124 6.36377C11.7952 6.36377 11.7781 6.36377 11.7609 6.36377C11.7438 6.36377 11.7266 6.36377 11.7095 6.36377C11.6923 6.36377 11.6752 6.36377 11.658 6.36377C11.6409 6.36377 11.6237 6.36377 11.6066 6.36377C11.5894 6.36377 11.5723 6.36377 11.5551 6.36377C11.538 6.36377 11.5208 6.36377 11.5037 6.36377C11.4865 6.36377 11.4694 6.36377 11.4523 6.36377C11.4351 6.36377 11.418 6.36377 11.4008 6.36377C11.3837 6.36377 11.3666 6.36377 11.3494 6.36377C11.3323 6.36377 11.3152 6.36377 11.298 6.36377C11.2809 6.36377 11.2638 6.36377 11.2467 6.36377C11.2295 6.36377 11.2124 6.36377 11.1953 6.36377C11.1782 6.36377 11.161 6.36377 11.1439 6.36377C11.1268 6.36377 11.1097 6.36377 11.0926 6.36377C11.0755 6.36377 11.0584 6.36377 11.0413 6.36377C11.0242 6.36377 11.007 6.36377 10.9899 6.36377C10.9728 6.36377 10.9557 6.36377 10.9386 6.36377C10.9216 6.36377 10.9045 6.36377 10.8874 6.36377C10.8703 6.36377 10.8532 6.36377 10.8361 6.36377C10.819 6.36377 10.8019 6.36377 10.7849 6.36377C10.7678 6.36377 10.7507 6.36377 10.7336 6.36377C10.7166 6.36377 10.6995 6.36377 10.6824 6.36377C10.6654 6.36377 10.6483 6.36377 10.6313 6.36377C10.6142 6.36377 10.5971 6.36377 10.5801 6.36377C10.563 6.36377 10.546 6.36377 10.529 6.36377C10.5119 6.36377 10.4949 6.36377 10.4778 6.36377C10.4608 6.36377 10.4438 6.36377 10.4267 6.36377C10.4097 6.36377 10.3927 6.36377 10.3757 6.36377C10.3587 6.36377 10.3416 6.36377 10.3246 6.36377C10.3076 6.36377 10.2906 6.36377 10.2736 6.36377C10.2566 6.36377 10.2396 6.36377 10.2226 6.36377C10.2056 6.36377 10.1886 6.36377 10.1716 6.36377C10.1547 6.36377 10.1377 6.36377 10.1207 6.36377C10.1037 6.36377 10.0868 6.36377 10.0698 6.36377C10.0528 6.36377 10.0359 6.36377 10.0189 6.36377C10.002 6.36377 9.98501 6.36377 9.96807 6.36377C9.95112 6.36377 9.93418 6.36377 9.91725 6.36377C9.90031 6.36377 9.88338 6.36377 9.86646 6.36377C9.84954 6.36377 9.83262 6.36377 9.8157 6.36377C9.79879 6.36377 9.78188 6.36377 9.76498 6.36377C9.74808 6.36377 9.73118 6.36377 9.71429 6.36377C9.6974 6.36377 9.68051 6.36377 9.66363 6.36377C9.64675 6.36377 9.62988 6.36377 9.61301 6.36377C9.59615 6.36377 9.57928 6.36377 9.56243 6.36377C9.54557 6.36377 9.52872 6.36377 9.51188 6.36377C9.49504 6.36377 9.4782 6.36377 9.46137 6.36377C9.44454 6.36377 9.42771 6.36377 9.41089 6.36377C9.39408 6.36377 9.37726 6.36377 9.36046 6.36377C9.34365 6.36377 9.32686 6.36377 9.31006 6.36377C9.29327 6.36377 9.27649 6.36377 9.25971 6.36377C9.24293 6.36377 9.22616 6.36377 9.20939 6.36377C9.19263 6.36377 9.17587 6.36377 9.15912 6.36377C9.14237 6.36377 9.12563 6.36377 9.10889 6.36377C9.09215 6.36377 9.07542 6.36377 9.0587 6.36377C9.04198 6.36377 9.02526 6.36377 9.00856 6.36377C8.99185 6.36377 8.97515 6.36377 8.95846 6.36377C8.94176 6.36377 8.92508 6.36377 8.9084 6.36377C8.89172 6.36377 8.87506 6.36377 8.85839 6.36377C8.84173 6.36377 8.82508 6.36377 8.80843 6.36377C8.79178 6.36377 8.77515 6.36377 8.75852 6.36377C8.74189 6.36377 8.72526 6.36377 8.70865 6.36377C8.69203 6.36377 8.67543 6.36377 8.65883 6.36377C8.64223 6.36377 8.62564 6.36377 8.60906 6.36377C8.59248 6.36377 8.57591 6.36377 8.55934 6.36377C8.54278 6.36377 8.52622 6.36377 8.50967 6.36377C8.49313 6.36377 8.47659 6.36377 8.46006 6.36377C8.44353 6.36377 8.42701 6.36377 8.41049 6.36377C8.39398 6.36377 8.37748 6.36377 8.36098 6.36377C8.34449 6.36377 8.328 6.36377 8.31153 6.36377C8.29505 6.36377 8.27858 6.36377 8.26212 6.36377C8.24567 6.36377 8.22922 6.36377 8.21278 6.36377C8.19634 6.36377 8.17991 6.36377 8.16349 6.36377C8.14706 6.36377 8.13065 6.36377 8.11425 6.36377C8.09785 6.36377 8.08146 6.36377 8.06507 6.36377C8.04869 6.36377 8.03232 6.36377 8.01595 6.36377C7.99959 6.36377 7.98324 6.36377 7.96689 6.36377C7.95055 6.36377 7.93422 6.36377 7.91789 6.36377C7.90157 6.36377 7.88526 6.36377 7.86895 6.36377C7.85265 6.36377 7.83636 6.36377 7.82007 6.36377C7.80379 6.36377 7.78752 6.36377 7.77126 6.36377C7.75499 6.36377 7.73874 6.36377 7.7225 6.36377C7.70626 6.36377 7.69003 6.36377 7.67381 6.36377C7.65759 6.36377 7.64138 6.36377 7.62518 6.36377C7.60898 6.36377 7.5928 6.36377 7.57662 6.36377C7.56044 6.36377 7.54428 6.36377 7.52812 6.36377C7.51197 6.36377 7.49582 6.36377 7.47969 6.36377C7.46356 6.36377 7.44743 6.36377 7.43132 6.36377C7.41521 6.36377 7.39911 6.36377 7.38303 6.36377C7.36694 6.36377 7.35086 6.36377 7.3348 6.36377C7.31873 6.36377 7.30268 6.36377 7.28664 6.36377C7.2706 6.36377 7.25457 6.36377 7.23855 6.36377C7.22253 6.36377 7.20652 6.36377 7.19053 6.36377C7.17453 6.36377 7.15855 6.36377 7.14258 6.36377C7.12661 6.36377 7.11065 6.36377 7.0947 6.36377C7.07875 6.36377 7.06282 6.36377 7.0469 6.36377C7.03097 6.36377 7.01506 6.36377 6.99917 6.36377C6.98327 6.36377 6.96738 6.36377 6.95151 6.36377C6.93563 6.36377 6.91977 6.36377 6.90393 6.36377C6.88808 6.36377 6.87224 6.36377 6.85642 6.36377C6.8406 6.36377 6.82479 6.36377 6.80899 6.36377C6.79319 6.36377 6.77741 6.36377 6.76163 6.36377C6.74586 6.36377 6.7301 6.36377 6.71436 6.36377C6.69861 6.36377 6.68288 6.36377 6.66716 6.36377C6.65144 6.36377 6.63574 6.36377 6.62004 6.36377C6.60435 6.36377 6.58867 6.36377 6.573 6.36377C6.55734 6.36377 6.54168 6.36377 6.52605 6.36377C6.51041 6.36377 6.49478 6.36377 6.47917 6.36377C6.46356 6.36377 6.44796 6.36377 6.43237 6.36377C6.41679 6.36377 6.40122 6.36377 6.38566 6.36377C6.3701 6.36377 6.35456 6.36377 6.33903 6.36377C6.3235 6.36377 6.30799 6.36377 6.29249 6.36377C6.27699 6.36377 6.2615 6.36377 6.24603 6.36377C6.23056 6.36377 6.2151 6.36377 6.19965 6.36377C6.18421 6.36377 6.16878 6.36377 6.15337 6.36377C6.13795 6.36377 6.12255 6.36377 6.10717 6.36377C6.09178 6.36377 6.07641 6.36377 6.06105 6.36377C6.0457 6.36377 6.03035 6.36377 6.01503 6.36377C5.9997 6.36377 5.98439 6.36377 5.96909 6.36377C5.9538 6.36377 5.93851 6.36377 5.92325 6.36377C5.90798 6.36377 5.89273 6.36377 5.87749 6.36377C5.86226 6.36377 5.84704 6.36377 5.83183 6.36377C5.81662 6.36377 5.80143 6.36377 5.78626 6.36377C5.77108 6.36377 5.75592 6.36377 5.74078 6.36377C5.72564 6.36377 5.71051 6.36377 5.6954 6.36377C5.68028 6.36377 5.66519 6.36377 5.65011 6.36377C5.63503 6.36377 5.61996 6.36377 5.60491 6.36377C5.58986 6.36377 5.57483 6.36377 5.55981 6.36377C5.54479 6.36377 5.52979 6.36377 5.51481 6.36377C5.49982 6.36377 5.48485 6.36377 5.4699 6.36377C5.45495 6.36377 5.44001 6.36377 5.42509 6.36377C5.41017 6.36377 5.39527 6.36377 5.38038 6.36377C5.3655 6.36377 5.35063 6.36377 5.33577 6.36377C5.32092 6.36377 5.30608 6.36377 5.29126 6.36377C5.27644 6.36377 5.26164 6.36377 5.24685 6.36377C5.23207 6.36377 5.2173 6.36377 5.20255 6.36377C5.18779 6.36377 5.17306 6.36377 5.15834 6.36377C5.14362 6.36377 5.12892 6.36377 5.11424 6.36377C5.09956 6.36377 5.08489 6.36377 5.07024 6.36377C5.05559 6.36377 5.04096 6.36377 5.02635 6.36377C5.01173 6.36377 4.99714 6.36377 4.98256 6.36377C4.96798 6.36377 4.95342 6.36377 4.93887 6.36377C4.92433 6.36377 4.9098 6.36377 4.8953 6.36377C4.88079 6.36377 4.8663 6.36377 4.85183 6.36377C4.83735 6.36377 4.8229 6.36377 4.80847 6.36377C4.79403 6.36377 4.77961 6.36377 4.76521 6.36377C4.75081 6.36377 4.73643 6.36377 4.72207 6.36377C4.70771 6.36377 4.69336 6.36377 4.67904 6.36377C4.66471 6.36377 4.6504 6.36377 4.63611 6.36377C4.62182 6.36377 4.60755 6.36377 4.5933 6.36377C4.57905 6.36377 4.56482 6.36377 4.5506 6.36377C4.53639 6.36377 4.5222 6.36377 4.50802 6.36377C4.49384 6.36377 4.47969 6.36377 4.46555 6.36377C4.45141 6.36377 4.43729 6.36377 4.42319 6.36377C4.40909 6.36377 4.39501 6.36377 4.38095 6.36377C4.36689 6.36377 4.35285 6.36377 4.33882 6.36377C4.3248 6.36377 4.3108 6.36377 4.29681 6.36377C4.28283 6.36377 4.26887 6.36377 4.25492 6.36377C4.24098 6.36377 4.22706 6.36377 4.21315 6.36377C4.19925 6.36377 4.18536 6.36377 4.1715 6.36377C4.15763 6.36377 4.14379 6.36377 4.12996 6.36377C4.11614 6.36377 4.10233 6.36377 4.08855 6.36377C4.07476 6.36377 4.061 6.36377 4.04725 6.36377C4.03351 6.36377 4.01978 6.36377 4.00608 6.36377C3.99238 6.36377 3.97869 6.36377 3.96503 6.36377C3.95137 6.36377 3.93773 6.36377 3.92411 6.36377C3.91048 6.36377 3.89688 6.36377 3.8833 6.36377C3.86972 6.36377 3.85616 6.36377 3.84263 6.36377C3.82909 6.36377 3.81557 6.36377 3.80207 6.36377C3.78858 6.36377 3.7751 6.36377 3.76165 6.36377C3.74819 6.36377 3.73476 6.36377 3.72135 6.36377C3.70794 6.36377 3.69455 6.36377 3.68118 6.36377C3.66781 6.36377 3.65446 6.36377 3.64113 6.36377C3.62781 6.36377 3.6145 6.36377 3.60122 6.36377C3.58794 6.36377 3.57467 6.36377 3.56143 6.36377C3.54819 6.36377 3.53498 6.36377 3.52178 6.36377C3.50858 6.36377 3.49541 6.36377 3.48226 6.36377C3.4691 6.36377 3.45597 6.36377 3.44287 6.36377C3.42976 6.36377 3.41667 6.36377 3.40361 6.36377C3.39054 6.36377 3.3775 6.36377 3.36448 6.36377C3.35146 6.36377 3.33847 6.36377 3.32549 6.36377C3.31252 6.36377 3.29956 6.36377 3.28663 6.36377C3.2737 6.36377 3.2608 6.36377 3.24791 6.36377C3.23503 6.36377 3.22217 6.36377 3.20933 6.36377C3.19649 6.36377 3.18367 6.36377 3.17088 6.36377C3.15809 6.36377 3.14532 6.36377 3.13257 6.36377C3.11982 6.36377 3.1071 6.36377 3.0944 6.36377C3.0817 6.36377 3.06902 6.36377 3.05637 6.36377C3.04371 6.36377 3.03108 6.36377 3.01847 6.36377C3.00587 6.36377 2.99328 6.36377 2.98072 6.36377C2.96816 6.36377 2.95562 6.36377 2.94311 6.36377C2.9306 6.36377 2.91811 6.36377 2.90564 6.36377C2.89318 6.36377 2.88073 6.36377 2.86832 6.36377C2.8559 6.36377 2.8435 6.36377 2.83113 6.36377C2.81876 6.36377 2.80642 6.36377 2.79409 6.36377C2.78177 6.36377 2.76947 6.36377 2.7572 6.36377C2.74493 6.36377 2.73268 6.36377 2.72045 6.36377C2.70823 6.36377 2.69603 6.36377 2.68385 6.36377C2.67167 6.36377 2.65952 6.36377 2.6474 6.36377C2.63527 6.36377 2.62317 6.36377 2.61109 6.36377C2.59901 6.36377 2.58696 6.36377 2.57493 6.36377C2.5629 6.36377 2.5509 6.36377 2.53892 6.36377C2.52694 6.36377 2.51499 6.36377 2.50306 6.36377C2.49113 6.36377 2.47923 6.36377 2.46735 6.36377C2.45548 6.36377 2.44362 6.36377 2.4318 6.36377C2.41997 6.36377 2.40817 6.36377 2.39639 6.36377C2.38462 6.36377 2.37286 6.36377 2.36114 6.36377C2.34941 6.36377 2.33771 6.36377 2.32604 6.36377C2.31437 6.36377 2.30272 6.36377 2.2911 6.36377C2.27947 6.36377 2.26788 6.36377 2.25631 6.36377C2.24474 6.36377 2.23319 6.36377 2.22167 6.36377C2.21016 6.36377 2.19866 6.36377 2.1872 6.36377C2.17573 6.36377 2.16429 6.36377 2.15288 6.36377C2.14146 6.36377 2.13008 6.36377 2.11871 6.36377C2.10735 6.36377 2.09602 6.36377 2.08471 6.36377C2.0734 6.36377 2.06212 6.36377 2.05087 6.36377C2.03961 6.36377 2.02838 6.36377 2.01718 6.36377C2.00598 6.36377 1.99481 6.36377 1.98366 6.36377C1.97251 6.36377 1.96139 6.36377 1.9503 6.36377C1.93921 6.36377 1.92814 6.36377 1.9171 6.36377C1.90606 6.36377 1.89505 6.36377 1.88406 6.36377C1.87308 6.36377 1.86212 6.36377 1.85119 6.36377C1.84026 6.36377 1.82936 6.36377 1.81848 6.36377C1.80761 6.36377 1.79676 6.36377 1.78594 6.36377C1.77512 6.36377 1.76433 6.36377 1.75356 6.36377C1.7428 6.36377 1.73206 6.36377 1.72135 6.36377C1.71064 6.36377 1.69996 6.36377 1.68931 6.36377C1.67865 6.36377 1.66803 6.36377 1.65743 6.36377C1.64684 6.36377 1.63627 6.36377 1.62573 6.36377C1.61519 6.36377 1.60467 6.36377 1.59419 6.36377C1.5837 6.36377 1.57325 6.36377 1.56282 6.36377C1.55239 6.36377 1.542 6.36377 1.53163 6.36377C1.52126 6.36377 1.51091 6.36377 1.5006 6.36377C1.49029 6.36377 1.48 6.36377 1.46975 6.36377C1.45949 6.36377 1.44927 6.36377 1.43907 6.36377C1.42887 6.36377 1.4187 6.36377 1.40857 6.36377C1.39843 6.36377 1.38832 6.36377 1.37824 6.36377C1.36815 6.36377 1.3581 6.36377 1.34808 6.36377C1.33806 6.36377 1.32806 6.36377 1.3181 6.36377C1.30814 6.36377 1.2982 6.36377 1.2883 6.36377C1.27839 6.36377 1.26852 6.36377 1.25867 6.36377C1.24883 6.36377 1.23901 6.36377 1.22923 6.36377C1.21944 6.36377 1.20968 6.36377 1.19996 6.36377C1.19023 6.36377 1.18054 6.36377 1.17087 6.36377C1.1612 6.36377 1.15157 6.36377 1.14196 6.36377C1.13236 6.36377 1.12278 6.36377 1.11323 6.36377C1.10369 6.36377 1.09417 6.36377 1.08469 6.36377C1.0752 6.36377 1.06575 6.36377 1.05633 6.36377C1.0469 6.36377 1.03751 6.36377 1.02815 6.36377C1.01878 6.36377 1.00945 6.36377 1.00015 6.36377C0.990849 6.36377 0.981579 6.36377 0.972339 6.36377C0.9631 6.36377 0.953891 6.36377 0.944714 6.36377C0.935536 6.36377 0.92639 6.36377 0.917274 6.36377C0.908159 6.36377 0.899074 6.36377 0.890021 6.36377C0.880968 6.36377 0.871947 6.36377 0.862956 6.36377C0.853966 6.36377 0.845007 6.36377 0.836079 6.36377C0.827152 6.36377 0.818256 6.36377 0.809391 6.36377C0.800527 6.36377 0.791694 6.36377 0.782893 6.36377C0.774092 6.36377 0.765323 6.36377 0.756585 6.36377C0.747848 6.36377 0.739142 6.36377 0.730469 6.36377C0.721795 6.36377 0.713154 6.36377 0.704544 6.36377C0.695935 6.36377 0.687357 6.36377 0.678812 6.36377C0.670267 6.36377 0.661754 6.36377 0.653273 6.36377C0.644793 6.36377 0.636344 6.36377 0.627928 6.36377C0.619513 6.36377 0.611129 6.36377 0.602779 6.36377C0.594428 6.36377 0.58611 6.36377 0.577824 6.36377C0.569539 6.36377 0.561286 6.36377 0.553066 6.36377C0.544846 6.36377 0.536659 6.36377 0.528505 6.36377C0.520351 6.36377 0.512229 6.36377 0.504141 6.36377C0.496053 6.36377 0.487998 6.36377 0.479976 6.36377C0.471954 6.36377 0.463965 6.36377 0.45601 6.36377C0.448055 6.36377 0.440132 6.36377 0.432244 6.36377C0.424355 6.36377 0.4165 6.36377 0.408678 6.36377C0.400856 6.36377 0.393068 6.36377 0.385314 6.36377C0.377559 6.36377 0.369838 6.36377 0.362151 6.36377C0.354464 6.36377 0.346811 6.36377 0.339192 6.36377C0.331573 6.36377 0.323987 6.36377 0.316436 6.36377C0.308884 6.36377 0.301367 6.36377 0.293884 6.36377C0.2864 6.36377 0.278951 6.36377 0.271537 6.36377C0.264122 6.36377 0.256741 6.36377 0.249395 6.36377C0.242049 6.36377 0.234737 6.36377 0.22746 6.36377C0.220183 6.36377 0.21294 6.36377 0.205732 6.36377C0.198524 6.36377 0.191351 6.36377 0.184212 6.36377C0.177073 6.36377 0.169969 6.36377 0.1629 6.36377C0.155831 6.36377 0.148797 6.36377 0.141798 6.36377C0.134799 6.36377 0.127834 6.36377 0.120905 6.36377C0.113976 6.36377 0.107082 6.36377 0.100223 6.36377C0.0933647 6.36377 0.0865412 6.36377 0.079753 6.36377C0.0729649 6.36377 0.0662121 6.36377 0.0594948 6.36377C0.0527774 6.36377 0.0460956 6.36377 0.0394494 6.36377C0.0328031 6.36377 0.0261925 6.36377 0.0196175 6.36377C0.0130426 6.36377 0.00650338 6.36377 0 6.36377V8.36377Z" fill="#6167CE"/>
</svg>
