<svg width="44" height="30" viewBox="0 0 44 30" fill="none" xmlns="http://www.w3.org/2000/svg">
<path d="M17.0198 0.0565125C13.9368 0.148609 8.98251 0.4249 8.04687 0.578395C5.56208 0.946782 2.81653 3.00361 1.71217 5.33673C1.14466 6.53399 0.546466 8.95921 0.209025 11.4612C-0.0670638 13.4413 -0.0670638 20.2257 0.193687 21.6993C0.454437 23.1114 1.03729 24.017 2.04962 24.5543C2.46375 24.7845 2.86254 24.9687 2.95457 24.9687C3.03126 24.9687 3.15397 24.7078 3.21532 24.4008C3.50675 22.8044 4.97922 21.0086 6.63575 20.2411C7.38733 19.888 7.70943 19.8266 8.96717 19.8266C10.2709 19.8266 10.5317 19.8727 11.4213 20.3025C13.722 21.3923 15.1638 23.925 14.8417 26.2888L14.7497 26.9641H29.183L29.2443 25.5366C29.2904 24.3087 29.3517 23.9863 29.7812 23.1114C30.3794 21.8835 31.4837 20.809 32.7108 20.2411C33.4624 19.888 33.7845 19.8266 35.0422 19.8266C36.3613 19.8266 36.5914 19.8727 37.527 20.3178C39.2449 21.1313 40.5333 22.743 40.8094 24.3854C40.9321 25.0915 41.2082 25.1376 42.2358 24.585C43.785 23.7408 43.9844 22.8812 43.9997 17.294C44.0151 10.7091 43.3555 6.53399 41.8217 3.55619C40.9781 1.9138 40.1038 1.16167 38.6314 0.808637C36.4993 0.271405 24.106 -0.15838 17.0198 0.0565125ZM31.0082 6.90238C31.2537 7.13262 31.2843 7.53171 31.3303 10.1104C31.361 11.7221 31.3457 13.211 31.2997 13.3952C31.1003 14.1934 30.9622 14.2241 27.6031 14.2241C24.5508 14.2241 24.4741 14.2241 24.2441 13.8864C24.0447 13.5948 23.9987 12.9961 23.9987 10.3714C23.9987 7.54706 24.0293 7.17867 24.2747 6.97913C24.7196 6.58004 24.9036 6.56469 27.8639 6.59539C30.3947 6.62609 30.7628 6.65679 31.0082 6.90238ZM11.59 6.99448C11.9581 7.28612 11.9581 7.31682 11.9581 10.4481C11.9581 13.2417 11.9275 13.6255 11.6974 13.871C11.452 14.1013 11.1299 14.132 8.8598 14.0859C5.93019 14.0399 5.56208 13.9324 5.07125 12.9347C4.79516 12.3821 4.79516 12.2133 4.96388 10.97C5.27065 8.57547 5.96087 7.24007 7.01921 6.88703C7.2953 6.81028 8.35364 6.73354 9.36596 6.71819C10.9918 6.70284 11.2832 6.73354 11.59 6.99448ZM21.4218 6.96378C21.6672 7.19402 21.6979 7.50101 21.6979 10.4174C21.6979 13.4106 21.6826 13.6255 21.3912 13.9171C21.0997 14.2087 20.885 14.2241 18.1241 14.2241C15.7007 14.2241 15.1025 14.178 14.8264 13.9785C14.4889 13.7482 14.4889 13.6868 14.4889 10.5095C14.4889 7.70055 14.5196 7.22472 14.7497 6.97913C14.9798 6.73354 15.2865 6.70284 18.0628 6.70284C20.7009 6.70284 21.1764 6.73354 21.4218 6.96378ZM40.3799 7.08657C40.7634 7.40891 40.9014 7.7159 41.1775 8.89781C41.5303 10.4481 41.9444 13.7022 41.9444 14.9455C41.9444 15.8358 41.6837 16.2195 41.0701 16.2195C40.8707 16.2195 39.1835 15.7283 37.3276 15.1297C34.9962 14.3776 33.9225 13.9478 33.8151 13.7636C33.7231 13.5948 33.6618 12.1212 33.6618 10.4328C33.6618 7.91544 33.7078 7.33216 33.9072 7.04052C34.1372 6.71819 34.2139 6.70284 37.0362 6.70284C39.9044 6.70284 39.9351 6.70284 40.3799 7.08657Z" fill="white"/>
<path d="M38.8614 10.2486C38.5853 10.5249 38.5547 10.6937 38.6314 11.2923C38.6774 11.6761 38.7694 12.4742 38.8154 13.0575C38.9381 14.2548 39.2295 14.6846 39.9198 14.6846C40.1652 14.6846 40.4873 14.5464 40.6407 14.3776C40.9014 14.0859 40.9014 13.9478 40.7174 12.29C40.564 10.9393 40.4566 10.4328 40.2419 10.2179C39.8584 9.83413 39.2602 9.84948 38.8614 10.2486Z" fill="white"/>
<path d="M7.52537 21.5304C6.52839 21.8374 5.28599 23.0807 4.93321 24.1091C4.19697 26.2734 5.02524 28.407 6.98853 29.4968C7.69409 29.8805 7.98552 29.9419 8.96717 29.9419C9.9028 29.9419 10.2556 29.8652 10.8998 29.5429C13.6453 28.1154 14.1362 24.4929 11.8508 22.4361C10.639 21.3462 9.15123 21.0392 7.52537 21.5304Z" fill="white"/>
<path d="M33.9685 21.423C33.1403 21.6839 32.2967 22.2212 31.7752 22.8351C29.7352 25.2143 30.8855 28.9289 33.9225 29.8192C35.4103 30.2489 36.8214 29.9112 38.0025 28.8214C39.8891 27.0716 39.8584 24.1705 37.9258 22.4361C36.8368 21.4537 35.2263 21.0392 33.9685 21.423Z" fill="white"/>
</svg>
