<svg width="39" height="39" viewBox="0 0 39 39" fill="none" xmlns="http://www.w3.org/2000/svg">
<path d="M28.5776 0.154602C27.2906 0.565824 26.3311 1.72334 26.1331 3.1017C26.0265 3.84038 26.1407 4.51052 26.491 5.21873C26.7347 5.70611 27.0089 6.0031 29.2554 8.24199C31.4257 10.4047 31.7912 10.7398 32.0349 10.7779C32.6746 10.8921 32.7127 10.854 35.4161 8.14299C37.7007 5.84318 37.952 5.56142 38.1423 5.11974C39.0333 3.09408 38.0281 0.794282 35.972 0.154602C34.7916 -0.21093 33.1468 0.146986 32.4385 0.923741C32.3015 1.07605 32.3015 1.06843 32.0121 0.809512C31.1973 0.0784492 29.7123 -0.203315 28.5776 0.154602Z" fill="white"/>
<path d="M17.6504 5.11194C17.2163 5.37086 17.0259 5.83539 17.1325 6.38369C17.1706 6.61214 17.3458 6.83299 17.955 7.45743C18.3814 7.8915 18.8231 8.29511 18.9373 8.35603C19.0516 8.41696 19.3029 8.46265 19.4933 8.46265C19.6836 8.46265 19.9349 8.41696 20.0492 8.35603C20.1634 8.29511 20.6051 7.8915 21.0315 7.45743C21.6408 6.83299 21.8159 6.61214 21.854 6.38369C22.0063 5.57647 21.5113 4.95964 20.7117 4.95964C20.3081 4.95964 20.0416 5.08148 19.7293 5.40894L19.5009 5.64501L19.2343 5.38609C19.082 5.24902 18.884 5.0891 18.7927 5.0434C18.5261 4.90633 17.9245 4.94441 17.6504 5.11194Z" fill="white"/>
<path d="M24.7324 10.7623L23.0342 11.699V21.9415V32.1839L24.7324 33.1206C26.2707 33.9659 26.461 34.0497 26.8113 34.0497C27.2835 34.0497 27.6566 33.8288 27.847 33.4405C27.9765 33.1892 27.9841 32.4809 27.9841 21.9415C27.9841 11.402 27.9765 10.6937 27.847 10.4424C27.6566 10.0541 27.2835 9.83323 26.8113 9.83323C26.461 9.83323 26.2707 9.91699 24.7324 10.7623Z" fill="white"/>
<path d="M34.708 12.4226C34.2739 12.6815 34.0835 13.1461 34.1902 13.6944C34.2282 13.9228 34.4034 14.1437 35.0126 14.7681C35.4391 15.2022 35.8807 15.6058 35.995 15.6667C36.1092 15.7276 36.3605 15.7733 36.5509 15.7733C36.7413 15.7733 36.9926 15.7276 37.1068 15.6667C37.221 15.6058 37.6627 15.2022 38.0892 14.7681C38.6984 14.1437 38.8735 13.9228 38.9116 13.6944C39.0639 12.8871 38.5689 12.2703 37.7693 12.2703C37.3657 12.2703 37.0992 12.3921 36.7869 12.7196L36.5585 12.9557L36.292 12.6968C36.1397 12.5597 35.9417 12.3998 35.8503 12.3541C35.5837 12.217 34.9821 12.2551 34.708 12.4226Z" fill="white"/>
<path d="M19.9654 13.1157C19.0973 13.5041 16.8888 14.2504 15.6628 14.5855C13.561 15.149 10.9109 15.6211 9.15938 15.743L8.41309 15.7963V21.9494V28.1101H8.74054C8.91569 28.1101 9.52491 28.1634 10.0884 28.232C13.3173 28.6051 16.7137 29.458 19.6151 30.6308C20.2319 30.8745 20.7498 31.0801 20.7802 31.0801C20.8031 31.0801 20.8259 26.9678 20.8259 21.9418C20.8259 14.6769 20.8031 12.8035 20.7345 12.8111C20.6812 12.8111 20.3309 12.9482 19.9654 13.1157Z" fill="white"/>
<path d="M30.1924 21.942C30.1924 25.7648 30.2228 28.4149 30.2609 28.4149C30.3599 28.4149 30.9996 27.6915 31.3347 27.1965C32.3551 25.6963 32.8196 24.0514 32.812 21.942C32.812 19.8173 32.3551 18.1877 31.3347 16.6874C30.9996 16.1925 30.3599 15.469 30.2609 15.469C30.2228 15.469 30.1924 18.1191 30.1924 21.942Z" fill="white"/>
<path d="M4.50632 16.0855C3.47826 16.3368 2.51874 16.8851 1.72676 17.6695C0.972847 18.4234 0.432165 19.36 0.142786 20.4262C-0.0475952 21.1039 -0.0475952 22.7793 0.142786 23.457C0.74439 25.6426 2.41974 27.2951 4.54439 27.8053C4.88708 27.8891 5.40492 27.9576 5.6943 27.9576H6.20452V21.9416V15.9256L5.65622 15.9332C5.35161 15.9332 4.83377 16.0017 4.50632 16.0855Z" fill="white"/>
<path d="M8.94584 30.4251C8.94584 30.4784 9.25045 31.8796 9.6236 33.5321C10.3851 36.9133 10.4917 37.2103 11.2228 37.9414C11.9158 38.6343 12.7839 38.9999 13.7434 38.9999C14.1014 38.9999 14.307 38.9618 14.4897 38.8476C14.8096 38.6496 15.038 38.2688 15.038 37.9261C15.038 37.7205 13.5531 31.0876 13.4921 31.0267C13.4388 30.981 11.3218 30.6079 10.545 30.5165C8.86969 30.3109 8.94584 30.3109 8.94584 30.4251Z" fill="white"/>
</svg>
