<svg width="38" height="36" viewBox="0 0 38 36" fill="none" xmlns="http://www.w3.org/2000/svg">
<path d="M27.3748 0.150556C26.9257 0.363945 26.7936 0.844072 26.7936 2.2311V3.52478L28.9732 4.63174C30.1753 5.23189 31.1792 5.72536 31.2188 5.72536C31.2584 5.72536 31.2849 4.60506 31.2849 3.2447V0.764051L30.9018 0.377282C30.5187 -0.00948654 30.4923 -0.00948652 29.0789 0.00385033C28.2995 0.00385033 27.5201 0.0705346 27.3748 0.150556Z" fill="white"/>
<path d="M9.54198 6.84565C3.51844 9.87312 0.33494 11.5269 0.202845 11.7403C-0.299117 12.4471 0.189635 13.4607 1.02184 13.4607C1.23319 13.4607 2.09181 13.1273 2.9108 12.7139L4.40347 11.9803L4.53557 35.3598L5.2753 36H32.7247L33.4644 35.3598L33.5965 11.9803L35.0892 12.7139C35.9082 13.1273 36.7668 13.4607 36.9782 13.4607C37.8104 13.4607 38.2991 12.4471 37.7972 11.7403C37.533 11.3535 19.4227 2.25778 18.9604 2.27111C18.8019 2.27111 14.5616 4.33833 9.54198 6.84565ZM15.7637 13.6741C16.8072 13.9409 17.613 14.421 18.3659 15.2212L18.9868 15.8747L19.7133 15.1545C21.8797 12.9673 25.1556 12.9539 27.2824 15.1412C29.1581 17.0884 29.5412 20.0358 28.2335 22.6498C27.3616 24.3969 26.1331 25.6773 21.3117 29.8517C19.568 31.3588 19.2378 31.5588 18.7094 31.4121C18.4188 31.3454 16.7015 29.9051 13.5973 27.1443C9.96468 23.9168 8.65694 21.4628 9.06644 18.6088C9.5684 15.1145 12.6462 12.8472 15.7637 13.6741Z" fill="white"/>
<path d="M13.7162 15.848C12.6066 16.2081 11.9065 16.9016 11.4706 18.0886C10.7573 19.9824 11.4177 21.8096 13.6369 24.0635C14.9315 25.3839 18.8019 28.7981 19 28.7981C19.1981 28.7981 23.0685 25.3839 24.3631 24.0635C26.5823 21.8096 27.2427 19.9824 26.5294 18.0886C25.9614 16.5682 24.9575 15.808 23.4912 15.7947C22.7911 15.7947 22.5269 15.8614 22.0118 16.1548C21.3249 16.5682 20.5851 17.5018 20.2549 18.3954C19.6605 19.9824 18.3395 19.9958 17.7715 18.4487C17.4413 17.5285 16.728 16.6082 16.0411 16.1948C15.407 15.8214 14.2974 15.648 13.7162 15.848Z" fill="white"/>
</svg>
