<svg width="51" height="51" viewBox="0 0 51 51" fill="none" xmlns="http://www.w3.org/2000/svg">
<g clip-path="url(#clip0_3185_1049)">
<path d="M25.16 42.48C21.96 42.48 19.464 41.84 17.672 40.56C15.88 39.28 14.984 37.52 14.984 35.28C14.984 34.416 15.16 33.536 15.512 32.64C15.864 31.744 16.456 30.832 17.288 29.904L17.576 30.576H13.592V27.024H20.984L19.112 27.504L24.536 22.752L24.968 23.088H13.592V19.536H29.048L27.08 20.256C27.816 19.584 28.376 19.008 28.76 18.528C29.176 18.016 29.464 17.536 29.624 17.088C29.784 16.608 29.864 16.096 29.864 15.552C29.864 14.592 29.48 13.872 28.712 13.392C27.944 12.912 26.808 12.672 25.304 12.672C23.992 12.672 22.648 12.912 21.272 13.392C19.928 13.872 18.616 14.624 17.336 15.648L15.464 11.328C17.064 10.112 18.872 9.2 20.888 8.592C22.936 7.984 25.048 7.68 27.224 7.68C30.136 7.68 32.36 8.24 33.896 9.36C35.464 10.48 36.248 12.096 36.248 14.208C36.248 15.296 36.04 16.32 35.624 17.28C35.208 18.208 34.488 19.2 33.464 20.256L33.128 19.536H37.112V23.088H29.624L31.016 22.752L25.688 27.552L25.448 27.024H37.112V30.576H21.608L23.528 29.76C21.992 31.104 21.224 32.56 21.224 34.128C21.224 35.12 21.672 35.92 22.568 36.528C23.496 37.136 24.84 37.44 26.6 37.44C28.2 37.44 29.736 37.152 31.208 36.576C32.712 36 34.024 35.2 35.144 34.176L37.16 38.544C35.72 39.824 33.976 40.8 31.928 41.472C29.88 42.144 27.624 42.48 25.16 42.48Z" fill="white"/>
</g>
<defs>
<clipPath id="clip0_3185_1049">
<rect width="51" height="51" fill="white"/>
</clipPath>
</defs>
</svg>
