<svg width="51" height="51" viewBox="0 0 51 51" fill="none" xmlns="http://www.w3.org/2000/svg">
<path d="M26.2441 6.10618C24.728 6.46042 23.2496 7.87018 22.8498 9.35947C22.7065 9.87999 22.6914 11.0078 22.8121 11.5717C23.0761 12.808 24.1472 14.0876 25.3691 14.6515C26.1461 15.0057 26.5986 15.0997 27.4811 15.0997C28.3637 15.0997 28.8162 15.0057 29.5931 14.6515C30.4983 14.2394 31.3355 13.4369 31.7655 12.5694C32.1351 11.8247 32.2331 11.391 32.2331 10.5234C32.2331 9.19319 31.8334 8.27504 30.8377 7.32074C30.355 6.84359 30.1136 6.67731 29.5931 6.43874C29.2386 6.27969 28.771 6.11341 28.5522 6.07003C28.0091 5.96159 26.7872 5.98327 26.2441 6.10618Z" fill="white"/>
<path d="M13.2025 9.67756C12.3653 9.87998 11.6261 10.4728 11.2414 11.2536C11.0226 11.6946 11 11.7958 11 12.4609C11 13.1405 11.0151 13.22 11.2565 13.6899C11.7015 14.5503 13.9568 16.6541 15.7595 17.8903C17.1927 18.8735 19.0331 19.8423 20.3909 20.3267L20.8811 20.5002L20.9566 41.0899L21.1527 41.4875C21.4318 42.0514 21.8089 42.4346 22.3671 42.7238C22.8197 42.9623 22.8725 42.9696 23.6343 42.9696C24.3433 42.9696 24.4715 42.9479 24.8487 42.7671C25.3541 42.5358 25.9198 41.9791 26.1461 41.502C26.312 41.1694 26.312 41.1116 26.3346 36.7666L26.3573 32.3783H28.605L28.6503 41.0899L28.8992 41.5743C29.1707 42.1165 29.6158 42.5358 30.1815 42.796C30.7246 43.0419 31.7429 43.0708 32.3463 42.8539C32.9648 42.6298 33.6512 41.9791 33.8775 41.3935L34.0434 40.9742V20.5435L34.7525 20.2761C37.5433 19.2205 40.6283 17.1601 42.7479 14.9407C43.7586 13.8851 44 13.408 44 12.4971C44 11.2897 43.3739 10.3571 42.2123 9.84384C41.8352 9.67033 41.6843 9.64141 41.0583 9.64141C39.8514 9.64864 39.7081 9.72816 38.0034 11.3765C36.163 13.1622 34.9637 14.0442 33.2439 14.8684C29.6384 16.6034 25.3541 16.6179 21.8089 14.9117C20.0062 14.0442 18.8521 13.2056 16.9966 11.4126C15.669 10.133 15.4805 9.97397 15.0731 9.82215C14.5678 9.64141 13.6626 9.56911 13.2025 9.67756Z" fill="white"/>
</svg>
