<svg width="44" height="44" viewBox="0 0 44 44" fill="none" xmlns="http://www.w3.org/2000/svg">
<path d="M7.30499 0.458478C6.92293 0.855699 6.8618 1.00848 6.93822 1.4057C7.07576 2.10847 7.28971 2.27653 9.13888 3.19319C10.9269 4.0793 11.309 4.12513 11.9203 3.51402C12.3329 3.10152 12.3176 2.23069 11.905 1.8182C11.4771 1.39042 8.604 0.000145967 8.14553 0.000145967C7.93157 0.000145967 7.5648 0.198756 7.30499 0.458478Z" fill="white"/>
<path d="M39.505 0.779313C37.8545 1.61959 37.2891 2.0932 37.2891 2.68903C37.2891 3.16264 38.0532 3.97236 38.4964 3.97236C38.9854 3.97236 42.1183 2.35292 42.3934 1.9557C42.9741 1.14598 42.317 -0.0151285 41.2931 0.00014923C41.1555 0.00014923 40.3456 0.351537 39.505 0.779313Z" fill="white"/>
<path d="M19.0266 2.96403C17.0705 3.43764 15.3283 4.85847 14.4877 6.67652C14.0598 7.56262 13.9834 7.92929 13.9376 9.16678C13.8917 10.3584 13.9376 10.7862 14.2126 11.6112C14.9615 13.8265 16.6273 15.7668 19.4239 17.6765C21.5635 19.1279 24.1156 20.4723 24.7422 20.4723C25.002 20.4723 25.7661 20.1973 26.4386 19.8612C31.8638 17.1265 35.4399 13.3834 35.6997 10.1598C35.9901 6.60013 33.5143 3.48347 29.8771 2.85708C28.5323 2.62792 27.0193 2.88764 25.7203 3.57514L24.7575 4.09458L23.7183 3.57514C22.1442 2.7807 20.616 2.58208 19.0266 2.96403Z" fill="white"/>
<path d="M6.14353 9.12095C5.80732 9.25845 5.4711 10.0834 5.57808 10.5418C5.76147 11.4126 6.09768 11.5348 8.20665 11.5348C10.1017 11.5348 10.117 11.5348 10.4837 11.1071C10.9575 10.5418 10.9575 9.86956 10.4685 9.39595C10.117 9.02928 10.0253 9.01401 8.22194 9.02929C7.18273 9.02929 6.25051 9.07512 6.14353 9.12095Z" fill="white"/>
<path d="M39.1383 9.27373C38.9549 9.42651 38.7715 9.79317 38.7256 10.0987C38.6492 10.5418 38.7104 10.7251 39.016 11.0918L39.3981 11.5348H41.3389C43.2645 11.5348 43.2798 11.5348 43.6466 11.1071C44.1203 10.5418 44.1203 9.86956 43.6313 9.39595C43.2798 9.02928 43.1728 9.01401 41.3695 9.01401C39.7801 9.01401 39.4133 9.05984 39.1383 9.27373Z" fill="white"/>
<path d="M9.00134 17.432C7.5648 18.1348 7.13689 18.4098 7.01463 18.7459C6.70898 19.5709 7.27443 20.4723 8.09968 20.4723C8.68041 20.4723 11.8592 18.8987 12.0731 18.5015C12.3176 18.0431 12.2565 17.4931 11.9203 17.0806C11.4007 16.4084 10.9881 16.4543 9.00134 17.432Z" fill="white"/>
<path d="M38.2519 16.6223C37.5183 16.7293 37.0751 17.7987 37.4419 18.5015C37.6559 18.8987 40.8346 20.4723 41.4153 20.4723C42.3934 20.4723 42.9589 19.3265 42.3934 18.5168C42.1642 18.1806 39.719 16.8515 38.9702 16.6681C38.7562 16.607 38.4353 16.5918 38.2519 16.6223Z" fill="white"/>
<path d="M14.4877 22.1376C12.4093 22.8098 11.1867 23.9862 9.87244 26.5834C9.21529 27.882 8.74154 28.5848 8.0844 29.257L7.18273 30.1737L10.5143 33.5042L13.8459 36.8195L14.4419 36.2084C14.7628 35.8722 15.1296 35.5972 15.2213 35.5972C15.3283 35.5972 16.612 36.1931 18.0791 36.9111C20.7382 38.225 20.7535 38.2403 21.9608 38.2403C24.1462 38.2556 24.1462 38.2556 30.7635 31.6556C33.9422 28.4931 36.6167 25.7278 36.6931 25.5292C37.0599 24.6278 36.1735 23.5278 35.0884 23.5278C34.5077 23.5278 34.0187 23.8487 29.113 27.3626C26.1788 29.4709 23.4891 31.3348 23.1529 31.5181C22.7097 31.7473 22.2665 31.8389 21.5482 31.8389C20.6465 31.8389 20.402 31.7625 18.9502 31.0292C18.0638 30.5862 17.1927 30.082 17.0093 29.8987C16.5661 29.5014 16.5509 28.7528 16.9788 28.2028C17.4067 27.6528 18.0638 27.6834 19.4239 28.3403C21.1356 29.1653 22.618 29.0278 23.703 27.9431C24.4824 27.1639 24.62 26.3542 24.1156 25.3917C23.7642 24.7042 23.6419 24.6278 21.2578 23.4209C19.8977 22.7334 18.4306 22.107 18.018 22.0154C16.9023 21.7709 15.4811 21.832 14.4877 22.1376Z" fill="white"/>
<path d="M3.89702 31.6098C3.72891 31.6862 2.7814 32.5723 1.80332 33.5653C0.213954 35.1695 0 35.4598 0 35.9181C0 36.3917 0.336213 36.7584 3.79004 40.2111C7.24386 43.6792 7.61064 44 8.0844 44C8.55815 44 8.83324 43.7861 10.5296 42.1056C12.2718 40.3639 12.4399 40.15 12.4399 39.6458C12.4399 39.1264 12.2106 38.8667 8.71098 35.3681C6.38805 33.0611 4.81396 31.6098 4.58472 31.5639C4.37077 31.5181 4.06512 31.5487 3.89702 31.6098Z" fill="white"/>
</svg>
