<svg width="162" height="34" viewBox="0 0 162 34" fill="none" xmlns="http://www.w3.org/2000/svg">
<path d="M5.61475 25.0541C6.08619 25.067 6.46538 25.1056 6.92913 25.2136C7.81819 25.4503 8.51765 25.7975 9.12744 26.4998C9.13065 26.503 9.13385 26.5062 9.13725 26.5094C9.14717 26.5188 9.15582 26.5296 9.16417 26.5404C9.16647 26.5434 9.16888 26.5463 9.17131 26.5489C9.17277 26.5504 9.17404 26.5522 9.175 26.5541C9.17574 26.5556 9.17668 26.557 9.17777 26.5583C9.46118 26.8868 9.63248 27.1899 9.78847 27.5981C9.94219 28.038 9.99344 28.393 9.99088 28.8585C9.97807 29.3164 9.91401 29.6637 9.79359 30.101C9.68672 30.4436 9.25191 31.3262 9.13582 31.8808C9.07418 32.1753 9.33518 32.4437 9.59308 32.2888C10.1412 31.9595 10.7812 30.7415 10.8953 30.5022C11.1182 29.9672 11.2258 29.5016 11.2771 28.9229C11.3129 28.2772 11.2566 27.7782 11.067 27.1608C10.8646 26.5769 10.6314 26.1293 10.2394 25.6535L10.2343 25.6483C10.2147 25.6238 10.1927 25.6013 10.1731 25.5768C10.173 25.5766 10.1729 25.5764 10.1728 25.5763C9.35547 24.6606 8.37417 24.2078 7.19047 23.948C6.62423 23.8503 6.13487 23.8246 5.56095 23.8786C5.29491 23.9176 3.92555 24.1487 3.48563 24.5783C3.29289 24.7665 3.44715 25.071 3.71328 25.1128C4.25912 25.1985 5.26167 25.0541 5.61475 25.0541Z" fill="#6167CE"/>
<path d="M5.90485 22.9407C5.90567 22.9399 5.90683 22.9395 5.90799 22.9396C6.4657 23.0014 6.92391 23.0862 7.46649 23.2455C8.80392 23.6828 9.80828 24.2822 10.7332 25.3471C10.7358 25.3497 10.7665 25.3857 10.7716 25.3934C10.7917 25.4186 10.8142 25.443 10.8339 25.4684C10.8345 25.4691 10.8351 25.4698 10.8357 25.4706C11.6966 26.4841 12.1014 27.4744 12.2833 28.7966C12.3448 29.4293 12.3269 29.9258 12.25 30.5509C12.1587 31.1299 11.6609 32.6062 11.7237 33.3327C11.747 33.603 12.0107 33.818 12.2672 33.7297C13.067 33.4544 13.8397 31.3241 13.9717 30.911C14.1767 30.1316 14.2356 29.4551 14.2075 28.6499C14.0563 26.9008 13.5541 25.4809 12.4396 24.1227C12.439 24.122 12.4385 24.1214 12.4379 24.1207C12.4092 24.0875 12.3805 24.0536 12.3525 24.0198C12.3209 23.9776 12.2789 23.9362 12.243 23.8976C11.0254 22.5852 9.68446 21.852 7.95073 21.3883C7.26408 21.234 6.66198 21.1594 5.95995 21.1748C5.4629 21.2109 2.56769 21.5221 2.85721 22.5484C3.09018 23.0933 5.19311 22.8832 5.90191 22.9419C5.90303 22.942 5.90405 22.9415 5.90485 22.9407Z" fill="#6167CE"/>
<path d="M8.56196 18.1893C8.56287 18.1893 8.56378 18.1893 8.56466 18.1895C9.70164 18.4235 10.6288 18.6833 11.7045 19.1436C13.0701 19.7738 14.1129 20.4374 15.107 21.5692C15.1376 21.6 15.1645 21.6345 15.1925 21.6677C15.1931 21.6683 15.1936 21.6689 15.1941 21.6696C15.4119 21.9217 15.5989 22.166 15.7885 22.4413C16.7621 23.9332 17.1439 25.2785 17.2541 27.0534C17.2771 27.6244 17.2618 28.1389 17.2131 28.7074C17.1681 29.1026 16.7692 30.893 16.6768 31.8958C16.6344 32.3567 17.0167 32.5911 17.2653 32.2007C17.8353 31.3057 18.3233 29.1339 18.3763 28.854C18.4736 28.2264 18.5121 27.6527 18.5095 27.0174C18.4455 24.9724 18.0253 23.4059 16.9338 21.6721C16.7212 21.3532 16.4982 21.0471 16.2497 20.7564C16.2494 20.756 16.2491 20.7557 16.2488 20.7553C16.2152 20.7169 16.1833 20.6768 16.1472 20.6406C15.0071 19.3674 13.7696 18.6085 12.2118 17.9294C11.0409 17.469 9.99299 17.1989 8.75036 17.0291C8.45753 16.9982 6.22079 16.7956 5.09737 17.0043C4.5908 17.0984 4.64984 17.5507 5.15112 17.6698C6.22491 17.9249 8.20413 18.1251 8.55977 18.1891C8.56055 18.1892 8.56116 18.1893 8.56196 18.1893Z" fill="#6167CE"/>
<path d="M5.79583 27.5557C6.01618 27.5145 6.18784 27.4888 6.41331 27.4965C6.60547 27.5042 6.75663 27.5299 6.93598 27.6045C7.0769 27.6663 7.16401 27.7203 7.27931 27.8206C7.27979 27.8211 7.28037 27.8216 7.28101 27.8221C7.28692 27.8263 7.29448 27.8295 7.29821 27.8357C7.29926 27.8375 7.30054 27.8394 7.30201 27.8408C7.30266 27.8415 7.3034 27.8422 7.30418 27.8429C7.31073 27.8492 7.31898 27.8547 7.32579 27.8607C7.44263 27.963 7.51726 28.064 7.59189 28.2039C7.74673 28.5148 7.76645 28.8779 7.73839 29.2241C7.73731 29.2375 7.73629 29.2491 7.73537 29.2585C7.69181 29.6572 7.48428 30.236 7.81479 30.4778C8.28366 30.7916 8.75766 29.8604 8.87295 29.5466C8.98056 29.2405 9.02156 28.9679 9.02412 28.6463C9.01643 28.2733 8.96007 27.9904 8.82171 27.6457C8.67961 27.3253 8.52539 27.0878 8.27879 26.8453C8.26514 26.8319 8.25211 26.8173 8.23768 26.8047C8.23553 26.8028 8.23344 26.801 8.23152 26.7995C8.22712 26.7959 8.2228 26.7921 8.21842 26.7885C8.20684 26.7789 8.19477 26.7696 8.18428 26.7588C8.18242 26.7569 8.18052 26.755 8.17862 26.7531C7.93777 26.5525 7.68925 26.4264 7.3946 26.321C7.0359 26.2078 6.74382 26.1743 6.36719 26.1949C6.01618 26.2284 5.72665 26.2978 5.40639 26.4444C5.10406 26.5885 4.22012 27.1312 4.55832 27.5788C4.82222 27.9004 5.40639 27.6354 5.79583 27.5557Z" fill="#6167CE"/>
<path d="M6.38542 20.438C6.38621 20.4364 6.38788 20.4355 6.38963 20.4357C7.14931 20.5051 7.79171 20.6054 8.53379 20.8007C10.1633 21.2765 11.4418 21.9145 12.6434 23.126C12.6521 23.1347 12.6608 23.1426 12.6694 23.1496C12.6822 23.16 12.6939 23.1721 12.7039 23.1852C12.7041 23.1854 12.7042 23.1856 12.7044 23.1858C12.7124 23.1962 12.7212 23.2067 12.7306 23.216C13.9091 24.4096 14.4882 25.6289 14.8136 27.2777C14.9314 28.0262 14.9519 28.6333 14.9109 29.387C14.8617 29.9858 14.4174 31.8834 14.4934 32.7687C14.5211 33.0907 14.8558 33.3146 15.1221 33.1315C15.9269 32.5783 16.5675 30.0188 16.6583 29.5953C16.8043 28.6925 16.8146 27.9234 16.7198 27.0102C16.3995 24.9215 15.6898 23.2778 14.2268 21.7498C14.2243 21.7473 14.2089 21.7318 14.2089 21.7318C14.1823 21.7052 14.1547 21.6801 14.1292 21.6524C14.1242 21.647 14.1192 21.6417 14.1141 21.6367C12.6358 20.1885 10.9729 19.4168 8.9796 18.9255C8.10591 18.7454 7.32702 18.6579 6.4354 18.6734C5.99588 18.7001 3.33124 18.9064 2.75363 19.6402C2.58686 19.8521 2.71152 20.1632 2.96603 20.2522C3.76575 20.532 5.79903 20.4005 6.38155 20.4404C6.38327 20.4405 6.38466 20.4395 6.38542 20.438Z" fill="#6167CE"/>
<path d="M9.23246 16.3888C9.23246 16.3895 9.23301 16.3902 9.23373 16.3903C10.568 16.5935 11.5951 16.8481 12.8246 17.4164C12.8436 17.426 12.8635 17.4347 12.8825 17.4442C12.8828 17.4444 12.8832 17.4446 12.8835 17.4447C13.068 17.5325 13.2569 17.6217 13.4371 17.7179C14.446 18.2559 15.1613 18.8246 16.0324 19.6235C16.327 19.8936 17.3083 21.0099 17.7157 20.7476C18.1845 20.3643 17.0956 19.0833 16.883 18.8106C16.0661 17.8542 15.168 17.1254 14.0988 16.5064C13.8956 16.3888 13.689 16.2715 13.4753 16.174C13.4746 16.1736 13.4738 16.1733 13.4731 16.1729C13.4519 16.1627 13.4297 16.1537 13.4087 16.1432C12.2097 15.5875 10.6468 15.2403 9.32982 15.2146C9.02749 15.2094 7.07258 15.1965 7.10589 15.783C7.16732 16.2533 8.83206 16.3308 9.23129 16.3874C9.23202 16.3875 9.23246 16.3881 9.23246 16.3888Z" fill="#6167CE"/>
<path d="M18.9563 26.5812C18.9871 27.0159 19.0357 27.3606 19.0332 27.8056C19.0332 27.8059 19.0332 27.8063 19.0332 27.8066C19.0336 27.8126 19.0357 27.8202 19.0357 27.8262C19.0639 28.2686 19.0409 28.6261 19.0409 29.0609C19.0511 29.4236 19.0742 29.7091 19.4559 29.8248C19.8812 29.9432 20.0324 29.6499 20.1913 29.2898C20.3424 28.9065 20.4398 28.2017 20.4295 27.785C20.4295 27.7848 20.4295 27.7846 20.4295 27.7844C20.4291 27.7745 20.427 27.7641 20.427 27.7541C20.4116 27.3323 20.2681 26.6352 20.0862 26.2622C19.9017 25.9124 19.7224 25.6243 19.3048 25.7812C18.9358 25.9278 18.9384 26.2185 18.9563 26.5786V26.5812Z" fill="#6167CE"/>
<path d="M16.0581 17.2057C16.34 17.4295 16.5782 17.5941 16.8473 17.8462C16.8505 17.8495 16.856 17.8524 16.8593 17.8557C16.8595 17.856 16.8598 17.8562 16.8601 17.8565C17.147 18.088 17.352 18.3015 17.6159 18.5459C17.8414 18.7414 18.031 18.888 18.3128 18.7182C18.6228 18.5227 18.5306 18.2655 18.3999 17.9671C18.2513 17.6584 17.8772 17.2031 17.6159 16.9768C17.6156 16.9764 17.6152 16.9761 17.6147 16.9757C17.6097 16.9717 17.6051 16.9682 17.6008 16.9634C17.5994 16.962 17.5972 16.9607 17.5957 16.9594C17.3312 16.7333 16.8258 16.4312 16.4962 16.3337C16.1785 16.2514 15.9044 16.1999 15.766 16.5421C15.6507 16.8507 15.825 17.0128 16.0556 17.2031L16.0581 17.2057Z" fill="#6167CE"/>
<path d="M6.30164 29.7089C6.67804 29.7089 6.98317 29.3657 6.98317 28.9423C6.98317 28.519 6.67804 28.1758 6.30164 28.1758C5.92525 28.1758 5.62012 28.519 5.62012 28.9423C5.62012 29.3657 5.92525 29.7089 6.30164 29.7089Z" fill="#6167CE"/>
<path fill-rule="evenodd" clip-rule="evenodd" d="M9.62624 11.7098C9.62671 11.7093 9.62752 11.7096 9.62752 11.7103C9.62625 12.2555 9.04776 13.0204 8.39001 13.0204C7.73154 13.0204 7.22168 12.1072 7.22168 11.5619C7.22168 10.5954 9.62163 10.8182 9.62496 11.7092C9.62496 11.7099 9.62577 11.7103 9.62624 11.7098Z" fill="#6167CE"/>
<path fill-rule="evenodd" clip-rule="evenodd" d="M4.74466 13.2479C4.74395 13.2479 4.74338 13.2485 4.74338 13.2492C4.74364 13.9663 4.95806 14.5677 4.06185 14.8453C3.16511 15.1231 1.89941 13.9964 1.89941 13.4511C1.89941 12.4845 4.74248 12.5302 4.74594 13.2466C4.74594 13.2473 4.74537 13.2479 4.74466 13.2479Z" fill="#6167CE"/>
<path fill-rule="evenodd" clip-rule="evenodd" d="M23.198 27.4334C22.8675 27.5697 22.4294 27.9915 21.9631 27.2096C21.4968 26.4276 21.9656 25.0746 22.2167 24.9717C22.6625 24.789 23.5285 27.297 23.198 27.4334Z" fill="#6167CE"/>
<path fill-rule="evenodd" clip-rule="evenodd" d="M14.4268 12.9281C14.25 13.5043 13.4481 14.1448 12.8178 13.9493C12.1901 13.7538 12.0005 12.6349 12.1773 12.0587C12.4924 11.0323 14.7163 11.9841 14.4268 12.9281Z" fill="#6167CE"/>
<path fill-rule="evenodd" clip-rule="evenodd" d="M19.5315 15.9588C19.2292 16.216 18.3965 16.2778 17.9378 15.9408C17.4792 15.6038 17.6329 14.9119 17.9353 14.6546C18.4733 14.1993 20.026 15.5395 19.5315 15.9588Z" fill="#6167CE"/>
<path fill-rule="evenodd" clip-rule="evenodd" d="M10.4836 1.34916C10.4829 1.34916 10.4824 1.34857 10.4825 1.34792C10.5474 0.987566 9.90485 0.348357 9.07311 0.194197C8.23785 0.0398587 7.48203 0.520878 7.41541 0.881C7.29764 1.51847 10.3702 1.93504 10.4846 1.35043C10.4847 1.34978 10.4842 1.34916 10.4836 1.34916Z" fill="#6167CE"/>
<path fill-rule="evenodd" clip-rule="evenodd" d="M2.03812 5.92394C2.04324 5.70787 1.60256 5.39405 1.10038 5.38376C0.595638 5.37347 0.198508 5.73102 0.193383 5.9471C0.185697 6.33294 2.03299 6.27892 2.03812 5.92394Z" fill="#6167CE"/>
<path fill-rule="evenodd" clip-rule="evenodd" d="M18.2942 2.57394C18.2942 2.57426 18.2947 2.57438 18.2948 2.5741C18.5886 1.98441 18.3475 0.604519 17.4206 0.0955285C16.4931 -0.413786 15.0506 1.25821 14.8277 1.70321C14.4308 2.49755 17.9951 3.16087 18.2937 2.57377C18.2938 2.57348 18.2942 2.57362 18.2942 2.57394Z" fill="#6167CE"/>
<path fill-rule="evenodd" clip-rule="evenodd" d="M24.7591 6.39903C25.1435 5.93087 25.1332 4.66787 24.3031 4.04795C23.4755 3.42802 21.7845 4.64215 21.4924 4.99712C20.9723 5.62734 24.3748 6.86718 24.7591 6.39903Z" fill="#6167CE"/>
<path fill-rule="evenodd" clip-rule="evenodd" d="M29.2207 23.0279C29.2206 23.0279 29.2206 23.0277 29.2207 23.0277C29.6766 22.9545 30.3056 22.222 30.1418 21.4485C29.9778 20.6717 28.397 20.5122 28.0511 20.5662C27.4367 20.6639 28.7636 23.0982 29.2208 23.0281C29.2209 23.0281 29.2209 23.0279 29.2207 23.0279Z" fill="#6167CE"/>
<path fill-rule="evenodd" clip-rule="evenodd" d="M9.41388 10.3235C9.41388 10.323 9.41336 10.3227 9.41297 10.323C9.07433 10.6074 6.89765 10.4274 6.65446 10.0599C6.51098 9.84121 6.55454 8.75827 6.82869 8.54734C7.11821 8.32355 9.08336 8.34413 9.49843 8.76084C9.68012 8.94325 9.66756 10.1033 9.41482 10.324C9.41443 10.3243 9.41388 10.324 9.41388 10.3235Z" fill="#6167CE"/>
<path fill-rule="evenodd" clip-rule="evenodd" d="M3.29014 10.4334C3.03649 10.7935 0.879178 11.1587 0.551225 10.8629C0.356503 10.688 0.133598 9.62823 0.348817 9.35299C0.574285 9.0649 2.48307 8.59674 2.98781 8.8977C3.20816 9.02889 3.48487 10.1607 3.29014 10.4334Z" fill="#6167CE"/>
<path fill-rule="evenodd" clip-rule="evenodd" d="M3.88264 12.1225C3.6008 12.3926 1.45118 12.7733 1.15397 12.5804C0.979743 12.4672 0.849074 11.7238 1.08479 11.518C1.33076 11.2994 3.24723 10.8621 3.7161 11.0473C3.92107 11.1296 4.0953 11.9193 3.88264 12.1225Z" fill="#6167CE"/>
<path fill-rule="evenodd" clip-rule="evenodd" d="M14.7127 11.8055C14.3002 12.0087 12.2735 11.1727 12.1608 10.7097C12.0942 10.437 12.4862 9.30261 12.8218 9.15856C13.1703 9.0068 15.0432 9.60872 15.302 10.1746C15.4173 10.4216 15.0253 11.6511 14.7127 11.8055Z" fill="#6167CE"/>
<path fill-rule="evenodd" clip-rule="evenodd" d="M20.2326 15.1078C19.7868 15.1824 18.0087 13.9529 18.001 13.5233C17.9959 13.2686 18.6287 12.3786 18.9823 12.3349C19.3538 12.2912 21.0346 13.2764 21.1627 13.832C21.219 14.0763 20.5708 15.0513 20.2326 15.1078Z" fill="#6167CE"/>
<path fill-rule="evenodd" clip-rule="evenodd" d="M26.0682 25.3736C26.0674 25.3736 26.0667 25.3734 26.066 25.3729C25.699 25.1046 24.7554 22.7418 25.0549 22.4334C25.2317 22.2508 26.7792 20.6971 27.0585 20.9209C27.3506 21.155 28.3652 23.6424 28.0603 24.126C27.9272 24.3367 26.35 25.5712 26.0705 25.3743C26.0698 25.3738 26.069 25.3736 26.0682 25.3736Z" fill="#6167CE"/>
<path fill-rule="evenodd" clip-rule="evenodd" d="M23.4501 26.311C23.4501 26.3115 23.4495 26.3119 23.4491 26.3115C23.1012 26.0204 22.8559 23.8709 23.1733 23.5805C23.3604 23.4082 24.4467 23.3027 24.7106 23.5419C24.9899 23.794 25.3512 25.7155 25.0181 26.176C24.8722 26.3789 23.7167 26.528 23.451 26.3105C23.4506 26.3102 23.4501 26.3105 23.4501 26.311Z" fill="#6167CE"/>
<path fill-rule="evenodd" clip-rule="evenodd" d="M9.90936 8.17058C9.90936 8.16998 9.90886 8.16954 9.90832 8.16979C9.53095 8.3515 7.16508 8.12017 6.91166 7.85033C6.7605 7.69085 6.84248 6.93202 7.14994 6.79826C7.47277 6.65678 9.61215 6.76482 10.0503 7.07864C10.2422 7.21479 10.1939 8.0282 9.9105 8.17129C9.90997 8.17156 9.90936 8.17117 9.90936 8.17058Z" fill="#6167CE"/>
<path fill-rule="evenodd" clip-rule="evenodd" d="M2.66814 7.98372C2.66814 7.98455 2.66791 7.98526 2.66735 7.98587C2.42313 8.25329 0.495151 8.60472 0.21618 8.40686C0.0496418 8.29111 -0.106648 7.54772 0.0957601 7.34193C0.308417 7.12843 2.02248 6.71172 2.45805 6.90464C2.64991 6.9894 2.84944 7.7768 2.66897 7.9815C2.66843 7.98212 2.66814 7.98289 2.66814 7.98372Z" fill="#6167CE"/>
<path fill-rule="evenodd" clip-rule="evenodd" d="M15.6294 9.65491C15.6294 9.65425 15.6289 9.65372 15.6283 9.65385C15.2078 9.7368 13.0236 8.78901 12.8674 8.42921C12.7752 8.21571 13.1006 7.4363 13.4388 7.38486C13.7924 7.32827 15.8011 8.07938 16.1188 8.53982C16.257 8.74277 15.9454 9.58967 15.6307 9.65594C15.63 9.65608 15.6294 9.65558 15.6294 9.65491Z" fill="#6167CE"/>
<path fill-rule="evenodd" clip-rule="evenodd" d="M21.6134 12.5495C21.6126 12.5503 21.6117 12.5508 21.6105 12.551C21.184 12.5893 19.0755 11.5678 18.9475 11.2312C18.8707 11.0331 19.2499 10.3618 19.5906 10.3412C19.9468 10.3206 21.8965 11.1515 22.1809 11.5888C22.3063 11.7813 21.9338 12.5146 21.6165 12.548C21.6153 12.5482 21.6143 12.5487 21.6134 12.5495Z" fill="#6167CE"/>
<path fill-rule="evenodd" clip-rule="evenodd" d="M10.2802 6.44209C9.89327 6.65302 7.28758 6.21059 6.98013 5.84789C6.79822 5.63439 6.80334 4.67235 7.12361 4.51801C7.45925 4.35596 9.80103 4.62862 10.3135 5.05562C10.5389 5.2434 10.5722 6.28261 10.2802 6.44209Z" fill="#6167CE"/>
<path fill-rule="evenodd" clip-rule="evenodd" d="M16.5796 8.07046C16.5798 8.07046 16.58 8.07076 16.5797 8.07084C16.1488 8.21791 13.7034 7.19806 13.4858 6.74315C13.3577 6.47306 13.5806 5.43128 13.929 5.33096C14.2954 5.2255 16.5245 6.0049 16.9267 6.57338C17.1033 6.82259 16.9016 7.95452 16.5795 8.07004C16.5792 8.07012 16.5793 8.07046 16.5796 8.07046Z" fill="#6167CE"/>
<path fill-rule="evenodd" clip-rule="evenodd" d="M22.7584 10.6989C22.3229 10.7992 19.9529 9.688 19.7684 9.26358C19.6582 9.01149 19.9554 8.09575 20.3116 8.03144C20.6831 7.96456 22.8507 8.84172 23.2119 9.38447C23.3708 9.62112 23.0889 10.6217 22.7584 10.6989Z" fill="#6167CE"/>
<path fill-rule="evenodd" clip-rule="evenodd" d="M10.1467 4.16279C9.71111 4.14221 7.28221 3.80781 6.93376 3.57888C6.72879 3.44255 6.65705 2.00978 7.01831 2.0355C7.39751 2.06122 9.7931 2.32874 10.3721 2.63999C10.6258 2.77632 10.4772 4.17822 10.1467 4.16279Z" fill="#6167CE"/>
<path fill-rule="evenodd" clip-rule="evenodd" d="M17.0835 5.51866C16.6735 5.36946 14.3523 4.74954 14.0935 4.40485C13.9398 4.20164 14.3394 2.66083 14.6751 2.79459C15.0287 2.9335 17.3423 3.47111 17.7958 3.97271C17.9956 4.19392 17.3961 5.63184 17.0835 5.51866Z" fill="#6167CE"/>
<path fill-rule="evenodd" clip-rule="evenodd" d="M23.548 8.88667C23.5487 8.88606 23.5486 8.88511 23.5478 8.88477C23.1466 8.71637 20.8793 7.97953 20.6464 7.64812C20.5081 7.45262 21.0154 6.10474 21.3408 6.25136C21.6815 6.4057 23.9516 7.07192 24.3666 7.55808C24.5482 7.77119 23.8517 9.00938 23.5484 8.88865C23.5476 8.88833 23.5474 8.88729 23.548 8.88667Z" fill="#6167CE"/>
<path d="M37.3123 30.6703C36.9694 30.6703 36.6936 30.5659 36.4849 30.3572C36.2762 30.1485 36.1719 29.8653 36.1719 29.5075V15.9345C36.1719 15.5917 36.2762 15.3159 36.4849 15.1072C36.7085 14.8985 36.9918 14.7941 37.3346 14.7941H48.0678C48.4107 14.7941 48.6865 14.8985 48.8952 15.1072C49.1188 15.3159 49.2306 15.5917 49.2306 15.9345V29.5299C49.2306 29.8727 49.1262 30.1485 48.9175 30.3572C48.7088 30.5659 48.433 30.6703 48.0902 30.6703C47.7473 30.6703 47.4715 30.5659 47.2628 30.3572C47.0541 30.1485 46.9498 29.8727 46.9498 29.5299V16.6724H38.4527V29.5299C38.4527 29.8727 38.3483 30.1485 38.1396 30.3572C37.9309 30.5659 37.6551 30.6703 37.3123 30.6703Z" fill="#6167CE"/>
<path d="M59.6741 30.7374C58.1834 30.7374 56.8865 30.4094 55.7833 29.7535C54.6951 29.0976 53.8528 28.1659 53.2566 26.9584C52.6603 25.7509 52.3621 24.3273 52.3621 22.6875C52.3621 21.0328 52.6528 19.6017 53.2342 18.3942C53.8305 17.1718 54.6802 16.2401 55.7833 15.5991C56.8865 14.9432 58.1834 14.6152 59.6741 14.6152C61.1797 14.6152 62.4841 14.9432 63.5872 15.5991C64.6904 16.2401 65.5326 17.1718 66.114 18.3942C66.7103 19.6017 67.0084 21.0253 67.0084 22.6651C67.0084 24.3049 66.7103 25.736 66.114 26.9584C65.5326 28.1659 64.6904 29.0976 63.5872 29.7535C62.4841 30.4094 61.1797 30.7374 59.6741 30.7374ZM59.6741 28.8591C61.2543 28.8591 62.4841 28.3224 63.3636 27.2491C64.2432 26.1758 64.6829 24.6478 64.6829 22.6651C64.6829 20.6825 64.2432 19.1619 63.3636 18.1035C62.499 17.0302 61.2692 16.4935 59.6741 16.4935C58.1089 16.4935 56.8865 17.0302 56.0069 18.1035C55.1423 19.1619 54.71 20.6825 54.71 22.6651C54.71 24.6478 55.1423 26.1758 56.0069 27.2491C56.8865 28.3224 58.1089 28.8591 59.6741 28.8591Z" fill="#6167CE"/>
<path d="M84.1476 14.6823C84.4756 14.6823 84.7439 14.7941 84.9526 15.0177C85.1613 15.2264 85.2657 15.5022 85.2657 15.8451V29.5746C85.2657 29.9175 85.1688 30.1858 84.975 30.3796C84.7961 30.5734 84.5427 30.6703 84.2147 30.6703C83.9017 30.6703 83.6557 30.5734 83.4768 30.3796C83.2979 30.1858 83.2085 29.9175 83.2085 29.5746V19.1768L78.8258 27.5174C78.5425 28.0392 78.1773 28.3 77.7301 28.3C77.2829 28.3 76.9176 28.0392 76.6344 27.5174L72.2293 19.2663V29.5746C72.2293 29.9175 72.1399 30.1858 71.961 30.3796C71.7821 30.5734 71.5287 30.6703 71.2007 30.6703C70.8877 30.6703 70.6343 30.5734 70.4405 30.3796C70.2616 30.1709 70.1721 29.9026 70.1721 29.5746V15.8451C70.1721 15.5022 70.2765 15.2264 70.4852 15.0177C70.6939 14.7941 70.9622 14.6823 71.2902 14.6823C71.7523 14.6823 72.125 14.9506 72.4082 15.4873L77.7524 25.7062L83.052 15.4873C83.3352 14.9506 83.7004 14.6823 84.1476 14.6823Z" fill="#6167CE"/>
<path d="M102.86 29.2168C102.934 29.3957 102.971 29.5448 102.971 29.664C102.971 29.9473 102.852 30.1858 102.614 30.3796C102.39 30.5734 102.137 30.6703 101.853 30.6703C101.66 30.6703 101.473 30.6181 101.294 30.5138C101.13 30.3945 101.004 30.2305 100.914 30.0218L99.4384 26.6677H91.2543L89.7785 30.0218C89.6891 30.2305 89.5549 30.3945 89.376 30.5138C89.1972 30.6181 89.0108 30.6703 88.817 30.6703C88.5189 30.6703 88.2505 30.5734 88.012 30.3796C87.7884 30.1858 87.6766 29.9473 87.6766 29.664C87.6766 29.5448 87.7139 29.3957 87.7884 29.2168L94.0942 15.4202C94.1985 15.1817 94.3625 14.9954 94.5861 14.8612C94.8246 14.727 95.0706 14.66 95.324 14.66C95.5774 14.66 95.8159 14.727 96.0396 14.8612C96.2781 14.9954 96.4495 15.1817 96.5539 15.4202L102.86 29.2168ZM92.0817 24.8341H98.6334L95.3464 17.4327L92.0817 24.8341Z" fill="#6167CE"/>
<path d="M106.513 30.6703C106.17 30.6703 105.894 30.5659 105.685 30.3572C105.477 30.1485 105.372 29.8727 105.372 29.5299V15.9122C105.372 15.5693 105.477 15.301 105.685 15.1072C105.894 14.8985 106.162 14.7941 106.49 14.7941H114.585C114.898 14.7941 115.144 14.8836 115.323 15.0625C115.502 15.2264 115.591 15.45 115.591 15.7333C115.591 16.0165 115.502 16.2476 115.323 16.4265C115.144 16.5904 114.898 16.6724 114.585 16.6724H107.653V29.5299C107.653 29.8727 107.549 30.1485 107.34 30.3572C107.131 30.5659 106.856 30.6703 106.513 30.6703Z" fill="#6167CE"/>
<path d="M129.697 29.2168C129.771 29.3957 129.809 29.5448 129.809 29.664C129.809 29.9473 129.689 30.1858 129.451 30.3796C129.227 30.5734 128.974 30.6703 128.691 30.6703C128.497 30.6703 128.311 30.6181 128.132 30.5138C127.968 30.3945 127.841 30.2305 127.752 30.0218L126.276 26.6677H118.092L116.616 30.0218C116.526 30.2305 116.392 30.3945 116.213 30.5138C116.034 30.6181 115.848 30.6703 115.654 30.6703C115.356 30.6703 115.088 30.5734 114.849 30.3796C114.626 30.1858 114.514 29.9473 114.514 29.664C114.514 29.5448 114.551 29.3957 114.626 29.2168L120.931 15.4202C121.036 15.1817 121.2 14.9954 121.423 14.8612C121.662 14.727 121.908 14.66 122.161 14.66C122.415 14.66 122.653 14.727 122.877 14.8612C123.115 14.9954 123.287 15.1817 123.391 15.4202L129.697 29.2168ZM118.919 24.8341H125.471L122.184 17.4327L118.919 24.8341Z" fill="#6167CE"/>
<path d="M138.617 30.7374C137.082 30.7374 135.755 30.4094 134.637 29.7535C133.519 29.0976 132.655 28.1659 132.043 26.9584C131.447 25.736 131.149 24.3049 131.149 22.6651C131.149 21.0253 131.447 19.6017 132.043 18.3942C132.655 17.1867 133.519 16.255 134.637 15.5991C135.755 14.9432 137.082 14.6152 138.617 14.6152C140.6 14.6152 142.27 15.2115 143.626 16.4041C143.954 16.6724 144.118 16.9855 144.118 17.3433C144.118 17.5967 144.029 17.8128 143.85 17.9917C143.686 18.1706 143.485 18.26 143.246 18.26C143.037 18.26 142.806 18.1706 142.553 17.9917C141.897 17.4551 141.271 17.0749 140.675 16.8513C140.093 16.6277 139.415 16.5159 138.64 16.5159C137.164 16.5159 135.986 16.9557 135.107 17.8352C134.242 18.7147 133.735 19.9744 133.586 21.6142H140.384C140.682 21.6142 140.921 21.7036 141.1 21.8825C141.293 22.0465 141.39 22.2701 141.39 22.5533C141.39 22.8216 141.293 23.0453 141.1 23.2241C140.921 23.3881 140.682 23.4701 140.384 23.4701H133.564C133.668 25.1844 134.16 26.5037 135.04 27.428C135.919 28.3522 137.119 28.8143 138.64 28.8143C139.326 28.8143 139.967 28.7174 140.563 28.5236C141.159 28.3149 141.8 27.9572 142.486 27.4503C142.724 27.3013 142.955 27.2267 143.179 27.2267C143.418 27.2267 143.611 27.3162 143.76 27.495C143.924 27.659 144.006 27.8603 144.006 28.0988C144.006 28.5013 143.813 28.8442 143.425 29.1274C142.844 29.6193 142.121 30.0144 141.256 30.3125C140.391 30.5957 139.512 30.7374 138.617 30.7374Z" fill="#6167CE"/>
<path d="M160.882 14.6823C161.21 14.6823 161.478 14.7941 161.687 15.0177C161.896 15.2264 162 15.5022 162 15.8451V29.5746C162 29.9175 161.903 30.1858 161.709 30.3796C161.53 30.5734 161.277 30.6703 160.949 30.6703C160.636 30.6703 160.39 30.5734 160.211 30.3796C160.032 30.1858 159.943 29.9175 159.943 29.5746V19.1768L155.56 27.5174C155.277 28.0392 154.911 28.3 154.464 28.3C154.017 28.3 153.652 28.0392 153.369 27.5174L148.964 19.2663V29.5746C148.964 29.9175 148.874 30.1858 148.695 30.3796C148.516 30.5734 148.263 30.6703 147.935 30.6703C147.622 30.6703 147.368 30.5734 147.175 30.3796C146.996 30.1709 146.906 29.9026 146.906 29.5746V15.8451C146.906 15.5022 147.011 15.2264 147.219 15.0177C147.428 14.7941 147.696 14.6823 148.024 14.6823C148.486 14.6823 148.859 14.9506 149.142 15.4873L154.487 25.7062L159.786 15.4873C160.069 14.9506 160.435 14.6823 160.882 14.6823Z" fill="#6167CE"/>
<path d="M36.5166 10.8135C36.4101 10.8135 36.326 10.7826 36.2644 10.721C36.2027 10.6593 36.1719 10.5724 36.1719 10.4603V5.23067C36.1719 5.12417 36.2027 5.04009 36.2644 4.97843C36.326 4.91678 36.4101 4.88595 36.5166 4.88595H39.7704C39.8657 4.88595 39.9442 4.91397 40.0058 4.97003C40.0675 5.02047 40.0983 5.08773 40.0983 5.17181C40.0983 5.2615 40.0675 5.33436 40.0058 5.39042C39.9442 5.44086 39.8657 5.46609 39.7704 5.46609H36.8529V7.31581H38.4504C39.0894 7.31581 39.5742 7.45594 39.905 7.7362C40.2413 8.01086 40.4094 8.43125 40.4094 8.99738C40.4094 9.35611 40.331 9.67281 40.174 9.94746C40.0171 10.2221 39.7872 10.4351 39.4846 10.5865C39.1875 10.7378 38.8372 10.8135 38.4336 10.8135H36.5166ZM38.3663 10.2417C38.8147 10.2417 39.1539 10.1352 39.3837 9.92224C39.6191 9.70364 39.7368 9.39535 39.7368 8.99738C39.7368 8.61622 39.6247 8.33596 39.4005 8.1566C39.1819 7.97723 38.8428 7.88754 38.3831 7.88754H36.8529V10.2417H38.3663Z" fill="#6167CE"/>
<path d="M45.443 6.13031C45.443 7.06077 45.3925 7.82589 45.2916 8.42565C45.1907 9.0198 45.031 9.50185 44.8124 9.87179C44.5994 10.2417 44.3107 10.5444 43.9464 10.7798C43.8847 10.8191 43.8202 10.8387 43.753 10.8387C43.6689 10.8387 43.596 10.8079 43.5344 10.7462C43.4783 10.6789 43.4503 10.6033 43.4503 10.5192C43.4503 10.3847 43.5176 10.281 43.6521 10.2081C43.9211 10.0736 44.1369 9.85778 44.2995 9.5607C44.462 9.25802 44.5798 8.84043 44.6526 8.30794C44.7311 7.76983 44.7703 7.07759 44.7703 6.2312V5.22226C44.7703 5.11576 44.7984 5.03449 44.8544 4.97843C44.9161 4.91678 45.0001 4.88595 45.1066 4.88595H48.3605C48.467 4.88595 48.5483 4.91678 48.6043 4.97843C48.666 5.03449 48.6968 5.11576 48.6968 5.22226V10.5108C48.6968 10.6173 48.666 10.7014 48.6043 10.763C48.5426 10.8247 48.4614 10.8555 48.3605 10.8555C48.254 10.8555 48.1699 10.8247 48.1082 10.763C48.0466 10.7014 48.0158 10.6173 48.0158 10.5108V5.46609H45.443V6.13031Z" fill="#6167CE"/>
<path d="M57.6185 10.4183C57.6409 10.4631 57.6521 10.5108 57.6521 10.5612C57.6521 10.6453 57.6185 10.7154 57.5512 10.7714C57.4896 10.8275 57.4139 10.8555 57.3242 10.8555C57.1841 10.8555 57.086 10.7882 57.0299 10.6537L56.433 9.29165H53.2632L52.6579 10.6537C52.6018 10.7882 52.5037 10.8555 52.3636 10.8555C52.2739 10.8555 52.1954 10.8275 52.1282 10.7714C52.0609 10.7098 52.0273 10.6369 52.0273 10.5528C52.0273 10.508 52.0385 10.4631 52.0609 10.4183L54.4656 5.07092C54.4992 4.99245 54.5496 4.93359 54.6169 4.89435C54.6842 4.85512 54.757 4.8355 54.8355 4.8355C54.9196 4.8355 54.9952 4.85792 55.0625 4.90276C55.1298 4.942 55.1802 4.99805 55.2139 5.07092L57.6185 10.4183ZM53.5155 8.71992H56.1808L54.8439 5.70151L53.5155 8.71992Z" fill="#6167CE"/>
<path d="M61.3143 10.8555C61.2134 10.8555 61.1321 10.8247 61.0704 10.763C61.0088 10.7014 60.9779 10.6173 60.9779 10.5108V5.22226C60.9779 5.12137 61.0088 5.04009 61.0704 4.97843C61.1321 4.91678 61.2134 4.88595 61.3143 4.88595H64.3999C64.4896 4.88595 64.5597 4.91397 64.6101 4.97003C64.6662 5.02047 64.6942 5.08773 64.6942 5.17181C64.6942 5.2615 64.6662 5.33436 64.6101 5.39042C64.5597 5.44086 64.4896 5.46609 64.3999 5.46609H61.659V10.5108C61.659 10.6173 61.6282 10.7014 61.5665 10.763C61.5048 10.8247 61.4208 10.8555 61.3143 10.8555Z" fill="#6167CE"/>
<path d="M70.3366 10.8807C69.7873 10.8807 69.308 10.7574 68.8989 10.5108C68.4953 10.2642 68.1842 9.91383 67.9656 9.45981C67.747 9.00579 67.6377 8.47049 67.6377 7.85391C67.6377 7.23173 67.7442 6.69363 67.9572 6.23961C68.1758 5.77998 68.4869 5.42965 68.8904 5.18863C69.2996 4.942 69.7817 4.81868 70.3366 4.81868C70.8915 4.81868 71.3708 4.942 71.7743 5.18863C72.1835 5.42965 72.4946 5.77998 72.7076 6.23961C72.9262 6.69363 73.0355 7.22893 73.0355 7.84551C73.0355 8.46208 72.9262 9.00018 72.7076 9.45981C72.489 9.91383 72.1751 10.2642 71.7659 10.5108C71.3624 10.7574 70.8859 10.8807 70.3366 10.8807ZM70.3366 10.2922C70.9644 10.2922 71.452 10.082 71.7996 9.6616C72.1527 9.2356 72.3293 8.63024 72.3293 7.84551C72.3293 7.06077 72.1555 6.45821 71.808 6.03782C71.4604 5.61743 70.97 5.40723 70.3366 5.40723C69.7088 5.40723 69.2184 5.62023 68.8652 6.04623C68.5177 6.46662 68.3439 7.06638 68.3439 7.84551C68.3439 8.62463 68.5177 9.22719 68.8652 9.65319C69.2184 10.0792 69.7088 10.2922 70.3366 10.2922Z" fill="#6167CE"/>
<path d="M76.216 12.1419C76.1151 12.1419 76.0339 12.1111 75.9722 12.0494C75.9162 11.9878 75.8881 11.9037 75.8881 11.7972V10.5781C75.8881 10.4716 75.9162 10.3875 75.9722 10.3258C76.0339 10.2642 76.1179 10.2333 76.2244 10.2333H76.5355C76.855 9.73447 77.068 9.14031 77.1745 8.45087C77.2866 7.75582 77.3427 6.95147 77.3427 6.03782V5.22226C77.3427 5.11576 77.3707 5.03449 77.4268 4.97843C77.4884 4.91678 77.5725 4.88595 77.679 4.88595H80.8403C80.9468 4.88595 81.0309 4.91678 81.0926 4.97843C81.1542 5.03449 81.1851 5.11576 81.1851 5.22226V10.2333H81.6811C81.7876 10.2333 81.8689 10.2642 81.925 10.3258C81.9866 10.3875 82.0174 10.4716 82.0174 10.5781V11.7972C82.0174 11.9037 81.9866 11.9878 81.925 12.0494C81.8633 12.1111 81.7848 12.1419 81.6895 12.1419C81.5886 12.1419 81.5074 12.1111 81.4457 12.0494C81.3841 11.9878 81.3532 11.9037 81.3532 11.7972V10.8135H76.5523V11.7972C76.5523 11.9037 76.5215 11.9878 76.4599 12.0494C76.3982 12.1111 76.3169 12.1419 76.216 12.1419ZM80.4956 5.45768H77.9817V5.98737C77.9817 6.95708 77.92 7.78385 77.7967 8.46769C77.679 9.15152 77.4828 9.74007 77.2082 10.2333H80.4956V5.45768Z" fill="#6167CE"/>
<path d="M85.6936 10.8555C85.5871 10.8555 85.503 10.8247 85.4413 10.763C85.3797 10.6958 85.3489 10.6089 85.3489 10.5024V5.19704C85.3489 5.09054 85.3797 5.00646 85.4413 4.9448C85.503 4.87754 85.5871 4.84391 85.6936 4.84391C85.8001 4.84391 85.8841 4.87754 85.9458 4.9448C86.0075 5.00646 86.0383 5.09054 86.0383 5.19704V10.5024C86.0383 10.6089 86.0075 10.6958 85.9458 10.763C85.8841 10.8247 85.8001 10.8555 85.6936 10.8555Z" fill="#6167CE"/>
<path d="M94.0161 5.02888C94.1002 4.90557 94.2235 4.84391 94.3861 4.84391C94.4982 4.84391 94.5851 4.87474 94.6467 4.93639C94.7084 4.99805 94.7392 5.08493 94.7392 5.19704V10.5108C94.7392 10.6173 94.7084 10.7014 94.6467 10.763C94.5851 10.8247 94.501 10.8555 94.3945 10.8555C94.2936 10.8555 94.2123 10.8247 94.1507 10.763C94.089 10.7014 94.0582 10.6173 94.0582 10.5108V5.92852L90.6026 10.6285C90.5409 10.7126 90.4792 10.7714 90.4176 10.8051C90.3559 10.8387 90.2831 10.8555 90.199 10.8555C90.0925 10.8555 90.0084 10.8247 89.9468 10.763C89.8851 10.6958 89.8543 10.6089 89.8543 10.5024V5.18863C89.8543 5.08213 89.8851 4.99805 89.9468 4.93639C90.0084 4.87474 90.0897 4.84391 90.1906 4.84391C90.2971 4.84391 90.3812 4.87474 90.4428 4.93639C90.5045 4.99805 90.5353 5.08213 90.5353 5.18863V9.76249L94.0161 5.02888ZM92.301 4.33944C91.9646 4.33944 91.662 4.26657 91.3929 4.12083C91.1295 3.9751 90.9361 3.7593 90.8128 3.47343C90.7959 3.42859 90.7875 3.38655 90.7875 3.34731C90.7875 3.27444 90.8156 3.21279 90.8716 3.16234C90.9277 3.11189 90.9893 3.08667 91.0566 3.08667C91.1631 3.08667 91.2472 3.14272 91.3088 3.25483C91.5218 3.66401 91.8525 3.8686 92.301 3.8686C92.7382 3.8686 93.0661 3.66681 93.2847 3.26323C93.3463 3.14552 93.4304 3.08667 93.5369 3.08667C93.6042 3.08667 93.6658 3.1147 93.7219 3.17075C93.7779 3.2212 93.806 3.28285 93.806 3.35572C93.7947 3.41177 93.7835 3.45942 93.7723 3.49865C93.6434 3.77331 93.4472 3.98351 93.1838 4.12924C92.9259 4.26937 92.6317 4.33944 92.301 4.33944Z" fill="#6167CE"/>
<path d="M103.129 4.84391C103.236 4.84391 103.317 4.87754 103.373 4.9448C103.435 5.00646 103.466 5.09054 103.466 5.19704V10.5024C103.466 10.6089 103.435 10.6958 103.373 10.763C103.317 10.8247 103.236 10.8555 103.129 10.8555C103.023 10.8555 102.939 10.8247 102.877 10.763C102.815 10.6958 102.785 10.6089 102.785 10.5024V8.09774H99.2364V10.5024C99.2364 10.6089 99.2056 10.6958 99.1439 10.763C99.0823 10.8247 98.9982 10.8555 98.8917 10.8555C98.7852 10.8555 98.7011 10.8247 98.6395 10.763C98.5834 10.6958 98.5554 10.6089 98.5554 10.5024V5.19704C98.5554 5.09054 98.5834 5.00646 98.6395 4.9448C98.7011 4.87754 98.7852 4.84391 98.8917 4.84391C98.9982 4.84391 99.0823 4.87754 99.1439 4.9448C99.2056 5.00646 99.2364 5.09054 99.2364 5.19704V7.50919H102.785V5.19704C102.785 5.09054 102.815 5.00646 102.877 4.9448C102.939 4.87754 103.023 4.84391 103.129 4.84391Z" fill="#6167CE"/>
<path d="M111.443 5.02888C111.527 4.90557 111.65 4.84391 111.813 4.84391C111.925 4.84391 112.012 4.87474 112.074 4.93639C112.135 4.99805 112.166 5.08493 112.166 5.19704V10.5108C112.166 10.6173 112.135 10.7014 112.074 10.763C112.012 10.8247 111.928 10.8555 111.821 10.8555C111.72 10.8555 111.639 10.8247 111.578 10.763C111.516 10.7014 111.485 10.6173 111.485 10.5108V5.92852L108.029 10.6285C107.968 10.7126 107.906 10.7714 107.844 10.8051C107.783 10.8387 107.71 10.8555 107.626 10.8555C107.519 10.8555 107.435 10.8247 107.374 10.763C107.312 10.6958 107.281 10.6089 107.281 10.5024V5.18863C107.281 5.08213 107.312 4.99805 107.374 4.93639C107.435 4.87474 107.517 4.84391 107.617 4.84391C107.724 4.84391 107.808 4.87474 107.87 4.93639C107.931 4.99805 107.962 5.08213 107.962 5.18863V9.76249L111.443 5.02888Z" fill="#6167CE"/>
<path d="M120.144 5.02888C120.228 4.90557 120.352 4.84391 120.514 4.84391C120.626 4.84391 120.713 4.87474 120.775 4.93639C120.836 4.99805 120.867 5.08493 120.867 5.19704V10.5108C120.867 10.6173 120.836 10.7014 120.775 10.763C120.713 10.8247 120.629 10.8555 120.523 10.8555C120.422 10.8555 120.34 10.8247 120.279 10.763C120.217 10.7014 120.186 10.6173 120.186 10.5108V5.92852L116.731 10.6285C116.669 10.7126 116.607 10.7714 116.546 10.8051C116.484 10.8387 116.411 10.8555 116.327 10.8555C116.221 10.8555 116.136 10.8247 116.075 10.763C116.013 10.6958 115.982 10.6089 115.982 10.5024V5.18863C115.982 5.08213 116.013 4.99805 116.075 4.93639C116.136 4.87474 116.218 4.84391 116.319 4.84391C116.425 4.84391 116.509 4.87474 116.571 4.93639C116.632 4.99805 116.663 5.08213 116.663 5.18863V9.76249L120.144 5.02888ZM118.429 4.33944C118.093 4.33944 117.79 4.26657 117.521 4.12083C117.257 3.9751 117.064 3.7593 116.941 3.47343C116.924 3.42859 116.916 3.38655 116.916 3.34731C116.916 3.27444 116.944 3.21279 117 3.16234C117.056 3.11189 117.117 3.08667 117.185 3.08667C117.291 3.08667 117.375 3.14272 117.437 3.25483C117.65 3.66401 117.981 3.8686 118.429 3.8686C118.866 3.8686 119.194 3.66681 119.413 3.26323C119.474 3.14552 119.558 3.08667 119.665 3.08667C119.732 3.08667 119.794 3.1147 119.85 3.17075C119.906 3.2212 119.934 3.28285 119.934 3.35572C119.923 3.41177 119.912 3.45942 119.9 3.49865C119.771 3.77331 119.575 3.98351 119.312 4.12924C119.054 4.26937 118.76 4.33944 118.429 4.33944Z" fill="#6167CE"/>
<path d="M132.148 11.0237C132.041 11.0237 131.957 10.99 131.896 10.9228C131.834 10.8611 131.803 10.7798 131.803 10.6789V10.1577H131.66C131.156 10.1577 130.696 10.068 130.281 9.88861C129.872 9.70924 129.547 9.44299 129.306 9.08987C129.065 8.73113 128.945 8.29673 128.945 7.78665C128.945 7.27097 129.062 6.83657 129.298 6.48344C129.533 6.13031 129.855 5.86686 130.265 5.6931C130.674 5.51934 131.139 5.43246 131.66 5.43246H131.803V5.00366C131.803 4.89716 131.834 4.81308 131.896 4.75142C131.957 4.68976 132.041 4.65894 132.148 4.65894C132.249 4.65894 132.33 4.68976 132.392 4.75142C132.453 4.81308 132.484 4.89716 132.484 5.00366V5.43246H132.627C133.149 5.43246 133.614 5.51934 134.023 5.6931C134.432 5.86686 134.754 6.13031 134.99 6.48344C135.225 6.83657 135.343 7.27097 135.343 7.78665C135.343 8.29673 135.222 8.73113 134.981 9.08987C134.74 9.44299 134.412 9.70924 133.998 9.88861C133.589 10.068 133.132 10.1577 132.627 10.1577H132.484V10.6789C132.484 10.7798 132.453 10.8611 132.392 10.9228C132.33 10.99 132.249 11.0237 132.148 11.0237ZM131.803 5.98737H131.66C131.044 5.98737 130.553 6.14152 130.189 6.4498C129.83 6.75809 129.651 7.20371 129.651 7.78665C129.651 8.17341 129.738 8.50412 129.911 8.77878C130.085 9.04783 130.323 9.25242 130.626 9.39255C130.929 9.53268 131.274 9.60274 131.66 9.60274H131.803V5.98737ZM132.627 9.60274C133.014 9.60274 133.359 9.53268 133.661 9.39255C133.964 9.25242 134.202 9.04783 134.376 8.77878C134.55 8.50412 134.637 8.17341 134.637 7.78665C134.637 7.20371 134.455 6.75809 134.09 6.4498C133.731 6.14152 133.244 5.98737 132.627 5.98737H132.484V9.60274H132.627Z" fill="#6167CE"/>
<path d="M141.38 10.8807C140.831 10.8807 140.352 10.7574 139.942 10.5108C139.539 10.2642 139.228 9.91383 139.009 9.45981C138.791 9.00579 138.681 8.47049 138.681 7.85391C138.681 7.23173 138.788 6.69363 139.001 6.23961C139.219 5.77998 139.53 5.42965 139.934 5.18863C140.343 4.942 140.825 4.81868 141.38 4.81868C141.935 4.81868 142.414 4.942 142.818 5.18863C143.227 5.42965 143.538 5.77998 143.751 6.23961C143.97 6.69363 144.079 7.22893 144.079 7.84551C144.079 8.46208 143.97 9.00018 143.751 9.45981C143.533 9.91383 143.219 10.2642 142.81 10.5108C142.406 10.7574 141.929 10.8807 141.38 10.8807ZM141.38 10.2922C142.008 10.2922 142.496 10.082 142.843 9.6616C143.196 9.2356 143.373 8.63024 143.373 7.84551C143.373 7.06077 143.199 6.45821 142.852 6.03782C142.504 5.61743 142.014 5.40723 141.38 5.40723C140.752 5.40723 140.262 5.62023 139.909 6.04623C139.561 6.46662 139.388 7.06638 139.388 7.84551C139.388 8.62463 139.561 9.22719 139.909 9.65319C140.262 10.0792 140.752 10.2922 141.38 10.2922Z" fill="#6167CE"/>
<path d="M152.249 4.84391C152.355 4.84391 152.437 4.87754 152.493 4.9448C152.554 5.00646 152.585 5.09054 152.585 5.19704V10.5024C152.585 10.6089 152.554 10.6958 152.493 10.763C152.437 10.8247 152.355 10.8555 152.249 10.8555C152.142 10.8555 152.058 10.8247 151.997 10.763C151.935 10.6958 151.904 10.6089 151.904 10.5024V8.09774H148.356V10.5024C148.356 10.6089 148.325 10.6958 148.263 10.763C148.202 10.8247 148.118 10.8555 148.011 10.8555C147.905 10.8555 147.821 10.8247 147.759 10.763C147.703 10.6958 147.675 10.6089 147.675 10.5024V5.19704C147.675 5.09054 147.703 5.00646 147.759 4.9448C147.821 4.87754 147.905 4.84391 148.011 4.84391C148.118 4.84391 148.202 4.87754 148.263 4.9448C148.325 5.00646 148.356 5.09054 148.356 5.19704V7.50919H151.904V5.19704C151.904 5.09054 151.935 5.00646 151.997 4.9448C152.058 4.87754 152.142 4.84391 152.249 4.84391Z" fill="#6167CE"/>
<path d="M156.199 12.1419C156.098 12.1419 156.017 12.1111 155.955 12.0494C155.899 11.9878 155.871 11.9037 155.871 11.7972V10.5781C155.871 10.4716 155.899 10.3875 155.955 10.3258C156.017 10.2642 156.101 10.2333 156.207 10.2333H156.518C156.838 9.73447 157.051 9.14031 157.157 8.45087C157.269 7.75582 157.326 6.95147 157.326 6.03782V5.22226C157.326 5.11576 157.354 5.03449 157.41 4.97843C157.471 4.91678 157.555 4.88595 157.662 4.88595H160.823C160.93 4.88595 161.014 4.91678 161.075 4.97843C161.137 5.03449 161.168 5.11576 161.168 5.22226V10.2333H161.664C161.77 10.2333 161.852 10.2642 161.908 10.3258C161.969 10.3875 162 10.4716 162 10.5781V11.7972C162 11.9037 161.969 11.9878 161.908 12.0494C161.846 12.1111 161.768 12.1419 161.672 12.1419C161.571 12.1419 161.49 12.1111 161.429 12.0494C161.367 11.9878 161.336 11.9037 161.336 11.7972V10.8135H156.535V11.7972C156.535 11.9037 156.504 11.9878 156.443 12.0494C156.381 12.1111 156.3 12.1419 156.199 12.1419ZM160.478 5.45768H157.965V5.98737C157.965 6.95708 157.903 7.78385 157.78 8.46769C157.662 9.15152 157.466 9.74007 157.191 10.2333H160.478V5.45768Z" fill="#6167CE"/>
</svg>
