<svg width="100" height="100" viewBox="0 0 100 100" fill="none" xmlns="http://www.w3.org/2000/svg">
<path d="M35.2305 32.8103L56.9843 17.5827C57.4418 17.2624 58.0731 17.379 58.386 17.8416L68.2063 32.3586" stroke="#566476" stroke-width="2" stroke-linecap="round" stroke-linejoin="round"/>
<path d="M21.6797 32.8103L41.7639 17.5288C42.1621 17.2259 42.7228 17.2638 43.0766 17.6176L48.3314 22.8724" stroke="#566476" stroke-width="2" stroke-linecap="round" stroke-linejoin="round"/>
<path d="M79.9517 48.8465V36.8103C79.9517 34.6012 78.1609 32.8103 75.9517 32.8103H18C15.7909 32.8103 14 34.6012 14 36.8103V78.5C14 80.7091 15.7909 82.5 18 82.5H75.9517C78.1609 82.5 79.9517 80.7091 79.9517 78.5V66.4638" stroke="#566476" stroke-width="2"/>
<path d="M68.207 48.2656H81.373C83.0299 48.2657 84.373 49.6088 84.373 51.2656V63.1416C84.373 64.7984 83.0298 66.1416 81.373 66.1416H68.207C63.2709 66.1414 59.2695 62.1393 59.2695 57.2031C59.2698 52.2672 63.2711 48.2659 68.207 48.2656Z" stroke="#566476" stroke-width="2"/>
<circle cx="68.2075" cy="57.2034" r="2.61379" stroke="#566476" stroke-width="2"/>
</svg>
